<?xml version="1.0" encoding="UTF-8" standalone="no"?>
<!-- Created with Inkscape (http://www.inkscape.org/) -->

<svg
   version="1.1"
   id="svg1"
   width="1019.2556"
   height="367.22995"
   viewBox="0 0 1019.2556 367.22995"
   xmlns="http://www.w3.org/2000/svg"
   xmlns:svg="http://www.w3.org/2000/svg">
  <defs
     id="defs1" />
  <path
     d="m 545.09252,199.86896 c -12.19363,-1.3827 -22.19841,-9.2002 -25.47768,-19.90764 -1.50248,-4.9059 -1.77486,-8.42718 -1.77632,-22.96394 -10e-4,-14.18569 0.20332,-17.32753 1.44742,-22.21047 1.30892,-5.13733 3.5961,-8.94957 7.71901,-12.86593 6.3675,-6.0485 13.85742,-8.6978 23.60632,-8.34991 6.65084,0.23734 11.02171,1.51435 15.84,4.62791 8.17355,5.2817 12.25148,11.92096 13.5661,22.08692 0.98017,7.57964 0.69726,29.84884 -0.45586,35.88265 -1.10989,5.80758 -3.23844,10.08171 -6.98505,14.0259 -4.79995,5.05311 -10.66126,8.27063 -17.00519,9.33489 -2.9557,0.49585 -7.73499,0.65075 -10.47875,0.33962 z m 9.66519,-15.33059 c 3.56818,-1.4384 6.43329,-4.30674 7.74183,-7.75055 1.03564,-2.72558 1.54992,-7.39329 1.75737,-15.95044 0.2113,-8.71564 -0.20902,-17.77384 -0.99888,-21.52633 -1.61137,-7.65543 -8.67836,-12.42505 -16.53408,-11.15912 -4.68439,0.75487 -8.5422,3.50484 -10.48772,7.47597 -1.43326,2.92554 -1.93027,6.85499 -2.15648,17.04948 -0.29621,13.34945 0.40443,21.53429 2.16379,25.27716 1.47965,3.14782 5.00201,6.0244 8.60773,7.0296 2.55002,0.71089 7.60097,0.48361 9.90644,-0.44577 z M 448.7446,199.02405 c -0.11733,-0.11733 -0.21333,-19.12027 -0.21333,-42.22874 0,-41.9652 7.8e-4,-42.01582 0.65293,-42.36484 0.45815,-0.2452 6.40058,-0.31535 19.92,-0.23518 18.91695,0.11219 19.31037,0.1274 21.64996,0.83673 6.57538,1.99358 11.61619,5.88724 14.91303,11.51922 2.48607,4.24697 3.66408,8.81177 3.66408,14.19841 0,12.84355 -8.07388,22.80874 -20.81836,25.69507 -1.85385,0.41986 -4.62935,0.57535 -12.52428,0.70165 -9.61286,0.15378 -10.1728,0.19557 -10.72,0.79993 -0.53618,0.59218 -0.58394,1.70112 -0.66961,15.54635 -0.0626,10.1107 -0.20391,15.04321 -0.43919,15.32671 -0.26728,0.32206 -2.05199,0.41802 -7.77441,0.41802 -4.08512,0 -7.52348,-0.096 -7.64082,-0.21333 z m 35.4092,-46.98514 c 3.81243,-0.99301 6.35059,-2.99576 7.85012,-6.19418 0.74791,-1.59525 0.84735,-2.20164 0.84735,-5.16735 0,-2.96165 -0.1,-3.57321 -0.84325,-5.1584 -1.82453,-3.89116 -5.0046,-6.07489 -9.77051,-6.70933 -1.4574,-0.19401 -5.66435,-0.30023 -9.50906,-0.2401 -6.10446,0.0955 -6.96077,0.17337 -7.46624,0.67926 -0.52522,0.52568 -0.57094,1.43115 -0.57094,11.30828 v 10.73684 l 0.75545,0.61173 c 0.69911,0.56611 1.35637,0.61172 8.81277,0.61172 6.11827,0 8.4994,-0.11514 9.89431,-0.47847 z m 122.4734,46.73767 c -0.38893,-0.46864 -22.4055,-82.44334 -22.41224,-83.44794 -0.007,-1.0548 1.10478,-1.21125 8.6079,-1.21125 7.34614,0 7.37546,0.003 7.85704,0.73772 0.26585,0.40575 3.21958,11.83782 6.56383,25.40459 3.34424,13.56677 6.16945,24.89879 6.27823,25.18227 0.10878,0.28348 0.45881,0.51541 0.77783,0.51541 0.73767,0 0.22626,1.62209 8.46855,-26.86046 3.79125,-13.10126 7.12919,-24.08126 7.41765,-24.4 0.46647,-0.51544 1.11179,-0.57899 5.83488,-0.57463 2.92072,0.003 5.46884,0.11069 5.6625,0.24 0.19365,0.1293 0.50228,0.5231 0.68585,0.8751 0.18357,0.352 3.53403,11.65599 7.44547,25.11999 3.91143,13.464 7.24387,24.732 7.4054,25.04 0.33202,0.63307 1.08226,0.73986 1.41503,0.20142 0.12189,-0.19722 2.99949,-11.58584 6.39468,-25.30805 3.99537,-16.14795 6.36843,-25.16535 6.72686,-25.56142 0.51512,-0.5692 1.07402,-0.61194 8.00135,-0.61194 6.34383,0 7.52207,0.0745 7.95041,0.50285 0.27657,0.27657 0.50285,0.56737 0.50285,0.64622 0,0.90635 -22.29319,83.00147 -22.6505,83.41092 -0.43448,0.49789 -1.18872,0.56 -6.79991,0.56 -5.04872,0 -6.38634,-0.0905 -6.68671,-0.45244 -0.20652,-0.24884 -3.72043,-11.44484 -7.80868,-24.88 -6.68313,-21.96266 -7.50248,-24.43756 -8.11993,-24.5267 -0.80211,-0.1158 0.0519,-2.70084 -9.22976,27.93914 -3.46547,11.44 -6.52199,21.052 -6.79227,21.36 -0.43684,0.49779 -1.19251,0.56 -6.80265,0.56 -5.10275,0 -6.38445,-0.0882 -6.69366,-0.4608 z m 92.84807,0.0768 c -0.29475,-0.29475 -0.384,-10.1095 -0.384,-42.22874 0,-41.04316 0.0119,-41.85108 0.61897,-42.176 0.41257,-0.2208 9.58274,-0.33125 27.50185,-0.33125 h 26.88289 l 0.49815,0.7112 c 0.40534,0.5787 0.49814,1.76712 0.49814,6.37917 0,3.11738 -0.14044,6.03734 -0.31208,6.48879 l -0.31208,0.82083 h -18.17003 c -17.7837,0 -20.03364,0.11285 -20.61841,1.03416 -0.14168,0.22321 -0.2598,4.45153 -0.2625,9.39625 -0.005,8.73521 0.0142,9.00771 0.66839,9.6 0.63972,0.57921 1.45643,0.6143 16.38457,0.704 10.62326,0.0638 15.84582,0.20606 16.12672,0.43918 0.31498,0.26142 0.41542,1.87723 0.41542,6.68274 0,5.33511 -0.0796,6.41753 -0.50285,6.84082 -0.44354,0.44353 -2.36294,0.50285 -16.27041,0.50285 -14.86894,0 -15.79773,0.0334 -16.29714,0.5852 -0.4677,0.5168 -0.5296,1.69279 -0.5296,10.06185 0,9.43016 0.003,9.47911 0.71121,9.97481 0.62392,0.43701 2.99756,0.49814 19.34185,0.49814 h 18.63065 l 0.49815,0.7112 c 0.40535,0.57871 0.49814,1.76713 0.49814,6.37917 0,3.11738 -0.14043,6.03734 -0.31208,6.4888 l -0.31208,0.82083 h -27.30392 c -20.80971,0 -27.39525,-0.0913 -27.68792,-0.384 z m 68.8,0 c -0.29473,-0.29473 -0.384,-10.07136 -0.384,-42.05714 0,-38.08475 0.0449,-41.71803 0.52134,-42.19448 0.47252,-0.47252 2.27803,-0.51089 19.28,-0.40989 l 18.75865,0.11144 3.1323,0.85173 c 11.892,3.23365 19.1229,12.67772 19.1022,24.94885 -0.01,4.23474 -0.6298,7.14211 -2.2128,10.33349 -2.1881,4.41099 -5.2289,7.52701 -10.2738,10.52796 -1.6267,0.96763 -2.5479,1.71686 -2.5479,2.07229 0,0.30619 4.0446,8.36642 8.9881,17.91163 7.3422,14.17699 8.9171,17.44036 8.6008,17.82152 -0.3217,0.38763 -1.8434,0.4666 -8.9912,0.4666 -8.0689,0 -8.6364,-0.038 -9.1266,-0.61039 -0.2874,-0.33572 -3.9964,-7.70195 -8.2421,-16.36941 -5.7012,-11.63878 -7.9545,-15.93433 -8.6181,-16.4296 -0.8219,-0.61337 -1.3223,-0.6706 -5.8631,-0.6706 -4.83141,0 -4.98096,0.0203 -5.57617,0.75545 -0.58354,0.72077 -0.61161,1.47467 -0.61161,16.42104 0,10.18674 -0.11586,15.88206 -0.33126,16.28455 -0.31294,0.58472 -0.74311,0.61896 -7.776,0.61896 -5.36369,0 -7.55209,-0.10734 -7.82875,-0.384 z m 37.62929,-48.38565 c 2.5539,-1.17926 4.8733,-3.64062 5.8345,-6.19141 0.9989,-2.65094 0.7985,-6.88122 -0.4401,-9.28986 -1.8229,-3.54489 -4.8945,-5.57201 -9.3484,-6.1696 -1.4257,-0.19129 -5.6716,-0.29998 -9.4871,-0.24287 -6.25785,0.0937 -6.96961,0.16064 -7.5793,0.71299 -0.65681,0.59503 -0.67288,0.85137 -0.67288,10.7288 0,8.74538 0.0693,10.21815 0.51046,10.848 l 0.51047,0.72879 9.32955,-0.0976 9.3295,-0.0976 z"
     style="fill:#0066a4;fill-opacity:1"
     id="path1" />
  <path
     style="fill:#d9531e;fill-opacity:1"
     d="m 1013.2702,366.31738 c -0.5811,-0.62298 -1.7286,-3.54375 -3.9287,-10 -24.86752,-72.97323 -48.68887,-135.44634 -67.84195,-177.92 -4.34808,-9.64225 -14.80882,-30.6446 -18.96669,-38.08 -11.60218,-20.74785 -19.42746,-30.39999 -24.64618,-30.39999 -2.9878,0 -5.7197,2.90056 -10.5166,11.16589 -2.79969,4.82402 -6.7371,8.02332 -9.8838,8.03098 -2.01846,0.005 -3.37525,-0.91417 -4.46157,-3.02224 -1.79909,-3.49122 -1.44974,-9.42741 0.98833,-16.79386 2.17965,-6.58563 8.74785,-19.05324 13.04696,-24.765407 2.69247,-3.577457 6.73554,-7.291208 9.32627,-8.56662 1.96339,-0.966574 2.50227,-1.088742 4.8024,-1.088742 2.40352,0 2.78579,0.09736 5.28673,1.346469 10.3082,5.148486 23.54424,24.1284 40.12221,57.53352 29.49849,59.44038 52.83398,129.81655 68.17339,205.6 2.9257,14.45455 4.6768,24.38529 4.4678,25.33722 -0.5264,2.3963 -4.292,3.42014 -5.9686,1.62278 z M 568.18315,347.69487 c -3.86049,-0.9836 -6.59837,-2.18821 -6.81576,-2.99881 -0.29082,-1.08438 -0.21965,-9.28611 0.0847,-9.76632 0.22438,-0.35398 0.52088,-0.34283 1.72142,0.0648 2.65738,0.9022 5.64936,1.23957 9.78201,1.103 3.61638,-0.11952 4.27436,-0.23316 6.07433,-1.04915 3.97179,-1.80054 5.82137,-5.04691 5.82137,-10.21763 v -2.98265 l -6.64,-0.17809 c -5.31396,-0.14253 -7.15124,-0.31282 -9.2,-0.85268 -9.14433,-2.40961 -16.09234,-9.2364 -18.60302,-18.27844 -0.89211,-3.21288 -0.81821,-10.78512 0.14035,-14.38149 0.91788,-3.44376 3.44087,-8.53032 5.51502,-11.11872 5.99848,-7.48574 15.58284,-10.86474 24.78546,-8.7382 7.20865,1.66577 12.44962,5.71338 15.85538,12.24517 2.3787,4.562 2.62885,6.11337 2.7883,17.29211 l 0.14035,9.84037 138.92909,-0.0804 138.92908,-0.0804 v -9.44 -9.44 l -0.9254,-2.00378 c -0.50896,-1.10207 -1.47238,-2.49795 -2.14093,-3.10194 -2.33723,-2.11154 -2.11841,-2.09428 -26.55257,-2.09428 -19.90908,0 -22.02348,0.0491 -22.41467,0.52044 -0.23756,0.28625 -2.46207,3.77825 -4.94334,7.76 -3.7954,6.09055 -4.69773,7.33248 -5.68535,7.825 -0.98874,0.49309 -1.35077,0.52709 -2.29485,0.21551 -1.4375,-0.47442 -2.08316,-1.41479 -2.08186,-3.03215 10e-4,-1.48967 2.46119,-11.89901 5.74953,-24.3288 8.48904,-32.08821 18.01926,-59.50772 26.80466,-77.12 4.68674,-9.39559 6.86868,-12.32797 10.49175,-14.10017 1.74352,-0.85283 2.21074,-0.93593 5.27303,-0.93779 3.09389,-0.002 3.52473,0.0762 5.44,0.98566 5.12502,2.43365 8.03387,8.0914 7.02383,13.66144 -1.87416,10.33536 -14.06467,35.33827 -32.67977,67.02665 -2.60924,4.44169 -4.74406,8.21366 -4.74406,8.38216 0,0.19061 7.46637,0.34992 19.76,0.42163 22.15518,0.12922 21.37852,0.0547 26.64,2.5573 2.14749,1.02146 3.2309,1.80622 5.14732,3.72845 2.67345,2.68154 3.84988,4.4822 5.01521,7.67641 1.63959,4.49412 1.72948,5.54784 1.90259,22.30171 0.14879,14.39959 0.11771,15.748 -0.37429,16.24 -0.50049,0.50049 -10.34006,0.53655 -146.43369,0.53655 h -145.8971 v 2.89349 c 0,11.01309 -6.33935,19.36099 -17.13191,22.55996 -3.97219,1.17738 -10.64562,1.40396 -14.25621,0.48404 z m 16.60844,-50.17749 -0.10032,-10.16 -1.09391,-2.33419 c -1.76762,-3.77175 -4.27534,-5.48616 -8.04326,-5.49878 -6.34348,-0.0213 -10.9734,6.77414 -11.00933,16.15858 -0.0128,3.35419 0.0378,3.62985 1.0415,5.66973 1.20883,2.45676 3.25406,4.65558 5.24882,5.64296 1.26401,0.62567 1.89298,0.68121 7.7165,0.68145 l 6.34032,2.5e-4 z m -62.42032,23.89437 c -0.52969,-0.30852 -0.56,-3.13615 -0.56,-52.24627 0,-39.95563 0.0885,-52.00859 0.384,-52.3041 0.27401,-0.27401 2.28728,-0.384 7.02874,-0.384 6.24196,0 6.66482,0.0375 6.976,0.61896 0.22441,0.41932 0.33126,17.23631 0.33126,52.13714 0,46.40805 -0.0499,51.56806 -0.50286,52.02104 -0.42378,0.42378 -1.49309,0.50133 -6.8,0.49313 -3.67902,-0.006 -6.52997,-0.14534 -6.85714,-0.3359 z M 1.0709255,271.06465 C -0.53449147,269.5768 -0.58447558,270.05097 2.6592395,255.99738 18.206458,188.63813 39.853669,127.03048 67.143051,72.477391 87.811369,31.160196 104.62447,6.9090317 116.68197,1.0226127 118.49749,0.13628113 119.10671,0.00228378 121.33126,1.0156197e-5 124.89623,-0.00363384 126.83671,0.97286449 130.49242,4.6101529 c 6.55051,6.5175031 12.82478,19.0315591 19.34677,38.5872391 4.14676,12.433769 8.24502,27.416803 11.15987,40.799999 1.35145,6.205008 1.53722,6.719999 2.42403,6.719999 0.36606,0 2.99714,-0.73065 5.84686,-1.623666 12.48686,-3.913006 41.82284,-11.816333 43.86048,-11.816333 0.43545,0 1.23478,0.372801 1.77628,0.828446 0.79548,0.66935 0.98455,1.072836 0.98455,2.101037 0,0.699925 -0.14381,1.541303 -0.31957,1.869728 -0.48749,0.910883 -19.2273,12.732491 -36.64043,23.113828 -5.632,3.35768 -10.56199,6.30085 -10.95554,6.54037 -0.39355,0.23953 -0.94249,0.78187 -1.21987,1.2052 -0.46489,0.70951 -0.42821,1.36616 0.46892,8.39555 1.86865,14.64171 3.33632,30.17149 4.33462,45.86583 1.26566,19.89745 1.47189,30.01428 0.62902,30.85714 -0.42487,0.42487 -1.53385,0.50286 -7.15041,0.50286 -6.08995,0 -6.69302,-0.0503 -7.18974,-0.59912 -0.45264,-0.50016 -0.61873,-1.99328 -1.00557,-9.04 -0.72179,-13.14845 -1.99292,-29.24851 -4.16557,-52.76088 -1.27653,-13.81465 -1.30877,-14.05515 -1.9154,-14.28793 -0.24982,-0.0959 -4.30988,1.75695 -9.02234,4.11737 -12.72511,6.37388 -20.83182,9.66908 -25.94422,10.54576 -8.83316,1.51472 -16.174474,-6.76991 -13.55421,-15.29586 1.2846,-4.17992 3.65221,-6.3148 11.9042,-10.73405 2.19236,-1.1741 6.4303,-3.23778 9.41764,-4.58596 5.46652,-2.46703 19.75841,-8.257428 21.33685,-8.644685 0.46661,-0.114478 1.16072,-0.499138 1.54248,-0.8548 0.83404,-0.777028 0.87727,-0.416941 -1.2989,-10.819834 -6.94506,-33.199918 -14.96516,-52.479998 -21.83057,-52.479998 -1.72211,0 -4.56599,1.880092 -7.6476,5.055837 C 109.4706,44.556909 101.44878,56.581618 91.819708,73.917391 70.823932,111.71731 43.386552,174.31835 10.901725,258.5396 c -2.4400759,6.32623 -4.7764449,11.90623 -5.1919311,12.4 -1.0308576,1.22511 -3.3834597,1.28853 -4.6388684,0.12505 z M 213.17126,199.14881 c -11.10754,-0.80442 -21.09104,-7.35754 -25.47219,-16.71984 -2.47242,-5.28344 -3.16792,-11.1694 -3.16754,-26.80666 3.6e-4,-14.79176 0.52225,-19.88844 2.58298,-25.22493 3.10492,-8.04049 10.94976,-14.66855 20.33778,-17.18326 2.85306,-0.76423 3.70127,-0.84551 8.75897,-0.83937 5.00726,0.006 5.93872,0.0958 8.8,0.84753 6.49602,1.70668 12.40825,5.49667 16.05997,10.29511 2.25582,2.9642 3.68581,5.74716 5.0539,9.83564 2.04073,6.09864 2.15676,6.00435 -7.38962,6.00435 -8.13871,0 -7.9636,0.0549 -9.08439,-2.84612 -2.19171,-5.67293 -6.4258,-8.84406 -12.31986,-9.22698 -6.09962,-0.39628 -11.23677,2.29376 -13.71325,7.18086 -1.7769,3.50653 -1.96719,5.59489 -1.96205,21.53224 0.004,12.65122 0.0772,14.87365 0.55789,16.95244 1.12879,4.8818 3.44966,7.98827 7.43324,9.94939 2.20754,1.08676 2.27567,1.09817 6.55745,1.09817 4.19383,0 4.39238,-0.0311 6.4642,-1.01264 3.6572,-1.73263 6.2639,-4.82465 7.2755,-8.63008 0.58751,-2.21011 0.53595,-2.19728 8.82752,-2.19728 7.96474,0 8.4795,0.0985 8.4795,1.62267 0,0.40936 -0.37335,1.93973 -0.82967,3.40081 -4.69741,15.04045 -16.96759,23.14716 -33.25033,21.96795 z m 60.24516,-0.93417 c -0.69204,-0.40323 0.39041,3.47389 -12.21863,-43.76445 -5.88806,-22.05895 -10.62315,-40.32198 -10.52241,-40.58451 0.34436,-0.89738 1.74244,-1.06829 8.73887,-1.06829 6.81214,0 7.02277,0.0195 7.79498,0.72 0.69914,0.63425 1.52973,3.70663 6.97458,25.79948 3.80847,15.45308 6.34101,25.14092 6.59799,25.23954 0.22939,0.088 0.49633,0.0808 0.59321,-0.0161 0.0969,-0.0969 3.4618,-11.52211 7.47758,-25.38941 5.86227,-20.24354 7.44021,-25.32563 8.0055,-25.78338 0.61087,-0.49465 1.39368,-0.57012 5.91318,-0.57012 4.48897,0 5.30299,0.0774 5.88827,0.56 0.52994,0.43694 2.28746,6.10093 7.99825,25.77612 4.02549,13.86888 7.4016,25.29867 7.50247,25.39954 0.10087,0.10087 0.37216,0.11097 0.60285,0.0224 0.25961,-0.0996 2.78794,-9.716 6.63479,-25.23506 5.10989,-20.61444 6.3442,-25.20297 6.93981,-25.79858 0.70867,-0.70867 0.87778,-0.72446 7.75818,-0.72446 7.20353,0 8.48958,0.17275 8.79661,1.18166 0.0968,0.31809 -4.84353,19.28904 -10.9785,42.15768 -8.22305,30.65216 -11.30567,41.68989 -11.72977,41.99999 -0.42827,0.31316 -2.1543,0.42066 -6.75413,0.42066 -5.47473,0 -6.24311,-0.0643 -6.74286,-0.56402 -0.33759,-0.3376 -3.50296,-10.21874 -7.88482,-24.61365 -4.02645,-13.22729 -7.4301,-24.22646 -7.56368,-24.4426 -0.13359,-0.21614 -0.43792,-0.31814 -0.67631,-0.22666 -0.25734,0.0987 -3.42304,10.02894 -7.79229,24.44294 -4.36787,14.40943 -7.58649,24.50574 -7.91887,24.84031 -0.4968,0.50006 -1.2553,0.56258 -6.72,0.55395 -3.54986,-0.006 -6.39511,-0.14671 -6.71485,-0.33301 z m 74.82167,-0.26761 c -0.52755,-0.58294 -0.0546,-2.46858 10.52909,-41.97594 6.09479,-22.75107 11.22034,-41.62511 11.3901,-41.94231 0.16976,-0.3172 0.58389,-0.72403 0.92028,-0.90406 0.78817,-0.42181 15.52622,-0.43949 16.31086,-0.0196 0.31629,0.16927 0.7373,0.70927 0.93558,1.2 0.58918,1.45819 22.12727,82.05228 22.12727,82.79879 0,1.37578 -0.41107,1.45343 -7.69441,1.45343 -6.44824,0 -6.96518,-0.0428 -7.48813,-0.62071 -0.32465,-0.35873 -1.23318,-3.29627 -2.15261,-6.96 -0.87498,-3.48661 -1.81884,-6.59129 -2.09746,-6.89929 -0.46416,-0.5131 -1.44858,-0.56 -11.75583,-0.56 -8.80041,0 -11.37473,0.0918 -11.82568,0.42151 -0.40501,0.29615 -1.03237,2.29699 -2.10947,6.7278 -0.84316,3.46846 -1.76661,6.66278 -2.0521,7.09849 l -0.51907,0.7922 h -6.98302 c -6.46358,0 -7.02412,-0.0454 -7.5354,-0.61035 z m 38.66701,-29.02388 c 0.28468,-0.10925 0.50638,-0.56433 0.50666,-1.04 3.9e-4,-0.65821 -7.16053,-31.6009 -7.87904,-34.04577 -0.19402,-0.66018 -0.94218,-0.7445 -1.17697,-0.13265 -0.0902,0.23505 -1.84927,8.0854 -3.90907,17.44525 -3.03038,13.77029 -3.66988,17.10849 -3.35106,17.49265 0.32766,0.39481 1.64928,0.47475 7.84866,0.47475 4.10005,0 7.68242,-0.0874 7.96082,-0.19423 z m 489.47108,14.05398 c -0.003,-0.38513 0.30848,-3.04913 0.6915,-5.92 0.93107,-6.97869 1.02343,-17.11537 0.18076,-19.83875 -1.30008,-4.20168 -4.02213,-4.13441 -8.87759,0.21939 -2.82212,2.53053 -5.03357,3.67961 -7.08157,3.67961 -2.85893,0 -4.01801,-0.98291 -4.46649,-3.78766 -0.48606,-3.03984 1.02291,-9.27973 4.92247,-20.35531 1.4854,-4.21888 4.6392,-10.80054 5.26602,-10.98967 0.72967,-0.22016 0.4179,1.10018 -0.86288,3.65426 -2.31209,4.61067 -3.5379,9.34598 -3.53593,13.6593 0.003,6.25815 3.16516,6.66349 12.15881,1.55852 3.68722,-2.09294 5.08311,-2.61944 6.94484,-2.61944 1.13839,0 1.60699,0.18261 2.33382,0.90944 1.33987,1.33986 1.71043,3.13968 1.49283,7.25056 -0.27761,5.24445 -2.23549,13.17432 -6.32063,25.6 -2.26324,6.88406 -2.83679,8.2907 -2.84596,6.97975 z"
     id="path2" />
  <path
     d="m 189.99786,348.44211 c -0.90108,-2.37 -2.57549,-8.85898 -2.33865,-9.06316 0.14963,-0.12899 1.13207,-0.55397 2.1832,-0.94439 4.95821,-1.8416 8.54538,-5.01953 9.85448,-8.73022 0.27348,-0.77519 0.42262,-9.29261 0.54539,-31.14696 l 0.16898,-30.08 h 6.72 6.72 v 30.88 30.88 l -0.7461,2.4 c -1.37078,4.40943 -3.90426,8.18515 -7.12922,10.62489 -3.48889,2.6394 -9.49534,5.0839 -14.29079,5.81605 -1.26691,0.19343 -1.38943,0.14723 -1.68729,-0.63621 z m 264.97134,-0.42372 c -2.40673,-0.7321 -4.42937,-2.57465 -5.11852,-4.66279 -0.21455,-0.6501 -0.33346,-2.1477 -0.26572,-3.34656 0.15244,-2.69777 1.23493,-4.43625 3.61091,-5.79908 2.7738,-1.59102 6.70322,-1.18403 8.92471,0.92439 3.06847,2.9123 3.15019,7.92823 0.1776,10.90082 -1.87764,1.87764 -4.94626,2.70801 -7.32898,1.98322 z m -207.20028,-0.81431 c -1.58529,-0.41958 -3.56529,-1.05562 -4.4,-1.41342 l -1.51766,-0.65054 v -5.16869 -5.1687 l 0.72,0.20978 c 4.23329,1.23339 10.63685,1.78121 13.81909,1.18222 3.86352,-0.72724 6.60719,-2.77945 8.11287,-6.06829 0.67995,-1.48521 0.85197,-2.42032 0.96936,-5.26934 0.0801,-1.94502 0.0109,-3.59551 -0.15791,-3.76432 -0.1875,-0.18749 -1.25698,-0.0502 -2.84201,0.36476 -3.69055,0.96626 -9.48098,1.18025 -12.94481,0.47839 -4.60612,-0.93332 -8.70364,-3.13952 -12.05459,-6.49047 -5.86681,-5.86681 -8.43992,-14.50994 -7.02827,-23.60808 0.61561,-3.96758 1.46026,-6.57027 3.27726,-10.09851 3.38683,-6.57655 9.25769,-11.38502 16.00845,-13.11158 3.35505,-0.85807 8.40708,-0.85457 11.82938,0.008 8.71431,2.19694 15.22578,8.88433 17.2946,17.76187 0.54897,2.35569 0.59659,4.1817 0.59659,22.88 v 20.32 l -0.90355,2.56 c -1.33772,3.79018 -2.5992,5.78789 -5.47358,8.66813 -4.94864,4.95873 -10.82809,7.19082 -18.85102,7.15666 -2.70695,-0.0115 -4.2698,-0.19994 -6.4542,-0.77809 z m 14.21835,-38.92388 c 1.48281,-0.33958 2.88681,-0.77577 3.12,-0.96931 0.62105,-0.51542 0.59014,-16.23723 -0.0377,-19.19959 -0.8093,-3.81827 -2.47302,-6.39138 -5.05687,-7.82098 -1.46198,-0.80888 -2.01545,-0.93045 -4.24139,-0.93161 -2.84979,-10e-4 -4.05135,0.43451 -6.12633,2.22295 -3.492,3.0098 -6.01054,11.00122 -5.22635,16.58342 0.54892,3.90743 3.45052,8.24873 6.54674,9.79505 2.73679,1.36682 6.03333,1.46255 11.02195,0.32007 z m 54.264,12.80769 c -8.48352,-1.22242 -14.03676,-5.7288 -16.72304,-13.57051 l -0.87696,-2.56 -0.0876,-44.08626 -0.0876,-44.08626 6.96764,0.0863 6.96764,0.0863 0.16,42.72 c 0.15286,40.81461 0.18665,42.78098 0.75767,44.08731 0.72136,1.65028 2.62735,3.35507 4.31703,3.86131 0.92253,0.2764 17.39783,0.37138 64.41959,0.37138 h 63.18005 l 1.58283,-0.79454 c 2.03164,-1.01983 2.98462,-2.44358 3.3563,-5.01431 0.16151,-1.11713 0.29656,-9.26996 0.30009,-18.11739 l 0.006,-16.08624 6.96,0.0862 6.96,0.0862 -0.005,18.24 c -0.004,17.7524 -0.0234,18.31456 -0.71142,21.02913 -1.77138,6.98925 -5.31087,11.15806 -11.12405,13.10186 l -2.24,0.74901 -66.08,0.0436 c -36.344,0.024 -66.944,-0.0809 -68,-0.23307 z"
     style="fill:#0066a4;fill-opacity:1"
     id="path1-1" />
</svg>
