<?xml version="1.0" encoding="UTF-8" standalone="no"?>
<!-- Created with Inkscape (http://www.inkscape.org/) -->

<svg
   version="1.1"
   id="svg1"
   width="500"
   height="123.77221"
   viewBox="0 0 500 123.77221"
   xmlns="http://www.w3.org/2000/svg"
   xmlns:svg="http://www.w3.org/2000/svg">
  <defs
     id="defs1" />
  <path
     style="fill:#edd230;fill-opacity:1;stroke-width:0.197174"
     d="m 2.5821527,81.418148 c -1.89255899,-0.4587 -3.03704199,-2.4829 -2.40913399,-4.26095 0.346141,-0.98016 18.76585529,-33.147876 19.34211529,-33.778581 0.80581,-0.881926 1.3343,-1.016247 4.01111,-1.01945 17.95423,-0.198657 18.21559,-0.209746 51.4147,-0.286028 0.47283,-0.0012 -0.51206,3.806919 -0.69561,5.456504 -0.11195,1.006134 0.69741,1.752456 1.61022,2.308943 0.65315,0.398183 0.91032,0.409093 9.64247,0.409093 8.73215,0 8.98932,-0.0109 9.64247,-0.409093 1.30691,-0.79675 1.87748,-2.063994 1.65798,-3.682398 -0.1571,-1.158321 0.37121,-2.469766 1.27163,-3.156577 l 0.70642,-0.538838 25.549436,-0.0521 c 18.05551,-0.03681 25.70168,0.01077 26.0685,0.162207 0.28548,0.117867 0.74185,0.451858 1.01414,0.742205 0.61203,0.652623 19.03024,32.761323 19.41367,33.844103 0.49982,1.41148 -0.12341,3.04331 -1.48587,3.89048 l -0.72946,0.45358 -32.22522,0.0522 c -17.72387,0.0287 -32.29673,-0.0193 -32.38412,-0.10671 -0.0874,-0.0874 -0.41168,-1.40931 -0.72063,-2.93759 -0.6326,-3.12929 -0.99742,-3.91367 -2.11459,-4.54645 l -0.77771,-0.44051 H 85.498024 70.611374 l -0.77771,0.44051 c -1.03108,0.58402 -1.47527,1.40229 -1.90893,3.5166 -0.45034,2.19558 -0.7609,2.79942 -1.79013,3.48057 l -0.81805,0.54138 -31.06938,0.0306 c -17.08815,0.0168 -31.3374143,-0.0343 -31.6650213,-0.11374 z"
     id="path2" />
  <path
     style="fill:#4262a5;fill-opacity:1;stroke:none;stroke-width:0.197174"
     d="m 200.2534,12.680479 c -7.55761,1.359772 -5.86668,12.773877 1.57739,11.614563 7.892,-1.229065 6.09341,-12.994698 -1.57739,-11.614563 m 34.89983,63.004149 h 9.07001 v -13.0135 c 1.19348,0 3.13535,-0.373233 4.09563,0.479853 0.91946,0.816827 0.63655,2.362937 0.63655,3.46363 v 9.070017 c 2.54146,0 6.96563,0.92916 8.39132,-1.77472 0.68566,-1.300391 0.48152,-2.920946 0.48152,-4.337684 V 60.89656 29.34869 c 0,-3.922375 1.22603,-10.377098 -0.97978,-13.802194 -0.91161,-1.415516 -2.33377,-2.265325 -3.94957,-2.629286 -1.7616,-0.396803 -3.5307,-0.328326 -5.32371,-0.328326 -3.83845,0 -8.97209,-0.75837 -11.4148,2.957612 -1.12973,1.718608 -1.00717,3.753458 -1.00717,5.718052 v 9.267187 18.337199 26.815694 m 55.0116,-63.095744 V 27.96847 h -14.98524 v 7.689794 c 0,0.73569 -0.28068,2.228421 0.20264,2.83864 0.58625,0.740184 3.07426,0.316147 3.93802,0.316147 3.0643,0 6.90401,-0.652779 9.24863,1.78248 1.72833,1.795135 1.59595,4.188321 1.59595,6.498836 v 12.619148 c 0,1.572783 0.62062,4.849282 -0.64646,6.01412 -1.1095,1.019988 -2.7016,0.886976 -4.08572,0.886976 h -8.87284 v 9.464357 h 14.78806 c 2.79585,0 5.82402,0.13097 8.07622,-1.83877 3.93033,-3.437368 2.37402,-11.848837 2.37402,-16.498425 V 12.588884 h -11.63328 m 22.08351,0 v 40.815057 11.041754 c 0,2.430632 -0.17687,5.022678 0.85049,7.295445 2.78282,6.156308 12.21632,4.337828 17.68388,4.337828 2.10464,0 5.17957,0.51567 6.86399,-1.05296 1.9708,-1.83534 1.22015,-5.985495 1.22015,-8.411397 h -10.05588 c -1.10646,0 -2.97737,0.355249 -3.92201,-0.316147 -1.59416,-1.133012 -0.81017,-5.432322 -0.81017,-7.176472 V 38.221528 h 14.39372 V 27.574122 h -10.45024 l -3.62733,-0.316147 -0.31615,-3.824511 v -10.84458 h -11.83045 m 72.75727,0 v 11.830451 c -1.40173,0.188751 -5.64312,0.718692 -6.50128,1.885634 -0.47503,0.645968 -0.20264,2.084242 -0.20264,2.846546 v 7.689794 l 6.70392,-1.774568 c 0,3.344711 -1.00689,9.698734 2.95762,11.238929 v 0.197174 c -1.30845,0 -4.759,-0.618865 -5.79625,0.20265 -0.46396,0.367458 -0.31592,1.253117 -0.31615,1.769092 v 4.929355 h -26.027 v 8.872838 h 17.54851 c 2.80088,0 5.74473,-0.222741 7.56184,2.36624 1.92596,2.74408 0.91665,8.042215 0.91665,11.238779 H 393.4841 V 62.276779 h 17.35133 c 2.37698,0 5.422,0.472597 7.25347,-1.416732 1.78531,-1.841695 1.4222,-5.107929 1.4222,-7.456106 h -26.027 v -5.520878 h 25.43547 v -8.872838 h -16.56263 c -1.47269,0 -4.91606,0.630924 -6.0269,-0.479853 -0.829,-0.828966 -0.98299,-5.866161 -0.0228,-6.600919 1.40828,-1.077683 4.16271,-1.277349 5.85255,-1.796941 4.78037,-1.469876 9.6935,-3.122233 14.59089,-4.135784 V 15.743671 l -20.90047,5.915225 v -9.070012 h -10.8446 m 84.78491,0 0.59152,3.154787 h -21.29481 c -3.15465,0 -7.0224,-0.236191 -9.44597,2.187328 -2.45275,2.452667 -1.99014,6.282305 -1.99014,9.445949 v 21.491986 c 2.00197,0 4.36662,0.342721 6.30958,-0.182871 5.48063,-1.482578 4.14065,-8.719163 4.14065,-13.027799 h 9.46437 c 0,1.45269 0.62561,4.807613 -0.62075,5.804013 -0.87871,0.702477 -2.27468,0.505561 -3.32274,0.505561 v 6.901096 c 3.55409,0 9.79051,1.195375 12.81555,-0.946469 3.20842,-2.271685 2.16969,-7.690738 2.16969,-11.081156 0,-1.299528 0.1047,-2.650502 -0.0342,-3.943484 -0.15533,-1.445722 -0.73844,-2.937852 -1.94039,-3.817663 -1.79277,-1.312259 -4.20965,-1.111692 -6.3067,-1.111692 h -12.2248 v -3.746309 h 17.15416 c 1.67164,0 5.19787,-0.671229 6.63913,0.202649 0.87679,0.531627 1.41001,2.078934 1.88485,2.952138 1.31229,2.413181 2.50295,5.058906 4.09517,7.295445 -1.31239,0.176733 -5.303,0.600626 -6.10692,1.688605 -0.45139,0.61088 -0.20266,1.929758 -0.20266,2.649227 v 7.098271 l 7.6898,-2.366091 3.53074,-0.962596 1.46648,1.554119 3.32043,4.529531 3.5128,0.20265 h 8.47849 l -6.9011,-10.647407 c 1.50616,-0.348606 5.44029,-1.301188 6.30409,-2.640856 0.43392,-0.672961 0.20266,-1.916703 0.20266,-2.682847 v -6.309574 l -12.42197,4.140658 -3.54914,-6.703922 h 8.08414 c 1.61013,0 3.49584,0.08192 4.92936,-0.789756 3.04805,-1.853429 2.57355,-5.399376 1.2317,-8.083083 -0.33373,-0.667472 -0.65193,-1.744505 -1.30868,-2.16344 -0.71529,-0.456266 -2.06623,-0.20265 -2.88064,-0.20265 h -6.70392 l 0.7887,2.760439 h -5.91523 l -0.39435,-3.154787 h -11.23895 m -252.58014,0.197174 v 6.1124 h -6.50675 v 8.872838 c 1.43358,0 2.8623,-0.08448 4.13989,0.686608 2.90211,1.751546 2.82062,6.986164 2.33764,9.956995 -0.21001,1.291735 -1.97472,1.004236 -2.92839,1.463439 -1.41875,0.683141 -2.11316,1.978193 -2.43138,3.469719 -0.70462,3.302735 -0.13189,7.272224 -0.13189,10.647406 v 21.689165 h 21.29481 v -28.98461 c -0.002,-3.595378 -1.33778,-7.784259 -5.71805,-7.295445 -0.85057,-3.572477 -0.19717,-7.962726 -0.19717,-11.633277 h 6.1124 v -8.872838 h -6.1124 v -6.1124 h -9.85871 m 139.7965,18.928722 5.52088,-2.36609 v 19.32307 c 2.71822,0 6.79142,0.754393 9.06697,-1.063463 1.89019,-1.510019 1.58043,-3.875218 1.58043,-6.034808 V 26.785425 h -6.70392 v -0.197174 c 3.78113,-1.93015 6.85352,-6.079342 9.26719,-9.464361 0.93415,-1.310094 2.19007,-2.748861 2.56326,-4.337832 h -8.08414 l -3.29567,0.20265 -5.18282,4.989757 -4.61321,3.362912 -0.11897,3.077958 v 7.295445 m -108.24863,2.36609 h -4.53501 V 21.264548 c 1.12908,0 2.77401,-0.293283 3.70142,0.495666 0.95722,0.814296 0.83351,2.319457 0.83359,3.447818 v 8.872838 m -54.2229,-7.492619 v 7.886968 c 0,1.122006 -0.27719,2.68385 0.11897,3.74555 0.41827,1.120947 1.81014,1.951784 2.49433,2.958372 1.45649,2.142812 2.24978,4.905479 2.31317,7.492619 0.16949,6.919485 -1.74911,13.418784 -3.23559,20.111768 -0.49946,2.248807 -1.39317,4.59538 -1.49371,6.9011 h 9.66154 c 0.60646,-4.503624 2.09091,-8.970142 3.0711,-13.407849 2.32017,-10.504352 2.46393,-23.947012 -6.4232,-31.601267 -1.88601,-1.624376 -4.07565,-3.386983 -6.50661,-4.087261 m 54.2229,27.407212 h -4.53501 V 42.756535 c 1.13448,0 2.7886,-0.308458 3.71786,0.479853 0.94123,0.798456 0.81707,2.155673 0.81715,3.266456 v 7.492619 M 224.90017,67.00896 h -5.71805 V 52.812418 c 0,-0.977187 -0.5036,-4.077463 0.31615,-4.726705 1.74961,-1.385706 4.91127,0.258172 5.25235,2.163441 0.94716,5.291076 0.14955,11.383524 0.14955,16.759806 m 215.11704,0.591522 c -0.81512,0 -2.98876,-0.384468 -3.54365,0.316148 -0.88247,1.114201 -0.20554,4.978388 -0.20266,6.387778 0.002,0.61736 -0.1213,1.49158 0.62075,1.71188 1.2515,0.37156 3.00617,0.0627 4.30861,0.0627 h 9.07001 29.57613 10.84458 c 2.06094,0 4.33249,0.20444 6.30957,-0.50252 2.5454,-0.91018 2.95671,-3.207103 2.95762,-5.609875 0,-0.587558 0.21137,-1.745607 -0.31617,-2.163441 -0.58108,-0.460212 -1.93862,-0.20265 -2.64145,-0.20265 0,-4.465482 1.32081,-11.366122 -2.38448,-14.72386 -3.23031,-2.927309 -8.20478,-2.23312 -12.20641,-2.23312 h -27.99873 c -3.86132,0 -9.11493,-0.87794 -12.18846,2.035946 -3.54596,3.361824 -2.20526,10.532128 -2.20526,14.921034 m 16.75981,0 h -6.50675 v -8.872838 c 1.5421,0 3.74357,-0.397821 5.12349,0.411997 2.31493,1.358515 1.38326,6.186989 1.38326,8.460841 m 14.98524,0 h -6.1124 v -6.112399 c 0,-0.656214 -0.23168,-1.895895 0.20265,-2.444292 0.95748,-1.208907 4.65734,-0.172604 5.37195,0.875418 1.24751,1.829597 0.5378,5.556307 0.5378,7.681273 m 15.57676,0 h -6.9011 v -8.872838 c 1.55285,0 3.69394,-0.377922 5.12639,0.310064 2.70811,1.300683 1.77471,6.119632 1.77471,8.562774 m -97.0097,44.758548 -2.56327,3.15478 v 0.19718 c 2.62271,2.2678 6.15322,3.658 9.66154,3.31849 4.42983,-0.42868 8.44022,-3.61003 7.56839,-8.44502 -1.06285,-5.8944 -7.72956,-4.45831 -10.84261,-8.10483 -1.30373,-1.52717 -0.011,-3.276542 1.69682,-3.648642 2.48118,-0.54055 4.15679,0.8828 6.30958,1.697582 0.53188,-0.705802 1.90304,-1.831082 1.90435,-2.759682 0.002,-1.17654 -2.20118,-2.01837 -3.0874,-2.39134 -3.42489,-1.44135 -8.27914,-0.95523 -10.77979,1.99913 -0.62926,0.74344 -1.03867,1.61785 -1.26761,2.56037 -0.20234,0.832912 -0.23815,1.718222 -0.0858,2.563272 0.68352,3.79157 4.06989,4.99434 7.20384,6.33923 1.38446,0.59414 3.17466,1.12047 3.95277,2.53436 0.92569,1.68208 -0.84257,3.21421 -2.37538,3.48356 -2.90836,0.51111 -4.94312,-1.15846 -7.29544,-2.49844 m 109.2345,-6.9011 h -8.28132 v 3.94348 h 4.14066 c 0,1.21254 0.42765,3.42906 -0.20266,4.49286 -1.62668,2.74547 -6.64885,0.29148 -8.03668,-1.33823 -3.71791,-4.36588 -1.57469,-13.801312 4.88738,-13.801732 2.03994,-1.4e-4 3.14122,1.08664 4.92935,1.774262 0.56668,-0.746522 1.8953,-1.784322 1.99014,-2.752672 0.0646,-0.6597 -0.73782,-1.12342 -1.20158,-1.43743 -1.49474,-1.01211 -3.31745,-1.63745 -5.12639,-1.71736 -3.92765,-0.17351 -7.71748,1.40738 -9.95335,4.72442 -3.26306,4.840972 -2.89267,13.155052 1.6728,17.094822 3.01273,2.59983 7.48752,3.21105 11.23816,2.086 1.20967,-0.36287 2.8806,-0.95925 3.62732,-2.04508 0.59012,-0.85809 0.31617,-2.34186 0.31617,-3.33355 v -7.68979 M 194.53535,95.007698 V 118.6686 h 4.73218 v -10.25306 h 8.87284 v 10.25306 h 4.73218 V 95.007698 h -4.73218 v 9.267182 h -8.87284 v -9.267182 h -4.73218 m 26.81569,0 V 106.4438 c 0,2.90058 -0.0317,6.07934 1.4718,8.67566 2.98581,5.15604 12.44603,5.52069 15.50892,0.19718 1.57755,-2.74194 1.55365,-6.01059 1.55365,-9.07001 V 95.007698 h -4.53501 c 0,5.148252 0.94185,11.365182 -0.32847,16.365452 -0.66426,2.61468 -3.54184,4.49761 -6.17827,3.23908 -1.925,-0.91892 -2.66505,-3.22693 -2.75269,-5.21082 -0.21104,-4.77791 -0.008,-9.610712 -0.008,-14.393712 h -4.73218 m 26.61851,0 V 118.6686 c 4.41858,0 10.13888,0.93037 14.19654,-1.18 3.18896,-1.65857 4.59383,-6.21746 2.40549,-9.26734 -0.85294,-1.18875 -2.11759,-1.60438 -3.39136,-2.17181 3.63913,-1.94088 4.63437,-7.692312 0.59153,-9.898112 -3.85726,-2.10455 -9.56502,-1.14364 -13.8022,-1.14364 m 24.4496,0 V 118.6686 h 14.98524 v -3.94348 h -10.25306 v -6.30958 h 8.28132 v -3.94348 h -8.28132 v -5.520882 h 9.85871 v -3.94348 H 272.4189 m 22.28069,0 V 118.6686 h 4.73218 V 95.007698 h -4.73218 m 23.06938,0 V 118.6686 h 4.73218 v -10.25306 h 8.87283 v 10.25306 h 4.73218 V 95.007698 h -4.73218 v 9.267182 h -8.87283 v -9.267182 h -4.73218 m 25.43547,0 V 106.4438 c 0,2.90058 -0.0317,6.07934 1.4718,8.67566 2.98581,5.15604 12.44603,5.52069 15.50892,0.19718 1.57755,-2.74194 1.55365,-6.01059 1.55365,-9.07001 V 95.007698 h -4.53501 c 0,5.148252 0.94184,11.365182 -0.32847,16.365452 -0.66426,2.61468 -3.54184,4.49761 -6.17828,3.23908 -1.92499,-0.91892 -2.66504,-3.22693 -2.75268,-5.21082 -0.21104,-4.77791 -0.008,-9.610712 -0.008,-14.393712 h -4.73218 M 364.499,118.6686 c 1.20465,0 3.36535,0.42273 4.45026,-0.11897 1.11029,-0.55438 1.69978,-4.80989 1.85931,-5.99343 h 7.88697 c 0.10363,1.26902 0.6323,5.12926 1.6886,5.90975 0.95584,0.70627 3.65301,0.20265 4.81815,0.20265 -1.85048,-5.78711 -3.66681,-11.58627 -5.58662,-17.35133 -0.48593,-1.459232 -0.91455,-5.201672 -2.20373,-6.106922 -0.77504,-0.54421 -4.96538,-0.55274 -5.50749,0.25438 -1.55762,2.319 -2.16886,6.325682 -2.95413,9.007332 -1.36107,4.64785 -3.74362,9.40479 -4.45132,14.19654 M 410.63776,95.007698 V 118.6686 h 4.73218 v -10.25306 h 8.87284 v 10.25306 h 4.73218 V 95.007698 h -4.73218 v 9.267182 h -8.87284 v -9.267182 h -4.73218 m 25.04112,0 V 118.6686 h 14.98524 v -3.94348 h -10.25306 v -6.30958 h 8.28132 v -3.94348 h -8.28132 v -5.520882 h 9.85871 v -3.94348 h -14.59089 m 20.90046,0 V 118.6686 h 4.53501 l -0.59152,-17.74568 H 460.72 c 1.26016,4.3743 4.20025,8.39544 6.26135,12.42198 0.69723,1.36213 1.67574,4.24243 2.9343,5.12105 0.9992,0.69756 3.60796,0.20265 4.80372,0.20265 V 95.007698 h -4.53501 l 0.59153,17.745672 -6.62027,-12.816322 -2.77199,-4.7267 -4.80429,-0.20265 m -203.87811,9.661532 v -6.112402 c 1.85614,0 4.46967,-0.36075 6.07529,0.78764 1.59295,1.139312 1.22988,3.776132 -0.36027,4.715742 -1.62476,0.96007 -3.91227,0.60902 -5.71502,0.60902 m 122.05083,-6.112402 2.76043,10.253062 h -5.52087 c 0.40805,-3.03015 1.32053,-7.56461 2.76044,-10.253062 M 252.70123,115.11946 v -6.90109 c 2.20074,0 5.15,-0.49311 7.08962,0.78764 1.89482,1.25116 1.3811,4.23556 -0.38646,5.3237 -1.82846,1.1256 -4.64852,0.78975 -6.70316,0.78975 z"
     id="path1" />
  <path
     d="m 104.07206,81.450018 c 0.0643,1.49481 0.84647,3.08738 0.20295,4.535 -0.79415,1.78646 -2.57898,2.16608 -4.343606,2.16892 h -9.66153 -41.40658 c -4.79898,0 -10.03447,-0.59804 -14.78807,0.0371 -1.54453,0.20637 -2.69198,1.5582 -2.69198,3.11766 0,3.02608 3.86568,7.02543 5.65035,9.267192 6.78142,8.51828 15.74701,14.93583 25.82906,18.96813 32.30013,12.91839 70.808146,-4.8918 81.630116,-38.094022 h -40.42071"
     style="fill:#4262a5;fill-opacity:1;stroke:none;stroke-width:0.197174"
     id="path1-0" />
  <path
     d="m 26.302504,42.311035 h 48.50485 c 0.28674,-2.220333 0.54609,-5.532995 2.95761,-6.477535 1.32895,-0.520518 3.13061,-0.226387 4.53501,-0.226387 h 9.26719 31.942216 c 4.1569,0 8.709,0.731684 12.81632,0.137994 1.77626,-0.25675 3.26854,-1.582664 3.1312,-3.489955 -0.21227,-2.9479 -3.69021,-6.654184 -5.45803,-8.872839 C 127.65611,15.422068 119.45999,9.0250738 110.10153,4.9897308 77.250194,-9.1757022 37.491514,7.9242368 26.302504,42.311035"
     style="fill:#a21d2a;fill-opacity:1;stroke:none;stroke-width:0.197174"
     id="path1-3" />
</svg>
