<?xml version="1.0" encoding="UTF-8" standalone="no"?>
<!-- Created with Inkscape (http://www.inkscape.org/) -->

<svg
   version="1.1"
   id="svg1"
   width="230.23003"
   height="233.67686"
   viewBox="0 0 230.23003 233.67686"
   xmlns="http://www.w3.org/2000/svg"
   xmlns:svg="http://www.w3.org/2000/svg">
  <defs
     id="defs1" />
  <path
     d="m 43.5,233.23592 c -4.792139,-1.19986 -8.583436,-5.76884 -6.5,-7.39224 0.437227,-0.34068 1.536287,-1.43009 2.223787,-1.51938 0.6875,-0.0893 2.503343,1.95095 4.003163,3.02805 l 2.87821,0.84283 2.74125,-0.30508 c 2.3782,-0.26468 3.87581,-4.94382 2.61972,-6.97623 -0.39719,-0.64266 -3.09683,-2.21867 -5.9992,-3.50223 -8.434173,-3.73 -10.849644,-9.56136 -6.199725,-14.96722 l 2.500495,-2.80242 2.73674,-1.08296 c 8.41034,-3.32806 13.25677,4.00832 12.25296,4.97834 l -2.84216,2.74649 -1.15762,-1.15762 c -1.62125,-1.62125 -6.27526,-1.44376 -7.71775,0.29434 -2.73941,3.30079 -1.13753,4.9046 9.96013,9.97208 1.6038,0.73233 2.81053,2.38588 3.36625,4.61266 2.13226,8.54413 -5.70962,15.52318 -14.86625,13.23054 z M 0,232.61528 c 0,-0.19436 3.111901,-7.73186 6.915336,-16.75 l 7.320553,-17.4649 2.556181,-0.0435 2.777208,-0.007 6.770618,16.83635 C 29.957132,224.18137 33,231.83595 33,232.23788 c 0,0.40194 -1.540102,0.7308 -3.422448,0.7308 h -3.422448 l -1.155104,-3.5 -1.155104,-3.5 H 16.871421 9.897947 l -1.462394,3.5 -1.462393,3.5 H 3.48658 C 1.568961,232.96868 0,232.80965 0,232.61528 Z m 20.335967,-13.00282 c 1.27023,-0.0509 0.410495,-1.16154 -0.314472,-3.02214 -0.561822,-1.4419 -1.509927,-3.85914 -2.1069,-5.37164 l -1.085405,-2.75 -2.285788,5.5 -2.285787,5.5 2.332126,0.37617 c 2.200507,0.35494 3.427588,-0.13941 5.746226,-0.23239 z m 44.330703,12.68955 c -0.91106,-0.91105 -0.8191,-30.58416 0.0986,-31.83333 0.40408,-0.55 1.97219,-1.08472 3.48469,-1.18826 L 71,199.09215 v 16.93827 16.93826 h -2.83333 c -1.55834,0 -3.13334,-0.3 -3.5,-0.66667 z m 14.94611,-10.08333 c 2.49412,-5.9125 5.68412,-13.58672 7.08888,-17.05382 l 2.55411,-6.30382 2.64369,-0.14389 2.70475,-0.0625 6.57706,15.31403 c 3.40483,7.92781 6.38791,15.5125 6.87806,16.75 l 0.89117,2.25 h -3.52628 -3.52627 l -1.4624,-3.5 -1.46239,-3.5 h -6.80137 -6.80137 l -1.66903,3.5 -1.66903,3.5 H 78.55518 75.078 Z m 12.38873,-2.61249 4.74088,-0.13751 -2.28488,-5.5 -2.28487,-5.5 -2.08632,4.83291 c -1.14748,2.65809 -2.4008,5.99684 -2.08632,6.16666 0.31521,0.17021 0.78153,0.23133 4.00151,0.13794 z M 123,232.56031 c 0,-0.2246 1.34972,-7.7621 2.99937,-16.75 1.64965,-8.9879 2.99965,-16.42717 3,-16.53172 3.5e-4,-0.10455 1.18877,-0.0988 2.64095,0.0129 l 2.64032,0.20294 4.10968,10.22288 c 2.26032,5.62259 4.33468,10.21907 4.60968,10.2144 0.275,-0.005 2.42784,-4.66699 4.7841,-10.36073 l 4.2841,-10.3523 h 2.47822 c 2.85488,0 2.63332,-0.6805 5.45358,16.75 1.11238,6.875 2.25102,13.5125 2.53031,14.75 l 0.50779,2.25 h -3.4287 -3.4287 l -1.12275,-7.25 c -0.61751,-3.9875 -1.44567,-8.53877 -1.84035,-10.11393 l -0.7176,-2.86392 -4.14917,9.86392 c -2.28204,5.42516 -4.75704,9.98223 -5.5,10.12682 -0.86914,0.16914 -2.76953,-3.30706 -5.32933,-9.74845 -4.46537,-11.23647 -4.65653,-11.18159 -6.56713,1.88503 l -1.18445,8.10053 h -3.38496 c -1.86173,0 -3.38496,-0.18377 -3.38496,-0.40837 z m 42.30396,-0.84163 c 0.28486,-0.6875 3.53604,-8.3375 7.22484,-17 l 6.70691,-15.75 h 2.78883 2.78882 l 3.1944,7.75 c 1.75691,4.2625 4.91924,11.9125 7.0274,17 l 3.83301,9.25 h -3.45026 -3.45027 l -1.66903,-3.5 -1.66903,-3.5 h -6.80137 -6.80137 l -1.46239,3.5 -1.4624,3.5 h -3.65801 c -2.53598,0 -3.49915,-0.38342 -3.14008,-1.25 z m 20.98421,-12.20415 c 0.42354,-0.73292 0.1266,-0.41924 -2.37449,-6.21294 l -2.08632,-4.83291 -2.28487,5.5 -2.28488,5.5 3.04462,0.31502 c 2.0224,0.20925 0.64905,0.10494 2.84143,0.0473 0.1932,-0.005 3.04003,-0.13572 3.14451,-0.31652 z M 200,232.45887 c 0,-0.2804 2.52418,-4.30279 5.60928,-8.93865 l 5.60928,-8.42884 -4.60928,-7.39528 C 204.07418,203.62869 202,200.07041 202,199.78881 c 0,-0.2816 1.6705,-0.41059 3.71222,-0.28663 l 3.71222,0.22538 2.53778,4.60617 c 1.39578,2.53339 2.76278,4.60617 3.03778,4.60617 0.275,0 1.63757,-2.06484 3.02793,-4.58853 l 2.52794,-4.58853 4.14523,-0.30916 4.14523,-0.30916 -5.02909,7.92128 -5.0291,7.92128 3.91598,6.2408 c 2.15379,3.43244 4.72821,7.4783 5.72094,8.9908 l 1.80496,2.75 h -4.07581 -4.07581 l -3.2892,-5.98813 c -1.80906,-3.29348 -3.5142,-5.98852 -3.7892,-5.98899 -0.275,-4.7e-4 -2.16805,2.69419 -4.20679,5.98813 l -3.70679,5.98899 h -3.54321 c -1.94876,0 -3.54321,-0.22942 -3.54321,-0.50981 z"
     style="fill:#2d2d2c;fill-opacity:1"
     id="path1-2" />
  <path
     style="fill:#276937;fill-opacity:1;stroke:#000000;stroke-opacity:0.603922"
     d="m 4,191.39315 c 0,-1.04997 8.07671,-14.42447 8.710777,-14.42447 0.342406,0 0.335378,0.28718 -0.01562,0.63817 -0.844789,0.84479 30.598923,11.22383 36.074003,11.90743 12.5996,1.57312 6.88048,2.33201 -18.01916,2.39101 C 16.0375,191.94016 4,191.70969 4,191.39315 Z m 32.75952,-15.79558 -22.740489,-2.12889 5.506697,-9.5 c 3.121652,-5.38539 6.041072,-9.33663 6.740482,-9.12281 0.67859,0.20746 1.81151,0.39496 2.5176,0.41667 0.7061,0.0217 2.5061,1.17225 4,2.55675 1.49391,1.3845 2.76495,2.322 2.82454,2.08333 0.0596,-0.23867 6.31369,3.72856 13.89799,8.81606 7.5843,5.0875 12.93554,9.1955 11.89165,9.12889 -1.0439,-0.0666 -12.13121,-1.07911 -24.63847,-2.25 z m 12.0023,-19.05415 c -10.30599,-3.96977 -19.01548,-7.49507 -19.35441,-7.83399 -0.33893,-0.33893 1.20532,-3.90675 3.43167,-7.92849 4.75893,-8.59668 7.08403,-11.85915 7.12912,-10.00324 0.0175,0.71996 0.45472,1.04763 0.97163,0.72817 0.51691,-0.31947 6.58475,6.14799 13.4841,14.37214 6.89935,8.22414 13.00143,15.23552 13.56017,15.58084 1.1751,0.72625 1.37773,2.55988 0.2659,2.40608 -0.4125,-0.0571 -9.18218,-3.35174 -19.48818,-7.32151 z M 62.46917,140.31991 C 53.13613,133.42084 44.66584,127.18192 43.64632,126.45564 l -1.85368,-1.3205 5.59162,-9.8756 c 3.07539,-5.43159 6.27315,-10.75654 7.10613,-11.83323 l 1.51452,-1.95763 -0.6724,1.91404 c -0.4103,1.16798 -0.28315,1.67349 0.3262,1.29689 0.87157,-0.53866 24.82526,47.13843 24.06502,47.89867 -0.15696,0.15697 -7.92152,-5.3593 -17.25456,-12.25837 z M 75.86332,122.19004 C 66.7733,109.69329 59.00742,98.903854 58.60579,98.213494 c -0.90301,-1.55217 16.32886,-31.72052 17.45525,-30.55942 0.84233,0.86829 17.1859,76.401006 16.64786,76.939036 -0.17506,0.17506 -7.75557,-9.90632 -16.84558,-22.40307 z m 31.01873,17.77864 C 105.93979,137.68142 79.15221,63.628384 78.80439,62.349254 78.63698,61.733564 86.15,47.792794 95.5,31.369754 l 17,-29.8600769 0.3633,2.479503 c 0.35115,2.396567 -0.24519,19.0466909 -3.41968,95.4795039 -1.76992,42.614566 -1.75934,42.447316 -2.56157,40.499996 z"
     id="path1" />
  <path
     d="m 175.76844,189.9307 c 1.24764,-0.50117 4.39764,-1.13065 7,-1.39884 2.60236,-0.26819 11.97937,-2.92545 20.83781,-5.90501 l 16.10624,-5.41739 3.64376,6.33531 c 2.00406,3.48443 3.64375,6.58025 3.64375,6.87961 0,0.29937 -12.0375,0.51578 -26.75,0.48091 -17.15146,-0.0406 -25.93603,-0.39035 -24.48156,-0.97459 z m -7.66077,-13.3518 c 20.99187,-12.36701 27.97409,-17.76826 36.84279,-22.53005 0.78822,-0.42321 2.84144,2.43717 6.37903,8.60428 l 5.63044,9.81555 -18.22997,1.64402 c -10.02648,0.90421 -21.10651,1.90576 -24.62229,2.22567 -3.51579,0.3199 -6.21579,0.42814 -6,0.24053 z M 162,162.11103 c 0,-0.56337 0.44428,-1.29889 0.98728,-1.63449 0.543,-0.33559 6.65898,-7.33838 13.59106,-15.56175 6.93208,-8.22337 12.97437,-14.72255 13.42731,-14.44262 0.45294,0.27994 1.00813,-0.0448 1.23375,-0.7217 0.22562,-0.67686 2.36386,2.13283 4.75163,6.24377 2.38778,4.11094 4.94126,8.40742 5.67442,9.54773 l 1.333,2.07329 -19.64415,7.42671 c -10.80428,4.08469 -20.02893,7.57671 -20.49922,7.76004 C 162.38478,162.98535 162,162.6744 162,162.11103 Z m -11,-10.37779 c 0,-1.31524 23.80813,-50.26456 24.44784,-50.26456 0.875,0 14.00387,22.4179 13.4167,22.90938 C 184.81446,127.76809 151,152.1973 151,151.73324 Z m -13,-7.97827 c 0,-0.33754 3.6,-17.62237 8,-38.41074 4.4,-20.788366 8,-38.152196 8,-38.586286 0,-0.43409 0.40586,-0.78926 0.90192,-0.78926 0.86665,0 18.09808,29.02675 18.09808,30.48666 0,0.61229 -31.78652,44.326896 -34.14879,46.963336 -0.46817,0.5225 -0.85121,0.67383 -0.85121,0.33629 z m -14.97092,-8.78629 c -0.0175,-3.025 -0.67922,-20.125 -1.47058,-37.999996 -2.56288,-57.88908 -3.81761,-92.4563339 -3.42859,-94.4559869 0.24993,-1.284673 6.21331,8.2842179 17.37531,27.8805669 9.34713,16.41011 16.84548,30.3403 16.66301,30.95599 -1.13414,3.82669 -27.54169,76.398876 -28.24414,77.619426 -0.56359,0.97928 -0.87429,-0.40932 -0.89501,-4 z"
     style="fill:#9d2b27;fill-opacity:1;stroke:#000000;stroke-opacity:0.60423"
     id="path1-6" />
</svg>
