<svg width="45" height="46" viewBox="0 0 45 46" fill="none" xmlns="http://www.w3.org/2000/svg">
<path d="M4.10063 13.8364L16.3138 19.9412C16.6453 20.1079 17.0023 20.1884 17.3574 20.1884C17.7823 20.1884 18.2051 20.0712 18.5814 19.8387C19.2735 19.4102 19.6873 18.6705 19.6873 17.8557V12.6884H23.1041C25.302 12.6884 27.0877 10.9395 27.1717 8.7608C27.4708 8.86936 27.7888 8.93836 28.125 8.93836H39.375C40.9258 8.93836 42.1875 7.67667 42.1875 6.12586C42.1875 4.57505 40.9258 3.31336 39.375 3.31336H28.125C26.5742 3.31336 25.3125 4.57505 25.3125 6.12586V8.60517C25.3125 9.8228 24.3219 10.8134 23.1043 10.8134H19.6875V5.64605C19.6875 4.83117 19.2737 4.09149 18.5816 3.66305C17.8913 3.23649 17.0436 3.1943 16.3138 3.56049L4.09969 9.66511C3.306 10.0643 2.8125 10.8627 2.8125 11.7507C2.8125 12.6387 3.306 13.4372 4.10063 13.8364ZM28.125 5.18836H39.375C39.8923 5.18836 40.3125 5.60949 40.3125 6.12586C40.3125 6.64224 39.8923 7.06336 39.375 7.06336H28.125C27.6077 7.06336 27.1875 6.64224 27.1875 6.12586C27.1875 5.60949 27.6077 5.18836 28.125 5.18836ZM4.93931 11.3425L17.1525 5.23767C17.2258 5.20111 17.2944 5.18649 17.3567 5.18649C17.4611 5.18649 17.5453 5.2268 17.5965 5.25792C17.6771 5.30742 17.8125 5.42461 17.8125 5.64605V10.8134H15C14.4817 10.8134 14.0625 11.2326 14.0625 11.7509C14.0625 12.2691 14.4817 12.6884 15 12.6884H17.8125V17.8557C17.8125 18.0773 17.6769 18.1945 17.5965 18.2438C17.5142 18.2933 17.3484 18.361 17.1525 18.2639L4.94025 12.159C4.71225 12.0456 4.6875 11.8349 4.6875 11.7507C4.6875 11.6665 4.71225 11.4561 4.93931 11.3425ZM39.375 33.3134H32.8125V28.6259C32.8125 27.075 31.5508 25.8134 30 25.8134H15C13.4492 25.8134 12.1875 27.075 12.1875 28.6259V33.3134H5.625C4.07419 33.3134 2.8125 34.575 2.8125 36.1259V39.8759C2.8125 41.4267 4.07419 42.6884 5.625 42.6884H39.375C40.9258 42.6884 42.1875 41.4267 42.1875 39.8759V36.1259C42.1875 34.575 40.9258 33.3134 39.375 33.3134ZM21.5625 40.8134H5.625C5.10769 40.8134 4.6875 40.3922 4.6875 39.8759V36.1259C4.6875 35.6095 5.10769 35.1884 5.625 35.1884H21.5625V40.8134ZM14.0625 33.3134V28.6259C14.0625 28.1095 14.4827 27.6884 15 27.6884H30C30.5173 27.6884 30.9375 28.1095 30.9375 28.6259V33.3134H14.0625ZM40.3125 39.8759C40.3125 40.3922 39.8923 40.8134 39.375 40.8134H23.4375V35.1884H39.375C39.8923 35.1884 40.3125 35.6095 40.3125 36.1259V39.8759Z" fill="#FF060F"/>
</svg>
