<?xml version="1.0" encoding="UTF-8" standalone="no"?>
<svg
   id="Contents"
   width="1361"
   height="234"
   viewBox="0 0 1361 234"
   version="1.1"
   sodipodi:docname="verstack-logo-wide-outlined.svg"
   xmlns:inkscape="http://www.inkscape.org/namespaces/inkscape"
   xmlns:sodipodi="http://sodipodi.sourceforge.net/DTD/sodipodi-0.dtd"
   xmlns="http://www.w3.org/2000/svg"
   xmlns:svg="http://www.w3.org/2000/svg">
  <sodipodi:namedview
     id="namedview1"
     pagecolor="#ffffff"
     bordercolor="#000000"
     borderopacity="0.25"
     inkscape:showpageshadow="2"
     inkscape:pageopacity="0.0"
     inkscape:pagecheckerboard="0"
     inkscape:deskcolor="#d1d1d1"
     showguides="false">
    <inkscape:page
       x="0"
       y="0"
       width="1361"
       height="234"
       id="page2"
       margin="0"
       bleed="0" />
  </sodipodi:namedview>
  <defs
     id="defs1">
    <style
       id="style1">
      .cls-1 {
        fill: #fff;
      }

      .cls-1, .cls-2 {
        stroke: #000;
        stroke-linejoin: round;
        stroke-width: 2px;
        fill-rule: evenodd;
      }

      .cls-2 {
        fill: #12cdd4;
      }
    </style>
  </defs>
  <path
     id="VERSTACK"
     class="cls-1"
     d="m 296.88,197 h 22 a 2.762,2.762 0 0 0 2.86,-2.2 L 368.6,46.08 A 2.283,2.283 0 0 0 368.38,43.88 2.323,2.323 0 0 0 366.4,43 h -21.34 a 2.9,2.9 0 0 0 -3.08,2.2 L 309.2,160.04 a 0.66,0.66 0 0 1 -1.32,0 L 274.88,45.2 A 2.9,2.9 0 0 0 271.8,43 h -21.78 c -1.616,0 -2.42,0.736 -2.42,2.2 l 0.22,0.88 46.2,148.72 a 2.759,2.759 0 0 0 2.86,2.2 z M 504.56,62.36 V 45.64 A 2.629,2.629 0 0 0 501.92,43 h -99 a 2.629,2.629 0 0 0 -2.64,2.64 v 148.72 a 2.629,2.629 0 0 0 2.64,2.64 h 99 a 2.629,2.629 0 0 0 2.64,-2.64 V 177.64 A 2.629,2.629 0 0 0 501.92,175 H 426.9 a 0.97,0.97 0 0 1 -1.1,-1.1 v -42.46 a 0.972,0.972 0 0 1 1.1,-1.1 h 50.38 a 2.629,2.629 0 0 0 2.64,-2.64 v -16.72 a 2.629,2.629 0 0 0 -2.64,-2.64 H 426.9 a 0.97,0.97 0 0 1 -1.1,-1.1 V 66.1 a 0.972,0.972 0 0 1 1.1,-1.1 h 75.02 a 2.629,2.629 0 0 0 2.64,-2.64 z M 627.978,197 H 649.1 c 1.612,0 2.419,-0.584 2.419,-1.76 a 3.4,3.4 0 0 0 -0.44,-1.32 l -31.02,-64.02 a 0.928,0.928 0 0 1 0,-0.88 0.7,0.7 0 0 1 0.66,-0.44 q 13.858,-4.176 21.669,-14.85 7.811,-10.674 7.81,-25.85 A 47.193,47.193 0 0 0 644.478,64.45 39.769,39.769 0 0 0 628.418,48.61 49.039,49.039 0 0 0 604.659,43 h -60.5 a 2.629,2.629 0 0 0 -2.641,2.64 v 148.72 a 2.629,2.629 0 0 0 2.641,2.64 H 564.4 a 2.629,2.629 0 0 0 2.64,-2.64 v -62.48 a 0.972,0.972 0 0 1 1.1,-1.1 h 26.4 a 1.416,1.416 0 0 1 1.319,0.88 l 29.04,63.36 a 3.113,3.113 0 0 0 3.08,1.98 v 0 z M 568.138,65 h 33 q 10.56,0 17.05,6.38 6.49,6.38 6.49,16.72 0,10.343 -6.49,16.61 -6.49,6.267 -17.05,6.27 h -33 a 0.971,0.971 0 0 1 -1.1,-1.1 V 66.1 a 0.972,0.972 0 0 1 1.1,-1.1 z M 737.1,198.76 q 25.3,0 39.93,-11.66 14.63,-11.66 14.63,-31.46 0,-12.978 -6.71,-21.67 a 48.11,48.11 0 0 0 -16.06,-13.53 248.667,248.667 0 0 0 -24.97,-10.78 q -14.742,-5.28 -21.78,-8.69 -7.038,-3.41 -10.56,-7.59 A 16.152,16.152 0 0 1 708.06,82.6 q 0,-9.24 6.71,-14.3 6.71,-5.06 18.81,-5.06 14.958,0 23.43,7.15 8.472,7.15 8.47,17.49 v 2.42 a 2.629,2.629 0 0 0 2.64,2.64 h 19.8 a 2.629,2.629 0 0 0 2.64,-2.64 V 86.56 A 40.712,40.712 0 0 0 783.52,62.91 46.513,46.513 0 0 0 763.83,46.96 q -12.654,-5.718 -29.15,-5.72 -23.544,0 -37.62,11.22 -14.076,11.22 -14.08,30.58 0,12.983 6.49,21.67 a 47.132,47.132 0 0 0 16.17,13.75 216.548,216.548 0 0 0 25.3,10.78 q 13.86,5.28 20.79,8.8 a 35.041,35.041 0 0 1 10.67,7.81 15.36,15.36 0 0 1 3.74,10.45 18.36,18.36 0 0 1 -6.82,14.74 q -6.822,5.724 -20.24,5.72 -15.624,0 -24.64,-6.71 -9.016,-6.71 -9.02,-16.83 v -4.18 a 2.629,2.629 0 0 0 -2.64,-2.64 H 683.2 a 2.629,2.629 0 0 0 -2.64,2.64 v 5.5 q 0,13.422 6.93,23.32 6.93,9.898 19.69,15.4 12.756,5.5 29.92,5.5 z M 926.737,43 H 819.6 a 2.629,2.629 0 0 0 -2.64,2.64 v 16.94 a 2.629,2.629 0 0 0 2.64,2.64 h 38.94 a 0.973,0.973 0 0 1 1.1,1.1 v 128.04 a 2.629,2.629 0 0 0 2.64,2.64 h 20.24 a 2.629,2.629 0 0 0 2.64,-2.64 V 66.32 a 0.972,0.972 0 0 1 1.1,-1.1 h 40.48 a 2.629,2.629 0 0 0 2.64,-2.64 V 45.64 A 2.629,2.629 0 0 0 926.74,43 v 0 z m 119.243,154 h 22 c 1.61,0 2.42,-0.66 2.42,-1.98 a 2.551,2.551 0 0 0 -0.22,-1.1 L 1022.22,45.2 a 2.768,2.768 0 0 0 -2.86,-2.2 h -27.5 A 2.763,2.763 0 0 0 989,45.2 l -47.74,148.72 a 2.4,2.4 0 0 0 0.22,2.31 2.456,2.456 0 0 0 1.98,0.77 h 22 a 2.761,2.761 0 0 0 2.86,-2.2 l 7.26,-23.54 a 1.292,1.292 0 0 1 1.1,-0.88 h 58.082 a 1.3,1.3 0 0 1 1.1,0.88 l 7.26,23.54 a 2.758,2.758 0 0 0 2.86,2.2 v 0 z m -63.58,-47.96 22.442,-73.7 a 0.889,0.889 0 0 1 0.66,-0.88 0.91,0.91 0 0 1 0.66,0.88 l 22.66,73.7 c 0.29,0.88 0,1.32 -0.88,1.32 h -44.664 q -1.1,0 -0.88,-1.32 v 0 z m 169.182,49.72 q 16.275,0 28.82,-6.16 a 45.305,45.305 0 0 0 19.36,-17.49 q 6.81,-11.328 6.82,-26.29 a 1.993,1.993 0 0 0 -0.77,-1.54 2.794,2.794 0 0 0 -1.87,-0.66 l -20.24,-0.88 q -2.64,0 -2.64,2.42 0,12.984 -8.03,20.79 -8.03,7.806 -21.45,7.81 -13.425,0 -21.56,-7.92 -8.135,-7.92 -8.14,-20.68 v -56.1 q 0,-12.978 8.14,-20.9 8.14,-7.922 21.56,-7.92 13.41,0 21.45,7.92 8.04,7.92 8.03,20.9 0,2.423 2.64,2.42 l 20.24,-1.1 a 2.629,2.629 0 0 0 2.64,-2.64 q 0,-14.737 -6.82,-25.96 A 45.573,45.573 0 0 0 1180.4,47.4 q -12.54,-6.157 -28.82,-6.16 -16.5,0 -29.04,6.38 a 46.053,46.053 0 0 0 -19.36,18.04 q -6.825,11.663 -6.82,27.06 v 54.34 q 0,15.4 6.82,27.06 a 46.706,46.706 0 0 0 19.36,18.15 q 12.54,6.492 29.04,6.49 v 0 z M 1247.5,197 h 20.24 a 2.629,2.629 0 0 0 2.64,-2.64 v -46.64 a 3.46,3.46 0 0 1 0.44,-1.54 l 16.28,-18.92 c 0.44,-0.732 0.95,-0.66 1.54,0.22 l 43.56,67.76 a 3.439,3.439 0 0 0 3.08,1.76 h 23.1 c 1.46,0 2.2,-0.512 2.2,-1.54 a 9.658,9.658 0 0 0 -0.44,-1.54 l -54.12,-84.26 a 1.254,1.254 0 0 1 0.22,-1.54 l 50.38,-61.82 a 3.757,3.757 0 0 0 0.66,-1.76 c 0,-1.024 -0.74,-1.54 -2.2,-1.54 h -22.88 a 4.176,4.176 0 0 0 -3.3,1.54 l -57.2,67.54 a 0.716,0.716 0 0 1 -0.88,0.22 0.874,0.874 0 0 1 -0.44,-0.88 V 45.64 A 2.629,2.629 0 0 0 1267.74,43 h -20.24 a 2.629,2.629 0 0 0 -2.64,2.64 v 148.72 a 2.629,2.629 0 0 0 2.64,2.64 z" />
  <g
     id="Bottom"
     transform="matrix(0.99195477,0,0,1.0001212,1.8494955,-0.02013211)">
    <path
       id="Bottom-top"
       class="cls-2"
       d="M 215.24367,166.06515 107.722,198.915 0.52916792,166.29974 107.722,133.387 Z"
       sodipodi:nodetypes="ccccc" />
  </g>
  <g
     id="Middle"
     transform="matrix(0.99276949,0,0,1.0001089,1.9214343,1.0316696)">
    <path
       id="Middle-top"
       class="cls-2"
       d="M 214.984,101.02293 107.722,134.023 0.461,101.259 107.722,68.5 Z"
       sodipodi:nodetypes="ccccc" />
  </g>
  <g
     id="Top">
    <path
       id="Top-top"
       class="cls-2"
       d="M 215.35138,36.065741 107.879,69.138 2.3763745,36.301736 107.879,3.61 Z"
       sodipodi:nodetypes="ccccc" />
    <path
       id="path3"
       class="cls-2"
       d="m 215.34993,102.06815 -0.16348,30.85747 -106.71261,31.86681 -106.0937715,-31.3828 -0.00542,-31.10247 105.7957715,32.2821 z"
       sodipodi:nodetypes="ccccccc"
       style="fill:#ffffff;fill-opacity:1" />
    <path
       id="path4"
       class="cls-2"
       d="M 215.34993,36.06815 215.18645,66.92562 108.47384,98.79243 2.3800685,67.40963 2.3746485,36.30716 108.17042,68.58926 Z"
       sodipodi:nodetypes="ccccccc"
       style="fill:#ffffff;fill-opacity:1" />
  </g>
  <g
     id="g10">
    <path
       id="path8"
       class="cls-2"
       d="M 215.35138,36.065741 107.879,69.138 2.3763745,36.301736 107.879,3.61 Z"
       sodipodi:nodetypes="ccccc" />
    <path
       id="path9"
       class="cls-2"
       d="m 215.34993,102.06815 -0.16348,30.85747 -106.71261,31.86681 -106.0937715,-31.3828 -0.00542,-31.10247 105.7957715,32.2821 z"
       sodipodi:nodetypes="ccccccc"
       style="fill:#ffffff;fill-opacity:1" />
    <path
       id="path10"
       class="cls-2"
       d="M 215.34993,36.06815 215.18645,66.92562 108.47384,98.79243 2.3800685,67.40963 2.3746485,36.30716 108.17042,68.58926 Z"
       sodipodi:nodetypes="ccccccc"
       style="fill:#ffffff;fill-opacity:1" />
    <path
       id="path11"
       class="cls-2"
       d="m 215.34993,102.06815 -0.16348,30.85747 -106.71261,31.86681 -106.0937715,-31.3828 -0.00542,-31.10247 105.7957715,32.2821 z"
       sodipodi:nodetypes="ccccccc"
       style="fill:#ffffff;fill-opacity:1" />
    <path
       id="path12"
       class="cls-2"
       d="m 215.34993,166.06815 -0.16348,30.85747 -106.71261,31.86681 -106.0937715,-31.3828 -0.00542,-31.10247 105.7957715,32.2821 z"
       sodipodi:nodetypes="ccccccc"
       style="fill:#ffffff;fill-opacity:1" />
  </g>
</svg>
