<svg width="45" height="46" viewBox="0 0 45 46" fill="none" xmlns="http://www.w3.org/2000/svg">
<path d="M40.3509 26.7592L35.4757 22.6979C34.4595 21.8484 33.0396 21.8484 32.0252 22.6979L27.1491 26.7592C25.9991 27.7186 25.3125 29.2329 25.3125 30.8131V39.6663C25.3125 41.3326 26.5742 42.6875 28.125 42.6875H39.375C40.9258 42.6875 42.1875 41.3324 42.1875 39.6663V30.8131C42.1875 29.2329 41.5009 27.7186 40.3509 26.7592ZM40.3125 39.6663C40.3125 40.298 39.8923 40.8125 39.375 40.8125H28.125C27.6077 40.8125 27.1875 40.298 27.1875 39.6663V30.8131C27.1875 29.7841 27.6223 28.8063 28.3493 28.1984L33.2254 24.1372C33.3847 24.0035 33.5668 23.9377 33.75 23.9377C33.9322 23.9377 34.1152 24.0054 34.2756 24.1372L39.1507 28.1984C39.8777 28.8063 40.3125 29.7841 40.3125 30.8131V39.6663ZM4.6875 32.375V20.1875H30.726C32.5611 18.9746 34.9335 18.9738 36.7723 20.1873C36.9446 20.2979 37.1186 20.405 37.2793 20.5391L38.4375 21.5037V13.625C38.4375 10.0068 35.4932 7.0625 31.875 7.0625H29.0625V4.25C29.0625 3.73175 28.6432 3.3125 28.125 3.3125C27.6068 3.3125 27.1875 3.73175 27.1875 4.25V7.0625H14.0625V4.25C14.0625 3.73175 13.6433 3.3125 13.125 3.3125C12.6067 3.3125 12.1875 3.73175 12.1875 4.25V7.0625H9.375C5.75681 7.0625 2.8125 10.0068 2.8125 13.625V32.375C2.8125 35.9932 5.75681 38.9375 9.375 38.9375H22.5V37.0625H9.375C6.7905 37.0625 4.6875 34.9604 4.6875 32.375ZM4.6875 13.625C4.6875 11.0396 6.7905 8.9375 9.375 8.9375H12.1875V11.75C12.1875 12.2683 12.6067 12.6875 13.125 12.6875C13.6433 12.6875 14.0625 12.2683 14.0625 11.75V8.9375H27.1875V11.75C27.1875 12.2683 27.6068 12.6875 28.125 12.6875C28.6432 12.6875 29.0625 12.2683 29.0625 11.75V8.9375H31.875C34.4595 8.9375 36.5625 11.0396 36.5625 13.625V18.3125H4.6875V13.625Z" fill="#FF060F"/>
</svg>
