<svg width="45" height="46" viewBox="0 0 45 46" fill="none" xmlns="http://www.w3.org/2000/svg">
<path d="M37.6669 25.2368C37.6668 25.2366 37.6671 25.237 37.6669 25.2368L17.1141 4.68473C15.2858 2.85642 12.3104 2.85736 10.4821 4.68567L4.18694 10.9808C2.35769 12.8091 2.35769 15.7855 4.18694 17.6138L27.8854 41.3123C28.801 42.2269 30.0021 42.6837 31.2033 42.6837C32.4025 42.6837 33.6038 42.2267 34.5175 41.313L40.8145 35.017C42.6419 33.1877 42.6419 30.2132 40.8145 28.384L37.6669 25.2368ZM39.4887 33.6914L33.1917 39.9874C32.0948 41.085 30.3078 41.0805 29.2111 39.9865L5.51257 16.288C4.41494 15.1904 4.41494 13.404 5.51257 12.3064L11.8077 6.01129C12.3571 5.46192 13.0774 5.18817 13.7989 5.18817C14.5195 5.18817 15.2401 5.46192 15.7883 6.01036L18.274 8.49585L13.1352 13.6339C12.769 14.0001 12.769 14.5934 13.1352 14.9595C13.3184 15.1427 13.5582 15.2342 13.798 15.2342C14.0378 15.2342 14.2778 15.1427 14.4608 14.9595L19.5996 9.82148L22.6246 12.8464L20.3869 15.084C20.0208 15.4502 20.0208 16.0435 20.3869 16.4097C20.5701 16.5929 20.8099 16.6844 21.0498 16.6844C21.2896 16.6844 21.5296 16.5929 21.7126 16.4097L23.9502 14.172L26.9757 17.1974L21.8371 22.336C21.4709 22.7022 21.4709 23.2954 21.8371 23.6616C22.0203 23.8448 22.2601 23.9363 22.4999 23.9363C22.7397 23.9363 22.9797 23.8448 23.1627 23.6616L28.3013 18.523L31.3263 21.5477L29.0879 23.7861C28.7217 24.1523 28.7217 24.7455 29.0879 25.1117C29.2711 25.2949 29.5109 25.3864 29.7507 25.3864C29.9905 25.3864 30.2305 25.2949 30.4135 25.1117L32.6519 22.8734L35.6778 25.899L30.5382 31.0379C30.172 31.404 30.172 31.9973 30.5382 32.3635C30.7214 32.5467 30.9612 32.6382 31.201 32.6382C31.4408 32.6382 31.6808 32.5467 31.8638 32.3635L37.0034 27.2247L39.4883 29.7094C40.5852 30.807 40.5856 32.5937 39.4887 33.6914ZM18.6738 36.0784L19.9994 37.404L18.61 38.7972C17.2816 40.1292 15.5256 41.0091 13.6653 41.2765L3.88282 42.6773C3.83894 42.6837 3.79394 42.6865 3.75007 42.6865C3.50294 42.6865 3.26482 42.5894 3.08726 42.4118C2.87857 42.2031 2.78051 41.9091 2.82176 41.6172L4.21976 31.8083C4.48432 29.946 5.36238 28.1865 6.69082 26.8553L8.06894 25.4734L9.39457 26.7992L8.01813 28.1792C6.97357 29.2257 6.28413 30.609 6.07638 32.073L4.85407 40.6442L13.3996 39.4202C14.8598 39.2106 16.2387 38.5193 17.2823 37.4738L18.6738 36.0784ZM26.2784 9.87154L26.6995 9.44967L35.968 18.7414L35.5587 19.1517L36.8834 20.4764L37.9476 19.4095C37.9495 19.4076 37.9521 19.4072 37.954 19.4054C37.9559 19.4035 37.9564 19.4009 37.9583 19.399L39.7191 17.6339C41.3708 15.9795 42.2461 13.7794 42.1855 11.4394C42.1233 9.10204 41.1308 6.94879 39.3914 5.37867C36.1212 2.42517 30.7855 2.70079 27.5024 5.99123L26.0423 7.45448C26.0404 7.45636 26.0376 7.45692 26.0358 7.45879C26.0339 7.46067 26.0333 7.46367 26.0313 7.46554L24.9528 8.54629L26.2784 9.87154ZM38.1355 6.77011C39.4906 7.99317 40.2633 9.66867 40.3109 11.4887C40.3585 13.3097 39.6773 15.0227 38.3937 16.3099L37.2912 17.415L28.0229 8.12367L28.8299 7.31498C31.4172 4.71942 35.5977 4.47848 38.1355 6.77011Z" fill="#FF060F"/>
</svg>
