<?xml version="1.0" encoding="UTF-8" standalone="no"?>
<!-- Created with Inkscape (http://www.inkscape.org/) -->

<svg
   version="1.1"
   id="svg1"
   width="500"
   height="500"
   viewBox="0 0 500 500"
   xmlns="http://www.w3.org/2000/svg"
   xmlns:svg="http://www.w3.org/2000/svg">
  <defs
     id="defs1" />
  <path
     style="fill:#f6664e;stroke:none"
     d="m 98,344 c 7.87431,5.6637 22.72676,21.60773 25.61111,31 1.3214,4.30286 -3.15017,9.51654 -3.51774,14 -1.17732,14.3605 9.24965,27.32864 23.90663,28 0.0492,17.83081 13.79768,31.36722 32,28 4.948,17.13635 21.50601,21.35403 37,17 9.39641,24.23767 37.31364,14.22119 48,-2 h 1 c 11.86981,11.9982 35.66669,22.70267 49.82639,8.81482 5.14642,-5.04761 5.02423,-13.73248 9.73764,-18.0733 2.58453,-2.38022 7.31012,-2.42752 10.43597,-4.06946 8.67654,-4.55762 13.55804,-13.00073 14,-22.67206 21.4267,-0.0142 34.24622,-19.18677 25,-39 13.76584,-7.146 15.0267,-22.94705 10,-36 l 18,-9 c 12.37842,25.99722 40.65674,6.06577 57,-3.60339 8.97794,-5.31162 18.69269,-10.10871 20.6713,-21.39661 2.53317,-14.45175 -9.41092,-28.19415 -16.09568,-40 C 447.49069,251.89095 433.48193,229.26782 420.69443,206 416.74918,198.82132 409.3215,191.4733 406.6026,184 403.0322,174.18625 406,158.42905 406,148 V 66 C 406,55.892029 409.82132,35.991821 404.82098,27.108795 402.36359,22.743256 397.35147,23.007263 393,23 H 363 233 129 C 121.19814,23 99.467377,19.221893 95.027779,27.108795 89.901321,36.215881 94,57.584564 94,68 v 78 c 0,11.39645 2.43573,25.94565 -0.317902,37 -2.111198,8.47531 -12.093849,19.16943 -16.692901,27 -12.672585,21.57697 -25.122101,43.29105 -37.567902,65 -6.18214,10.78339 -16.583044,23.02063 -16.402777,36 0.245566,17.68079 19.067122,23.95044 31.981482,31.60339 5.842026,3.46195 12.327278,8.2771 19,9.8642 8.427055,2.00433 19.820816,-0.29321 24,-8.46759 M 391,38 v 145 c -7.7157,0.79028 -14.39325,5.96078 -21,9.71915 -16.91653,9.62323 -33.98553,16.33007 -34,38.28085 -17.13071,2.21231 -32.65469,4.49429 -50,2.83023 -14.10361,-1.35306 -27.7179,-6.43924 -42,-5.79086 -8.86934,0.40265 -17.73451,4.42514 -25,9.32019 -3.69292,2.48807 -7.4731,7.13382 -12,7.94214 -9.75107,1.74115 -29.92001,-8.7778 -38.97685,-12.68982 -6.50221,-2.8086 -4.82517,-15.66675 -9.55556,-21.57175 C 154.66904,206.29837 149.11366,203.97565 144,200.9884 133.66292,194.94983 121.11469,184.24088 109,183 V 38 H 391 M 183,71.746918 c -8.37233,3.042267 -11.88937,14.244415 -20,17.331817 -6.43161,2.448273 -11.27733,-11.291717 -18.56636,-3.760833 C 136.83366,93.170044 154.81541,111.21912 163,109.38348 171.47713,107.48224 188.08249,89.683685 191.81712,82 194.662,76.146881 189.36095,69.435516 183,71.746918 m 42.1088,13.111114 c -6.4347,2.932739 -4.19045,11.986511 1.90663,13.708313 C 236.12201,101.138 248.55208,99 258,99 h 66 c 7.80206,0 25.56351,3.272 31.56635,-2.513885 C 368.58377,83.939117 339.23608,84 334,84 h -77 c -8.88626,0 -23.74768,-2.853546 -31.8912,0.858032 M 183,155.75772 c -8.40877,2.94952 -11.88997,14.23123 -20,17.32102 -6.43857,2.453 -12.41205,-11.98166 -19.25694,-2.85035 C 137.72083,178.26224 155.86407,196.095 164,193.24228 172.27802,190.33975 188.00522,173.84219 191.81712,166 194.63446,160.20392 189.30338,153.54669 183,155.75772 m 43.01929,11.98456 c -6.2282,2.48685 -6.36588,11.20105 0,13.65433 C 234.09859,184.51019 247.37245,182 256,182 h 67 c 7.97089,0 25.20236,3.22446 31.77161,-1.74228 6.14837,-4.64853 1.71429,-12.42017 -4.77237,-13.14892 C 322.09198,163.97348 292.10004,167 264,167 c -10.7963,0 -27.92676,-3.27216 -37.98071,0.74228 M 106.00077,197.5571 c 6.51057,-0.34384 14.5842,6.50247 19.99923,9.59335 6.52408,3.72391 19.50162,8.28845 22.24228,15.8642 2.48773,6.87659 -5.88091,16.39081 -9.09259,21.98535 -10.91716,19.017 -22.02322,37.93463 -32.86883,57 -5.14307,9.04095 -10.365546,18.05695 -15.677466,27 -2.385964,4.01697 -4.326424,8.55676 -9.607254,8.84799 C 74.168785,338.22449 67.655876,332.41898 62,329.30554 55.666798,325.81927 40.766277,320.3598 38.517746,312.95679 36.36557,305.871 44.054611,296.8363 47.308643,291 c 10.693318,-19.17914 22.189328,-37.94669 33.112652,-57 5.167565,-9.01367 10.293297,-18.04874 15.567902,-27 2.334999,-3.96262 4.725113,-9.16373 10.011573,-9.4429 M 393,197.57947 c 5.81915,-0.45349 8.5202,5.19385 11.0108,9.42053 6.0531,10.27246 11.90381,20.65927 17.83951,31 10.35657,18.04245 21.39383,35.75763 31.37961,54 3.07822,5.62341 10.67883,14.10809 8.16284,20.98456 -2.73761,7.48218 -16.82028,12.703 -23.39276,16.32098 -5.27545,2.90399 -10.86124,7.71918 -17,8.46607 -6.41132,0.78003 -8.76328,-3.99002 -11.60339,-8.77161 -5.70502,-9.60489 -11.26169,-19.30838 -16.81791,-29 -10.71749,-18.69434 -21.64263,-37.26935 -32.29785,-56 -3.09887,-5.44745 -10.94873,-14.28049 -8.52313,-20.98535 2.82443,-7.80731 16.51694,-12.58029 23.24228,-16.43595 5.18137,-2.97048 11.88995,-8.52307 18,-8.99923 M 344,244 l 47,83 c -5.89551,3.44104 -15.14548,10.50677 -22,10.97223 -8.46201,0.57458 -21.89807,-10.92014 -29,-15.17206 -16.16403,-9.67743 -32.65616,-18.85767 -49,-28.22763 -9.39682,-5.38721 -18.86087,-12.90219 -30,-13.89276 -11.83765,-1.0527 -33.14568,5.92746 -39.52084,16.32407 -5.76418,9.40026 -12.8712,36.00665 -29.25077,30.96453 C 186.55571,326.22214 189.99831,313.38806 190,309 c 0.003,-7.60641 -0.99132,-18.87787 1.74228,-25.99924 3.62619,-9.44662 19.5339,-21.05368 27.25772,-27.56172 24.86496,-20.95103 53.85925,-7.14525 83,-5.64815 14.31241,0.73531 28.03012,-3.90969 42,-5.79089 m -150,13 c -3.85701,8.27087 -14.01125,12.50159 -17.25772,21 -1.85207,4.84824 -0.42653,10.90442 -1.02777,16 -2.03031,17.20721 -6.94548,50.19281 19.28549,48.95987 3.49217,-0.16415 6.76961,-1.10812 10,-2.41281 23.7305,-9.58405 21.92004,-42.38944 50,-44.45679 10.90964,-0.80322 17.95221,4.8443 27,10.03781 14.33878,8.23059 28.58344,16.6395 43,24.73303 10.40268,5.84012 20.5224,12.20585 31,17.90818 4.72638,2.57226 11.26883,5.50641 12.68134,11.23147 2.11367,8.56705 -5.59406,15.10208 -13.68134,12.43598 -11.36557,-3.74686 -21.39774,-12.51102 -32,-17.97916 -4.43835,-2.28912 -10.43915,-1.47095 -11.77701,4.26154 -1.36789,5.8612 6.87381,9.43829 10.77701,11.70526 10.03812,5.83014 20.08066,11.68542 29.99615,17.71838 5.09366,3.09915 9.29493,7.47965 6.85184,13.85339 -2.20511,5.75287 -8.07925,8.17539 -13.84799,6.30478 -12.36041,-4.00808 -24.84344,-13.85794 -36,-20.50155 -4.87723,-2.9043 -11.49365,-8.11255 -16.41281,-2.45447 -5.32938,6.12994 2.73581,11.25375 7.41281,14.05093 8.92715,5.33905 34.57556,14.07206 30.34644,27.60031 -2.34003,7.48536 -10.12256,8.10883 -16.34644,5.17978 -9.26144,-4.35858 -18.18173,-10.36163 -27,-15.57254 -3.72595,-2.20175 -8.64621,-5.82013 -12.94138,-2.98455 -5.49462,3.62741 -3.48806,9.16183 0.98536,12.47683 7.7659,5.75492 25.47909,10.51905 29.21295,19.94446 5.79434,14.62677 -12.04788,15.18021 -20.25693,10.35571 -4.93597,-2.90091 -9.81097,-5.97314 -15,-8.39584 1.27951,-10.07898 1.63293,-18.96527 -6.18518,-26.81558 -3.11444,-3.12726 -9.52306,-4.95731 -11.69753,-8.67978 C 248.19754,407.50629 252.01802,399.0322 249,393 c -5.19185,-10.37704 -13.80286,-9.79559 -21.43596,-15.98767 -3.32471,-2.69702 -3.5074,-9.34869 -5.89352,-12.97296 C 212.58081,350.23303 199.74492,350.4183 186,355 178.74033,343.48987 163.42149,336.22375 151.00076,344.63428 144.01299,349.36594 140.11156,356.53748 135,363 l -20.25,-24 -6.05633,-10 7.44522,-15 20.71064,-36 13.30094,-23 7.0594,-9.30324 L 169,248.57562 194,257 m -32.99924,99.4375 c 7.43938,-1.94049 14.28372,5.24982 12.5764,12.5625 -1.8692,8.00601 -16.41684,30.65265 -24.58102,32.68134 -7.09728,1.76355 -15.09291,-4.02475 -13.58641,-11.68134 1.66235,-8.4487 17.09337,-31.34595 25.59103,-33.5625 M 199,366.52933 c 6.93266,-0.54517 13.47214,6.71634 11.29321,13.47067 -4.53526,14.05859 -19.057,27.79599 -27.29321,40 -3.07237,4.55249 -6.77963,10.59265 -13,10.62268 -7.56444,0.0366 -12.48904,-7.85333 -9.77469,-14.62268 5.34499,-13.32993 17.73158,-26.31073 26.06558,-38 3.11785,-4.37308 6.69249,-10.99756 12.70911,-11.47067 m 25.00386,25.95834 c 8.1767,-1.21912 13.73946,7.2088 11.29321,14.51233 -3.82133,11.40906 -15.43412,23.12491 -22.32176,32.99924 -2.7455,3.93603 -5.75502,8.40545 -10.97607,8.82715 -6.95525,0.56179 -13.33861,-5.81101 -11.34569,-12.82639 3.33652,-11.74509 15.16353,-23.06314 22.0054,-33 2.83193,-4.11298 5.89626,-9.69995 11.34491,-10.51233 m 17.9969,35.94983 c 6.60671,-1.72382 13.55934,3.70248 13.21605,10.5625 -0.3441,6.87619 -10.35867,20.98755 -17.21757,22.52625 -6.65169,1.49218 -13.48062,-4.87137 -12.73149,-11.52625 0.74615,-6.62842 10.16307,-19.84827 16.73301,-21.5625 z"
     id="path1" />
</svg>
