<?xml version="1.0" encoding="UTF-8" standalone="no"?>
<!-- Created with Inkscape (http://www.inkscape.org/) -->

<svg
   version="1.1"
   id="svg1"
   width="500"
   height="500"
   viewBox="0 0 500 500"
   xmlns="http://www.w3.org/2000/svg"
   xmlns:svg="http://www.w3.org/2000/svg">
  <defs
     id="defs1" />
  <path
     style="fill:#f6664e;stroke:none"
     d="m 188,172 c -4.06754,0 -9.30267,-0.80768 -12.78627,1.74228 -4.06551,2.97589 -6.23396,9.87204 -8.45755,14.25772 -5.87857,11.59457 -11.21904,23.47946 -17.24229,35 -3.03389,5.80286 -11.98632,17.14969 -6.77161,23.69676 C 147.82173,253.07402 164.73471,250 172,250 v 96 l -16,3 c 0,-5.22388 1.68999,-14.34818 -2.65277,-18.25772 C 149.55391,327.32736 140.72975,329 136,329 h -36 c -5.018181,0 -12.227165,-1.30048 -16.94136,0.60339 -7.261109,2.9325 -0.752251,13.51178 -10.063271,14.33796 C 60.207153,345.07605 46.841816,344 34,344 29.182777,344 22.117117,342.75018 18.317902,346.43365 12.882378,351.70355 16,368.88861 16,376 c 0,27.81635 -1.714186,56.24133 0.04398,83.99615 0.492214,7.77018 6.569515,8.00098 12.95602,8.00385 13.665695,0.006 27.334667,-0.0933 41,7.6e-4 13.364655,0.092 4.114197,11.51425 13.05864,15.25696 C 87.819778,485.24997 94.925537,484 100,484 h 36 c 4.91795,0 12.59935,1.41071 16.77161,-1.74228 C 157.40578,478.75568 156,471.07834 156,466 c 8.93816,2.82352 16.52803,7.86258 26,9.53625 27.02657,4.77555 58.53261,0.46375 86,0.46375 18.0538,0 38.47168,2.66797 56,-2.15817 23.67212,-6.51776 47.9191,-25.76502 69,-38.23844 24.85123,-14.70428 54.54947,-26.80102 76.99615,-44.98224 C 491.20782,373.44025 480.95331,337.27734 453,336 v -86 c 7.26532,0 24.17828,3.07404 29.25772,-3.30324 C 486.61395,241.22748 480.76303,232.95129 478.1142,228 469.34058,211.60007 463.18414,189.54181 451.3017,175.22839 446.25238,169.14609 437.48859,171.72119 432,164 c 5.60147,0 14.04391,1.41681 18.56635,-2.70294 2.61608,-2.38315 2.4158,-6.05402 2.43289,-9.29706 0.0404,-7.65671 3.46771,-27.22797 -3.22763,-32.39661 C 445.57562,116.3642 437.0228,118 432,118 c 3.42029,-4.8555 10.78241,-9.52429 10.78241,-16 0,-8.770691 -14.84543,-19.454865 -20.78241,-24.945221 -2.46036,-2.275269 -5.38943,-4.846069 -9,-4.446747 C 406.69037,73.305878 402.53607,80.343048 398,84 398,78.670166 399.79358,69.429382 395.6821,65.317902 390.03973,59.675537 371.54492,62.984467 364,63 c -3.3707,0.0069 -7.09354,-0.27066 -9.6821,2.317902 C 350.20639,69.429413 352,78.670166 352,84 c -4.5361,-3.656952 -8.6904,-10.694122 -15,-11.391968 -3.61053,-0.399322 -6.53964,2.171478 -9,4.446747 -5.93695,5.490326 -20.78241,16.17453 -20.78241,24.945221 0,6.47571 7.36215,11.14453 10.78241,16 -5.32983,0 -14.57059,-1.79361 -18.6821,2.3179 -5.62726,5.62726 -2.35684,24.15424 -2.31714,31.6821 0.0173,3.28131 -0.15582,6.90103 2.43289,9.34723 C 303.87823,165.54712 312.41159,164 318,164 c -9.7796,13.83432 -37.6221,8 -53,8 0,-8.22144 -1.15219,-17.31427 2.35263,-25 4.64816,-10.19293 15.13544,-16.84821 20.38889,-27 C 299.66281,96.963348 299.10159,70.270355 285.53625,48 279.22443,37.637817 269.82291,29.170013 259,23.759247 255.22443,21.871704 250.26743,19.062408 246.22839,21.872681 241.36644,25.255554 243,33.908905 243,39 c 0,14.779144 6.91985,50.441254 -16,51.798615 -5.01381,0.296936 -13.68791,-6.299866 -15.39661,-10.813263 C 207.37749,68.822937 211,49.940125 211,38 211,32.687134 212.04169,25.261383 206.86652,21.872681 202.71053,19.151337 197.84966,21.785095 194,23.783936 183.45203,29.260712 174.77455,37.109985 168.20602,47 c -13.18399,19.850708 -15.40954,47.479492 -4.94676,69 5.66992,11.66226 17.17545,19.56915 22.38811,31 3.50482,7.6857 2.35263,16.77856 2.35263,25 m 7,-131 c 4.17081,14.110413 -4.82259,35.029846 2.17902,47.906647 3.32966,6.123657 22.70265,19.929073 29.82098,19.601833 5.57039,-0.25607 11.44759,-6.47238 16,-9.315578 4.5493,-2.841248 11.18236,-5.916626 13.25772,-11.20755 C 261.77603,73.917023 253.68993,55.581543 258,41 c 23.85437,14.920959 29.55038,48.075531 16.67593,72 -5.59396,10.39517 -16.72067,17.03836 -21.20062,28 C 249.50491,150.71484 250,161.72504 250,172 h -16 c 0,-6.97134 3.68747,-29.70728 -7.00308,-30.4537 C 215.26428,140.72711 219,165.16498 219,172 h -16 c 0,-10 0.87292,-20.50266 -2.92978,-30 -4.71083,-11.76538 -16.15596,-18.94876 -22.16975,-30 C 164.94606,88.194366 172.33809,55.990326 195,41 m 188,37 c 0,8.102112 -1.21017,33.97394 15,26.77777 5.63086,-2.49969 12.15305,-15.945128 19,-11.401244 18.06601,11.989254 -10.87967,17.732424 -5.59644,31.619624 4.85477,12.76096 17.34772,1.97638 24.99305,8.03162 C 439.72525,135.66412 438,145.16946 438,149 c -8.45297,0 -34.64444,-1.73633 -26.8071,15 1.36752,2.92029 3.97208,5.36108 5.8071,8 h -38 v -1 c 36.87885,-5.45056 33.08078,-60.99228 -4,-60.99228 -37.08981,0 -40.75644,55.48264 -4,60.99228 v 1 h -38 c 1.97177,-2.8869 4.92093,-5.66727 6.10187,-9 5.78927,-16.33777 -18.50208,-14 -27.10187,-14 0,-3.83051 -1.72525,-13.33591 1.60339,-15.97223 7.95234,-6.2984 21.01386,5.09271 25.33335,-9.02853 3.3117,-10.82663 -12.72995,-12.93561 -12.72995,-21.99924 0,-4.999176 7.66378,-9.840942 11.79321,-11 5.61179,7.961304 20.06442,22.52448 27.82098,7.956024 C 368.75027,93.454193 367,84.086975 367,78 h 16 m -12,47.39429 c 19.85043,-4.55313 28.13336,25.90832 8,30.50848 -19.84811,4.53497 -28.08121,-25.9024 -8,-30.50848 M 300,187 c -3.38431,11.74783 -10.78384,23.07385 -16.24692,34 -1.89728,3.79453 -3.80694,10.47043 -7.39041,12.97223 C 270.18878,238.28253 252.45294,235 245,235 h -84 c 3.38434,-11.74786 10.78384,-23.07385 16.24692,-34 1.89729,-3.79459 3.80696,-10.47043 7.39042,-12.97223 C 190.81125,183.71744 208.54706,187 216,187 h 84 m 164,48 h -84 c -7.45294,0 -25.18875,3.28256 -31.36267,-1.02777 C 345.05386,231.47043 343.1442,224.79456 341.24692,221 335.78384,210.07385 328.38431,198.74783 325,187 h 84 c 7.45294,0 25.18875,-3.28253 31.36267,1.02777 3.58347,2.5018 5.49313,9.17767 7.39041,12.97223 5.46308,10.92615 12.86258,22.25214 16.24692,34 M 305,213 v 148 c -29.74649,-5.77203 -59.75815,-20.79092 -90,-22.91049 -9.68105,-0.6785 -18.64137,1.97885 -28,3.91049 v -67 c 0,-5.67303 -2.5495,-19.60649 0.98843,-24.20757 C 191.35109,246.41931 207.00513,249 212,249 c 21.48059,0 46.95142,5.12094 68,0.51698 14.27985,-3.12343 15.89923,-27.22111 25,-36.51698 m 16,0 c 5.85107,10.02472 10.08127,28.72672 20.04321,35.25772 6.44928,4.2281 19.50055,1.74275 26.95679,1.74228 23.40265,-0.001 46.58344,-1.36458 70,0 v 61 c 0,7.2417 2.27756,19.10022 -0.60339,25.79013 -3.40732,7.91214 -21.20636,13.99771 -28.39661,18.22067 -11.62115,6.82532 -23.29941,13.57938 -35,20.26929 -3.79398,2.16925 -9.48276,7.01459 -14,6.9838 -6.00687,-0.0409 -11.93802,-9.0311 -18,-11.04398 -5.35052,-1.77661 -17.45959,-2.00662 -20.97223,-6.7832 C 319.13074,361.85712 320,357.00775 320,354 v -26 -80 c 0,-10.10959 -2.90765,-25.68753 1,-35 M 141,343 V 469 H 93 v -94 c 0,-5.94095 -3.226555,-27.14682 1.603394,-30.97223 C 97.384727,341.82492 103.67188,343 107,343 h 34 m 15,22 c 18.5674,-3.84259 37.8963,-12.4595 57,-11.98535 11.48285,0.28503 23.98451,5.14902 35,8.27548 18.25723,5.18185 36.65149,9.97891 55,14.82559 14.27991,3.77198 51.26175,6.67749 45.44214,28.88428 -2.96277,11.30554 -13.90546,12.61948 -23.44214,10.11572 -24.35645,-6.39447 -48.78467,-12.63458 -73,-19.53702 -5.38638,-1.53537 -13.36545,-5.20184 -18.99538,-4.05477 -4.66256,0.94995 -7.62404,6.05661 -4.95524,10.28704 2.62735,4.16474 8.54722,5.14673 12.95062,6.30475 10.3389,2.71903 20.64932,5.59311 31,8.25464 14.0152,3.60382 28.05707,7.1774 42,11.05402 10.22644,2.84332 19.57324,6.28482 30,2.09723 8.41107,-3.37806 15.57538,-10.90369 18.40201,-19.52161 1.23492,-3.76508 0.58346,-9.29987 3.20138,-12.3912 8.65519,-10.22037 27.8704,-16.82844 39.39661,-23.598 11.90234,-6.99048 28.30621,-20.66531 42,-22.79705 11.92636,-1.85663 20.66531,6.84442 18.78625,18.78625 -1.57257,9.99405 -14.02578,14.53992 -21.78625,19 -22.00516,12.64676 -44.1149,25.15723 -66,38.0108 -18.52032,10.87738 -39.14883,27.18976 -60,32.83026 C 307.42227,462.70245 294.8902,461 284,461 h -65 c -17.17307,0 -34.23721,2.10803 -50,-5.75308 -3.55234,-1.77161 -9.62531,-3.52265 -11.97221,-6.88425 C 153.61372,443.4725 156,430.82202 156,425 V 365 M 31,454 V 359 H 65 L 77.396606,360.02777 79,379 v 54 L 77.396606,452.97223 65,454 Z"
     id="path1" />
</svg>
