<?xml version="1.0" encoding="UTF-8" standalone="no"?>
<!-- Created with Inkscape (http://www.inkscape.org/) -->

<svg
   version="1.1"
   id="svg1"
   width="499.99997"
   height="381.02197"
   viewBox="0 0 499.99997 381.02197"
   xmlns="http://www.w3.org/2000/svg"
   xmlns:svg="http://www.w3.org/2000/svg">
  <defs
     id="defs1" />
  <path
     style="fill:#4d4948;fill-opacity:1;stroke:none;stroke-width:0.081833"
     d="m 66.305101,214.11954 v 11.1293 H 25.061253 v 73.43152 h 41.243848 v 16.58482 H 83.10816 v -16.58482 h 24.11346 c 4.38755,0 9.29514,0.18734 12.87465,-2.79487 1.74017,-1.44982 2.55626,-3.66876 2.98999,-5.82489 0.86244,-4.28712 0.39286,-8.95523 0.39286,-13.3115 V 225.24884 H 83.10816 v -8.07419 l -0.112155,-2.88016 -1.088065,-0.17495 h -3.0551 -12.547739 m 362.683629,0.10912 0.10908,5.89198 h -17.78502 v 10.2564 h 17.78502 v 6.00109 h -20.18502 v 9.92908 h 20.18543 v 5.89198 H 411.3132 v 10.58374 h 17.78502 v 5.45553 H 411.3132 v 10.03819 h 17.78502 v 5.67376 h -20.07635 v 10.1473 h 20.07635 v 7.09219 c -8.08142,0 -17.23289,-0.30222 -24.44075,-4.42757 -1.68126,-0.96223 -3.1252,-2.11662 -4.58265,-3.3821 -0.4793,-0.4162 -1.41113,-1.04887 -1.59108,-1.68297 -0.20736,-0.73053 0.96989,-2.26557 1.26375,-2.94599 1.18797,-2.75005 2.38379,-5.52071 3.22708,-8.40152 1.87676,-6.41168 3.50647,-13.05807 3.96441,-19.74903 0.19222,-2.8093 0.01,-5.69423 0.01,-8.51064 h -18.54885 l 4.34598,-4.90998 8.75671,-9.81997 3.7086,-4.1462 1.7824,-2.18222 0.0642,-3.38243 v -7.52864 H 371.1604 v 10.58374 h 19.63993 l -13.99721,15.82106 -4.05229,4.58265 -1.52455,1.85487 -0.0659,3.27333 v 7.31042 h 22.25859 l -1.45925,7.52864 -2.90515,9.81996 c -1.82897,-2.20975 -2.81383,-5.49563 -3.70974,-8.1833 -0.2788,-0.83622 -0.5671,-1.66994 -0.83543,-2.50955 -0.10368,-0.32446 -0.15115,-0.86928 -0.44149,-1.08809 -0.6135,-0.46227 -2.54664,-0.11213 -3.30573,-0.11213 h -9.05622 c 0.27521,2.04181 1.1982,4.18583 1.91776,6.1102 1.51285,4.04578 3.26039,7.9294 5.20147,11.78396 0.69534,1.38072 1.49117,2.71203 2.28617,4.03709 0.29681,0.49488 0.9045,1.14804 1.01416,1.71462 0.0705,0.36421 -0.3329,0.74865 -0.53142,1.01315 -0.59828,0.79738 -1.24092,1.56205 -1.92038,2.29132 -2.20057,2.36179 -4.54018,4.54287 -6.87668,6.76487 -0.58142,0.55302 -2.38199,1.60942 -2.52242,2.4102 -0.10949,0.62459 1.03511,1.70754 1.39329,2.17245 1.47553,1.91524 2.88805,3.88011 4.37954,5.78287 0.34992,0.44639 1.22292,2.1276 1.88208,1.96374 1.27611,-0.31724 2.832,-2.08576 3.81465,-2.93151 2.48306,-2.13719 4.84738,-4.43041 7.01415,-6.8882 0.85033,-0.96457 1.99256,-1.90735 2.58757,-3.05511 5.29034,3.599 10.29754,7.02438 16.47569,8.94431 9.14345,2.84141 18.80728,2.40321 28.25973,2.40321 h 38.73428 v -8.94708 c 0,-0.71999 0.34108,-2.6351 -0.11219,-3.20748 -0.30614,-0.38647 -1.51498,-0.17495 -1.96089,-0.17495 h -5.67381 -23.02233 v -7.09219 h 23.78616 v -10.1473 H 444.0464 v -5.67376 h 21.60392 V 268.23846 H 444.0464 v -5.45553 h 12.32953 c 2.76522,0 5.82193,-0.0594 8.07414,-1.90556 2.93028,-2.4019 3.22455,-6.36924 3.37824,-9.8784 0.0492,-1.12321 0.005,-2.25812 0.004,-3.38243 0,-0.29465 -0.13216,-0.93807 0.0995,-1.16554 0.34492,-0.33874 1.41612,-0.14379 1.86448,-0.14379 h 5.01907 v -7.31042 c 0,-0.5252 0.26784,-2.15576 -0.17496,-2.50652 -0.38666,-0.30629 -1.42684,-0.11214 -1.89812,-0.11214 h -4.90998 v -11.89306 -3.0551 l -0.1122,-1.13439 -1.52446,-0.17494 h -4.36449 -17.78502 v -5.89198 h -15.05728 m -165.30274,0.65466 -1.92758,5.89198 -3.45523,10.47463 -1.65291,5.01909 -0.0565,3.38243 v 6.76487 h 49.53645 l -1.38773,-10.2564 -2.64942,-18.76705 h -15.4937 l 1.63666,18.3306 h -16.03928 l 1.8086,-5.1282 3.61342,-10.03819 1.99754,-5.67376 h -15.93019 m 48.66341,0.65467 v 25.96835 c 0,4.00859 -0.48094,8.82158 2.32414,12.11129 3.36064,3.94144 8.72766,4.0371 13.49689,4.0371 h 28.04148 v -7.74686 l -0.11219,-2.88016 -1.74272,-0.17494 h -5.12823 -20.94926 v -4.80088 c 2.86874,-0.25045 6.08011,-1.97657 8.6198,-3.24638 8.4518,-4.22589 16.31375,-11.45132 19.3126,-20.64886 h -11.34754 c -1.16007,0 -3.43855,-0.43911 -4.46375,0.11213 -0.51408,0.27647 -0.89599,0.96846 -1.2536,1.41541 -0.78912,0.98647 -1.57111,1.9813 -2.38674,2.94599 -2.61842,3.09668 -5.29689,6.09286 -8.48077,8.61975 v -15.71194 h -15.93011 m -172.17674,1.20021 v 71.03108 18.3306 4.69177 c 0,0.45013 -0.1814,1.4184 0.11215,1.78904 0.35924,0.45362 2.07491,0.17495 2.61562,0.17495 h 7.85597 32.18766 35.78832 c 5.32474,0 11.85381,0.80572 16.36661,-2.64442 2.79399,-2.13606 4.01882,-5.54939 4.48776,-8.92132 0.73485,-5.28351 0.31311,-10.81856 0.31311,-16.14839 V 216.7382 h -99.72709 m 84.12437,12.54774 v 69.72175 h -68.52154 v -69.72175 h 68.52154 m 231.42386,1.0911 v 6.00109 h -11.67487 v -6.00109 h 11.67487 M 160.9041,236.0508 v 11.34752 h 20.62192 v 10.36552 h -12.98417 -3.16421 c -0.32515,0 -0.96591,-0.11705 -1.19718,0.17494 -0.44124,0.5571 -0.11215,2.39896 -0.11215,3.09838 v 8.40152 h 17.45771 v 11.78396 H 160.9041 v 11.67484 h 40.58919 9.60174 c 1.67257,0 3.6274,-0.0213 4.87717,-1.32826 1.30122,-1.36075 1.12392,-3.37687 1.12392,-5.10926 v -11.1293 h -12.32951 v 5.89198 h -7.85597 v -11.78396 h 18.11237 c -0.18779,-2.76998 0,-5.62286 0,-8.40152 0,-0.69946 0.32915,-2.54121 -0.11214,-3.09838 -0.23128,-0.29202 -0.87198,-0.17494 -1.19718,-0.17494 h -3.27333 -13.52972 V 247.39832 H 217.969 V 236.0508 h -57.0649 m -94.598999,4.0371 v 43.7534 H 41.427854 v -43.7534 h 24.877247 m 41.680299,0 v 43.7534 H 83.10816 v -43.7534 h 24.87724 m 347.73589,6.21931 v 5.78287 h -11.67487 v -5.78287 h 11.67487 m -199.12709,3.81888 v 64.37532 h 15.60282 v -15.71195 h 17.23953 v 5.01909 h -6.32848 v 10.69286 h 11.12929 c 2.9203,0 5.65352,0.10639 7.9554,-2.01071 4.49378,-4.13318 3.1739,-11.96514 3.1739,-17.411 V 250.12609 H 256.5942 m 32.84235,11.2384 v 7.41953 h -17.23953 v -7.41953 h 17.23953 m 22.91325,1.63666 v 33.27876 c 0,4.94701 -0.62332,10.65751 3.49149,14.27339 3.51702,3.09051 8.84263,2.857 13.20245,2.857 h 27.16857 v -7.74686 l -0.11219,-2.88016 -1.74272,-0.17494 h -5.12823 -20.94926 v -6.32843 c 0,-0.62519 -0.24746,-1.93146 0.11219,-2.46264 0.21408,-0.31621 0.75017,-0.35564 1.08805,-0.45169 0.91874,-0.26112 1.82267,-0.56359 2.72775,-0.86825 2.93011,-0.98629 5.69091,-2.41986 8.29246,-4.07928 7.641,-4.87392 12.98323,-12.74088 15.71195,-21.27069 h -11.45663 -3.05515 c -0.36334,0 -0.93871,-0.10461 -1.25499,0.11213 -0.409,0.28041 -0.62414,1.09424 -0.84632,1.52453 -0.59885,1.16006 -1.28192,2.2985 -2.00892,3.38243 -2.28077,3.40029 -5.57758,7.30848 -9.31039,9.1653 v -18.3306 H 312.3498 m -22.91325,16.58483 v 8.29241 h -17.23953 v -8.29241 h 17.23953 m -72.99512,86.52471 v 3.38243 c 0,0.41466 0.10607,1.01345 -0.11216,1.38562 -0.74214,1.2655 -3.48024,2.06681 -4.79783,2.50599 -6.16508,2.05504 -13.51188,0.17841 -15.92435,-6.40115 -1.64157,-4.47706 -1.65446,-11.03667 1.37608,-14.94817 3.49985,-4.5172 11.24255,-5.85558 15.96671,-2.46282 1.60848,1.15517 2.27038,2.64091 3.16421,4.31771 2.63815,-0.64991 5.58372,-1.20438 8.29242,-1.41845 -0.46479,-5.69249 -6.1996,-9.7519 -11.34752,-10.80154 -9.13823,-1.86327 -19.92219,0.0705 -24.73446,8.94666 -4.4736,8.25152 -2.94322,20.36925 4.7672,26.19768 6.84824,5.17669 16.92079,5.06151 24.65903,2.17658 2.37369,-0.88495 4.96283,-1.95556 6.86757,-3.67322 0.76607,-0.69082 0.44284,-2.25586 0.44284,-3.20623 v -8.94708 -2.50955 c 0,-0.28553 0.0818,-0.77563 -0.17496,-0.97896 -0.52675,-0.41717 -2.22175,-0.11214 -2.88014,-0.11214 h -7.85597 -5.45554 c -0.42962,0 -1.5552,-0.19957 -1.85185,0.17495 -0.405,0.51138 -0.11214,2.13325 -0.11214,2.77104 0,0.7609 -0.36516,2.82304 0.11214,3.4257 0.3421,0.43191 1.88782,0.17495 2.39741,0.17495 h 7.20131 m 107.36499,2.29133 -8.29247,-2.29133 c -1.02013,6.90921 -8.95728,10.3018 -14.72994,6.56138 -2.73535,-1.77242 -3.94444,-4.65019 -4.42725,-7.7616 -0.75729,-4.88137 -0.56449,-10.99684 3.22708,-14.61654 4.93895,-4.71512 13.82455,-2.72376 15.71195,3.9237 l 8.40147,-1.85489 c -0.77602,-2.38487 -1.80123,-4.73861 -3.60491,-6.54235 -6.40745,-6.40757 -18.77127,-6.32621 -25.74582,-0.91371 -5.61391,4.35655 -7.44133,11.53453 -6.97332,18.36713 0.40753,5.95112 3.10843,11.56511 8.28265,14.79267 9.87209,6.15802 25.31849,2.57784 28.15056,-9.66446 M 25.061253,341.66998 v 38.62519 h 23.4588 6.001088 l 2.225485,-0.11214 0.17496,-1.63362 v -4.80088 H 33.462773 V 363.2739 h 21.058368 v -6.54664 c -6.944672,0.4711 -14.093926,0 -21.058368,0 v -8.40152 h 22.585923 v -6.65576 H 25.061253 m 46.917613,38.62519 v -24.98635 h 0.109105 l 4.47077,6.76487 7.531414,11.2384 3.27332,4.90998 1.43858,1.96096 2.48941,0.11214 H 97.29255 V 341.66998 H 89.43658 V 367.311 c -3.23182,-4.20482 -5.968325,-8.89796 -8.9107,-13.31151 l -5.819249,-8.72886 c -0.63533,-0.95348 -1.415405,-2.91658 -2.420575,-3.4885 -0.83698,-0.47626 -2.73459,-0.11215 -3.68963,-0.11215 h -3.27332 c -0.32515,0 -0.9659,-0.11706 -1.19718,0.17495 -0.254075,0.32078 -0.11215,1.07644 -0.11215,1.46171 v 4.0371 15.38461 12.87507 3.27332 c 0.001,0.3195 -0.101595,0.98342 0.11476,1.24778 0.312095,0.38138 1.510395,0.17065 1.95824,0.17065 h 5.89198 m 34.260764,-38.62519 v 38.62519 h 31.75122 v -6.54664 H 114.64105 V 363.2739 h 21.05836 v -4.58265 l -0.11214,-1.77389 -1.4154,-0.1901 h -3.81888 -15.71194 v -8.40152 h 22.58592 v -6.65576 h -30.98745 m 38.95253,0 v 38.62519 h 6.1102 l 2.2243,-0.11171 0.17347,-0.98368 0.002,-2.9417 V 364.2559 c 2.32329,0 4.88521,-0.29317 6.98309,0.90967 1.58892,0.91105 2.7177,2.57364 3.80625,4.00031 1.8089,2.37073 3.56693,4.78343 5.31275,7.20131 0.76106,1.054 1.77151,3.17275 2.90332,3.81584 0.66782,0.37946 2.06138,0.11214 2.81674,0.11214 h 7.20131 c -0.56479,-1.77247 -2.24364,-3.47477 -3.27332,-5.01909 -2.02883,-3.04291 -3.9973,-6.39989 -6.65576,-8.94278 -1.28338,-1.22762 -2.78712,-2.08796 -4.25532,-3.0594 3.24796,-0.80009 6.25469,-1.40878 8.60078,-4.03709 4.28238,-4.79757 2.38467,-13.08032 -3.14524,-15.95375 -2.80326,-1.45662 -6.10919,-1.33974 -9.16488,-1.51256 -6.51307,-0.36833 -13.1131,-0.10052 -19.64035,-0.10052 m 83.25148,0 4.03432,6.00109 6.81394,9.92908 3.0087,4.36442 1.34193,2.07311 0.0766,3.70976 v 8.18331 3.0551 l 0.11214,1.13438 2.17919,0.17494 h 6.21931 v -11.3475 c 0,-1.39515 -0.42281,-3.61884 0.11848,-4.90999 0.80379,-1.91734 2.51823,-3.7443 3.69762,-5.45554 2.57886,-3.74176 5.11611,-7.51337 7.71906,-11.2384 1.18568,-1.69677 3.11105,-3.69882 3.74034,-5.67376 h -9.71086 l -6.18575,9.81996 -3.30688,5.34643 h -0.21822 l -3.38211,-5.34643 -6.32874,-9.81996 h -9.92908 m 102.56408,38.62519 h 8.51063 v -16.80304 h 16.4757 v 16.80304 h 8.51063 v -27.4959 -7.74685 c 0,-0.83125 0.30148,-2.38014 -0.0659,-3.12918 -0.20786,-0.42409 -1.29108,-0.25323 -1.67987,-0.25326 h -4.90998 c -0.40246,0 -1.57758,-0.18764 -1.78945,0.25326 -0.4905,1.02001 -0.0655,3.19502 -0.0655,4.32939 v 10.58374 h -16.47553 v -15.16639 h -6.21931 l -2.17922,0.17495 -0.11211,2.66193 v 7.31042 28.47789 m 52.1549,0 v -38.62519 h -6.21931 l -2.17913,0.17495 -0.1122,2.11637 v 5.67377 22.04036 6.21931 l 0.1122,2.22549 2.07005,0.17494 h 6.32839 m 17.78502,0 v -24.98635 h 0.10917 c 0.87921,2.11788 2.65581,4.09282 3.92798,6.00109 2.69534,4.04309 5.41514,8.06823 8.11048,12.11129 1.07054,1.6058 2.13919,3.21191 3.23428,4.80087 0.39698,0.57619 0.82046,1.60774 1.44133,1.96096 0.60286,0.34298 1.80998,0.11214 2.48936,0.11214 h 6.00114 v -28.47789 -7.31042 l -0.11219,-2.66193 -1.96096,-0.17495 H 418.4053 V 367.311 c -1.61792,-1.89838 -2.92512,-4.22322 -4.26113,-6.32842 -1.63756,-2.58062 -3.39075,-5.09464 -5.08608,-7.63775 l -5.45545,-8.18331 c -0.61882,-0.92829 -1.40262,-2.80318 -2.36309,-3.37939 -0.82389,-0.49428 -2.82954,-0.11215 -3.78339,-0.11215 h -3.16424 c -0.3252,0 -0.96587,-0.11705 -1.19713,0.17495 -0.26743,0.33772 -0.11219,1.16366 -0.11219,1.57083 v 4.03709 15.82105 12.43862 3.16422 c 0,0.34062 -0.114,0.95782 0.11219,1.24349 0.30614,0.38647 1.51497,0.17494 1.96088,0.17494 h 5.89198 m 31.75122,0 h 6.21931 c 0.70369,0 1.93536,0.23866 2.57578,-0.0658 0.54722,-0.26017 0.81268,-1.58565 1.02488,-2.11637 0.82177,-2.05478 2.13461,-4.36967 2.50957,-6.54665 h 11.67488 3.3824 c 0.44509,0 1.08863,-0.11572 1.50426,0.0658 0.59697,0.26084 0.86055,1.55878 1.09811,2.11637 0.63315,1.4867 1.25352,2.97986 1.86997,4.47354 0.22815,0.55261 0.42242,1.47486 0.85426,1.89816 0.43903,0.43028 1.84083,0.17494 2.42029,0.17494 h 6.76481 c -0.29182,-1.22803 -0.97569,-2.45035 -1.49419,-3.60065 -0.89566,-1.98696 -1.7383,-4.00163 -2.60573,-6.00109 -2.809,-6.47455 -5.64672,-12.93725 -8.43134,-19.4217 -1.00098,-2.33095 -2.02757,-4.65084 -3.02553,-6.98309 -0.25884,-0.60474 -0.67618,-2.26139 -1.2892,-2.55282 -0.51906,-0.24679 -1.46309,-0.0658 -2.03011,-0.0658 h -4.69182 c -0.536,0 -1.68731,-0.21639 -2.10589,0.17495 -0.66113,0.61818 -0.98543,2.15943 -1.3396,2.98926 -1.03814,2.43255 -2.04837,4.87717 -3.08478,7.31042 -2.69256,6.32113 -5.3694,12.64976 -8.02774,18.98526 -0.80982,1.92985 -1.62676,3.8575 -2.44689,5.78288 -0.4599,1.07976 -1.1257,2.22095 -1.3257,3.38242 M 153.70279,358.03659 v -9.71085 h 9.81997 c 1.86634,0 3.87327,-0.11183 5.45553,1.065 2.69298,2.00291 2.06858,6.50463 -0.87288,7.90557 -1.55734,0.74169 -3.45207,0.57328 -5.1281,0.63512 -3.08802,0.11395 -6.17973,0.10516 -9.27452,0.10516 m 299.61801,-7.20131 3.60065,8.83797 2.07316,5.34643 h -11.34754 l 3.6662,-9.27442 z"
     id="path1" />
  <g
     id="g2"
     transform="matrix(0.08183304,0,0,0.08183304,-27.032467,-8.0536384)">
    <path
       d="m 3570.2599,100.44015 c -10.1699,1.3392 -19.8483,2.1958 -29.3334,6.5174 -37.4615,17.0682 -30.6666,64.5843 -30.6666,98.25 v 289.33338 85.33334 c 0,14.3571 0.5081,30.70915 12.0576,41.04834 14.1973,12.70964 37.1113,9.61833 54.609,9.61833 h 128 360 116 c 20.9639,0 43.3142,2.19352 64,-1.44548 27.279,-4.79882 45.2246,-23.77913 64,-42.55452 l 62.6667,-62.66667 285.3331,-285.33332 c 31.108,-31.1079 62.413,-62.034 93.328,-93.3334 10.404,-10.5325 22.705,-29.9741 6.614,-41.9814 -6.837,-5.101404 -17.256,-3.351904 -25.275,-3.351904 h -56 -222.6668 -592 -192 c -32.1643,0 -66.7877,-3.632 -98.6666,0.565904 m 1315.9994,25.6183 c -9.355,2.7033 -16.05,11.1998 -22.666,17.8158 l -37.334,37.3333 -140,140.00005 c -66.442,66.44319 -133.5385,132.20589 -199.9994,198.66667 -30.2028,30.2028 -73.8552,61.72022 -91.5834,101.33334 -7.9957,17.86621 -5.75,38.28418 -5.75,57.33333 v 100 362.66666 260 c 0,31.2165 -8.3763,78.3815 13.9571,103.8795 11.6461,13.2966 29.5338,14.7872 46.0429,14.7872 h 70.6667 254.6661 76 c 11.676,0 26.158,2.2799 37.334,-1.4734 28.882,-9.6998 25.333,-42.1997 25.333,-66.5266 V 1254.5409 417.2076 189.20755 c 0,-19.7386 8.86,-73.4148 -26.667,-63.1491 M 3555.5932,880.49367 c -45.5224,8.19328 -45.3333,51.03784 -45.3333,87.38062 v 267.99991 c 0,32.3362 -9.3405,79.7138 14.791,105.3139 16.3721,17.3683 37.7773,17.3528 59.8756,17.3528 h 82.6667 290.6667 89.3333 c 15.9883,0 33.7087,2.1384 49.3333,-1.6522 43.4261,-10.5356 42.6667,-53.2675 42.6667,-89.0145 V 998.54095 c 0,-32.10986 8.8854,-79.26416 -17.4538,-103.59977 -17.5879,-16.25008 -37.598,-15.0669 -59.8795,-15.0669 h -86.6667 -282.6667 -90.6666 c -15.0596,0 -31.8278,-2.05135 -46.6667,0.61939 m -13.3333,726.63203 c -46.3073,7.292 -32,74.9162 -32,108.7479 v 301.3333 c 0,30.1864 -10.8168,86.543 17.3385,106.9486 20.9411,15.1769 51.4945,13.0514 75.9948,13.0514 h 150.6667 429.3333 136 c 25.734,0 53.317,2.6279 78.6667,-2.4105 27.319,-5.4297 45.1298,-25.386 64,-44.2562 24.6783,-24.6785 50.1481,-48.7926 73.5595,-74.6666 32.3119,-35.7102 68.3849,-68.6105 102.4409,-102.6667 56.214,-56.2148 111.764,-113.0978 167.999,-169.3333 31.319,-31.3184 62.188,-63.1366 93.329,-94.6667 9.773,-9.8955 20.091,-29.9917 3.947,-40.1893 -7.657,-4.8366 -20.598,-2.4774 -29.276,-2.4774 h -68 -255.9994 -678.6667 -220 c -35.2432,0 -74.5387,-4.8937 -109.3333,0.5855"
       style="fill:#e50112;fill-opacity:1;stroke:none"
       id="path1-1" />
    <path
       d="m 847.72946,102.00374 c -26.76489,4.21306 -44.34709,22.42855 -62.66667,40.74805 l -62.66666,62.66667 c -94.87512,94.87517 -188.02718,191.56755 -282.66768,286.66668 -31.03401,31.18441 -62.40572,62.03758 -93.32719,93.33328 -10.22294,10.3467 -23.31085,29.4161 -7.7541,41.9815 6.73091,5.4367 18.34521,3.3519 26.41564,3.3519 h 62.66667 247.99999 706.66664 220 c 33.836,0 75.0988,6.383 108,-1.6522 12.1883,-2.9767 22.146,-12.8913 25.43,-25.0145 6.973,-25.7405 1.2367,-60.01528 1.2367,-86.66665 V 217.41846 c 0,-30.99674 10.4313,-85.89225 -20.0052,-105.73356 -21.7396,-14.171879 -51.3434,-10.26644 -75.9948,-10.26644 h -156 -429.3333 -137.33338 c -22.87093,0 -48.07177,-2.97136 -70.66666,0.58528 m 1530.66664,-0.0143 c -28.4326,4.07357 -47.1216,22.55062 -66.6667,42.09571 -20.6865,20.68652 -40.6588,41.99218 -61.3333,62.66666 -94.908,94.90805 -189.1059,190.4393 -284,285.33335 -31.5431,31.54313 -63.5254,62.70836 -94.6471,94.66666 -9.8609,10.126 -21.5199,30.5581 -5.2129,41.321 7.3647,4.8608 19.45,2.679 27.86,2.679 h 66.6667 252 692 220 c 33.6901,0 73.7203,5.9251 106.6666,-1.0915 43.2344,-9.2076 29.3334,-78.5214 29.3334,-110.90849 V 217.41846 c 0,-31.51986 10.0198,-86.48503 -21.3334,-106.48975 -21.1058,-13.466469 -50.9072,-9.51025 -74.6666,-9.51025 h -156 -422.6667 -137.3333 c -22.9981,0 -47.8991,-2.69092 -70.6667,0.57096 m 3163.9999,0.0143 c -30.0905,4.7002 -48.7532,25.50147 -69.3333,46.08139 -23.7933,23.79313 -48.3213,47.0542 -70.8929,72 -35.262,38.97119 -74.6966,74.74414 -111.7728,112 -52.7308,52.98617 -104.473,107.13868 -157.3343,160.00001 -31.0775,31.07764 -62.9079,61.5684 -93.2809,93.3333 -9.945,10.4009 -23.1478,29.3329 -7.7686,41.7963 6.8467,5.5485 18.1752,3.5371 26.3828,3.5371 h 64 249.3334 709.3333 222.6666 c 33.8373,0 75.097,6.381 108,-1.6522 26.3607,-6.436 26.9278,-29.5568 26.6719,-51.6812 -0.2311,-19.9943 -0.01,-40.0042 -0.01,-59.99997 V 217.41846 c 0,-30.34277 10.8477,-85.48275 -18.668,-105.19336 -21.7864,-14.549159 -51.1868,-10.80664 -75.9987,-10.80664 h -157.3333 -433.3333 -140 c -22.8828,0 -48.056,-2.94646 -70.6667,0.58528 M 359.72947,718.12422 c -31.43719,7.2165 -28,39.7292 -28,64.6276 v 193.3333 832.00008 225.3333 c 0,20.5586 -10.08044,71.0344 24,64.8941 9.08126,-1.6363 15.14319,-9.371 21.33333,-15.5608 l 37.33334,-37.3333 143.99999,-144 c 65.97868,-65.9787 131.32821,-132.6615 197.33333,-198.6667 30.5236,-30.5236 75.00073,-62.6338 92.91667,-102.6666 8.07779,-18.0498 5.75,-38.1439 5.75,-57.3334 v -98.6666 -356.0001 -257.33328 c 0,-29.7814 8.54597,-76.2935 -14.91358,-99.7531 -12.44653,-12.4466 -31.25366,-13.5802 -47.75309,-13.5802 h -73.33333 -244 -75.99999 c -12.27686,0 -26.66862,-2.0485 -38.66667,0.7057 m 1526.66663,0 c -31.3576,7.1982 -28,39.8703 -28,64.6276 v 196 838.66668 228 c 0,21.1898 -10.2877,71.7744 24,66.3817 9.1636,-1.4413 16.4209,-9.5003 22.6667,-15.716 l 36,-35.999 c 48.6709,-48.6709 96.6894,-98.0228 145.3333,-146.6667 l 198.6667,-198.6667 56,-56 c 13.5026,-13.5026 27.588,-26.2672 35.5822,-44 8.1201,-18.0119 7.0844,-39.3525 7.0844,-58.6666 0,-33.4094 -1.3333,-66.6001 -1.3333,-100 V 1092.0851 833.41852 c 0,-30.4507 7.2734,-78.4901 -16.2469,-102.4353 -12.1587,-12.3782 -30.1149,-13.5647 -46.4198,-13.5647 h -74.6666 -244 -76 c -12.2765,0 -26.6688,-2.0485 -38.6667,0.7057 m 3175.9999,-0.082 c -31.4362,5.9307 -29.3333,38.863 -29.3333,63.3765 v 196 837.33328 228 c 0,18.7668 -9.8024,70.9989 21.3333,67.3612 22.2777,-2.6029 44.947,-36.3081 60,-51.3612 l 146.6667,-146.6666 c 65.9977,-65.9976 131.3662,-132.6996 197.3333,-198.6667 l 57.3334,-57.3333 c 12.5761,-12.5762 26.3782,-24.788 33.7786,-41.3334 9.0944,-20.3335 7.5547,-42.2843 7.5547,-64 v -98.6668 -362.6667 -257.33338 c 0,-30.3838 7.6601,-77.4246 -16.1244,-101.2088 -12.6868,-12.6865 -31.0299,-13.4578 -47.8756,-13.4578 h -73.3333 -240 -77.3334 c -12.9007,0 -27.2994,-1.7727 -40,0.6235 m -2385.3332,162.6625 c -44.7744,8.0586 -45.3334,50.0244 -45.3334,86.0473 v 267.99998 c 0,32.1141 -9.2983,79.5667 14.3396,105.106 17.4173,18.8183 38.1507,17.5607 61.6604,17.5607 h 81.3334 292 90.6666 c 15.0622,0 31.9717,2.3873 46.6667,-1.1996 44.528,-10.8691 42.6667,-54.3366 42.6667,-90.8004 V 997.41852 c 0,-32.976 8.7584,-79.0924 -18.6862,-103.7531 -16.2064,-14.5624 -35.7012,-13.5803 -55.9805,-13.5803 h -89.3333 -282.6667 -90.6667 c -15.0594,0 -31.8278,-2.0513 -46.6666,0.6194 M 993.06279,1607.3176 c -33.93001,4.5096 -52.5769,24.011 -76,47.4342 l -57.33333,57.3334 -283.99999,284 c -31.78512,31.7851 -62.87537,64.1964 -94.66667,96 -9.62528,9.6289 -24.59692,30.124 -7.86007,41.8621 5.97274,4.189 16.91338,2.1379 23.86007,2.1379 h 58.66667 226.66666 611.99997 197.3334 c 31.1334,0 66.6917,4.7959 97.3333,-0.6183 50.5106,-8.925 48,-57.657 48,-98.0484 v -302.6667 -78.6666 c 0,-14.3908 -1.2192,-30.8763 -13.3869,-40.6234 -15.0436,-12.051 -39.3405,-8.71 -57.2798,-8.71 h -132 -361.3333 -118.6667 c -20.0646,0 -41.4391,-2.0783 -61.33331,0.5658 m 1540.00001,0 c -32.6621,4.446 -52.267,25.0334 -74.6667,47.4331 l -57.3333,57.3334 -285.3334,285.3333 -94.6666,94.6667 c -9.7502,9.7664 -24.1258,29.9717 -7.856,41.8807 6.5829,4.8183 16.3361,2.1308 23.856,2.1193 h 57.3333 221.3333 606.6667 193.3333 c 32.8412,0 69.058,4.4878 101.3334,-1.6822 46.9065,-8.9667 44,-60.0263 44,-96.9845 v -304 c 0,-28.0941 2.3831,-57.4434 -0.9528,-85.3333 -1.4122,-11.806 -2.2631,-24.2959 -12.5049,-32.2819 -15.6892,-12.2338 -38.655,-9.0515 -57.209,-9.0515 h -128 -353.3333 -116 c -19.6114,0 -40.5625,-2.0789 -60,0.5669 m 3616.9524,0.2061 c -36.8783,2.7046 -74.6322,0.5608 -111.6192,0.5608 -74.237,0 -148.498,-0.2592 -222.6666,1.3147 -27.0632,0.5744 -54.2657,0.2919 -81.3334,0.013 -18.9394,-0.1947 -38.0553,-1.3683 -56,5.9435 -17.1888,7.0041 -29.8437,21.2385 -42.6666,34.0617 l -56,56 -205.3334,205.3333 -156,156 c -13.8089,13.8091 -51.4567,39.122 -37.2142,62.6081 4.7181,7.78 13.3057,6.7253 21.2142,6.7253 h 50.6667 216 624 198.6666 c 33.1986,0 70.0599,4.7293 102.6667,-1.46 51.196,-9.7176 44,-65.9158 44,-105.2067 v -292 c 0,-22.166 -0.8477,-44.5202 0.051,-66.6667 0.6289,-15.4996 2.1817,-34.3095 -6.677,-47.999 -14.2227,-21.9782 -49.681,-16.001 -72.0411,-16.001 -44.0149,0 -88.0488,1.3334 -132,1.3334 -25.5494,0 -52.3287,-2.4224 -77.7141,-0.5608"
       style="fill:#0168b7;fill-opacity:1;stroke:none"
       id="path1-0" />
  </g>
</svg>
