<?xml version="1.0" encoding="UTF-8" standalone="no"?>
<!-- Created with Inkscape (http://www.inkscape.org/) -->

<svg
   version="1.1"
   id="svg1"
   width="564"
   height="561"
   viewBox="0 0 564 561"
   xmlns="http://www.w3.org/2000/svg"
   xmlns:svg="http://www.w3.org/2000/svg">
  <defs
     id="defs1" />
  <path
     style="fill:#01519a;fill-opacity:1"
     d="m 67.464305,518.69967 c -3.967813,-1.56803 -6.669603,-3.62482 -8.764549,-6.67218 C 57.246145,509.91304 57,506.79732 57,490.51189 c 0,-22.18892 0.649887,-24.47454 8.035882,-28.26189 4.328996,-2.2198 4.898503,-2.24935 42.426008,-2.2013 L 145.5,460.0974 137.51757,467.5487 129.53515,475 H 101.81289 74.090626 l -0.5948,3.25 c -0.32714,1.7875 -0.460031,8.425 -0.295313,14.75 L 73.5,504.5 l 28.25,0.26557 28.25,0.26558 V 499.51557 494 h 8 8 v 7.53212 c 0,9.20397 -1.72819,13.72703 -6.17122,16.15146 -3.00284,1.63856 -6.56002,1.83597 -36.32878,2.01609 -23.729258,0.14357 -33.852822,-0.13736 -36.035695,-1 z M 252,509.02746 V 498.05491 L 237.75,497.77746 223.5,497.5 223.20619,490.25 222.91238,483 H 245.45619 268 v 18.5 18.5 h -8 -8 z M 374,509 V 498 H 359.5 345 v -7.5 -7.5 h 22.5 22.5 v 18.5 18.5 h -8 -8 z m 59.5,9.81917 c -5.51308,-1.97438 -9.37354,-5.63581 -10.55045,-10.00652 -0.67953,-2.52361 -0.98379,-10.59396 -0.78126,-20.72296 0.3865,-19.32987 1.30933,-22.03455 8.81648,-25.83969 4.37543,-2.21777 4.98385,-2.24959 42.47712,-2.22122 l 38.03811,0.0288 -8,7.42174 -8,7.42174 -28,0.29947 -28,0.29948 -0.27673,14.75 -0.27674,14.75 H 467.47327 496 v -5.5 -5.5 l 7.75,-0.002 7.75,-0.002 -0.56015,9.2517 c -0.65909,10.88574 -1.16413,12.26826 -5.31103,14.53868 -2.75272,1.5071 -7.09559,1.73666 -36.12882,1.90978 -21.49167,0.12815 -34.04621,-0.1779 -36,-0.8776 z m -245,-0.92107 c -3.58189,-1.10028 -5.50746,-2.55031 -7.79589,-5.87061 -1.46679,-2.12818 -1.70359,-5.26157 -1.70037,-22.5 C 179.0096,458.13658 175.87696,460 228.64306,460 h 38.84081 l -7.58669,7.58669 -7.58669,7.58669 -28.65525,-0.0369 L 195,475.09963 v 13.01592 c 0,7.15877 0.46583,13.88635 1.03518,14.95019 0.98337,1.83744 2.37244,1.93527 27.75,1.95451 l 26.71482,0.0202 -7.5,6.93622 -7.5,6.93622 -22,-0.0467 c -12.1,-0.0257 -23.35,-0.46133 -25,-0.96817 z m 119.96742,-0.89582 c -7.15086,-3.53971 -7.62738,-5.29986 -7.5098,-27.73936 0.11555,-22.05446 0.60593,-23.96662 7.02678,-27.39982 3.22481,-1.7243 6.33516,-1.8631 41.75,-1.8631 21.04608,0 38.25329,0.3375 38.23824,0.75 -0.0151,0.4125 -3.05255,3.78072 -6.75,7.48493 l -6.72264,6.73492 -28.75,0.0713 -28.75,0.0713 v 13.82134 c 0,10.29124 0.34022,14.1037 1.33206,14.92685 0.87949,0.72992 10.2926,1.19621 27.70582,1.37245 l 26.37375,0.26693 -7.88038,6.75 -7.88038,6.75 -22.07543,-7.9e-4 c -20.04683,-7.1e-4 -22.44601,-0.18422 -26.10802,-1.99693 z M 263.66081,429.54443 C 246.06098,427.29825 227.22133,422.66796 216,417.83066 c -2.475,-1.06693 -5.4,-2.31162 -6.5,-2.76598 -8.50544,-3.51324 -22.59581,-11.43362 -32.32938,-18.17277 -54.77373,-37.9232 -85.826269,-103.0586 -80.341373,-168.52299 2.378907,-28.39319 9.561233,-52.2387 23.020373,-76.42826 9.59283,-17.24079 16.91753,-26.74124 33.13008,-42.97115 C 164.46019,97.476725 167.70712,94.78177 180,86.542604 c 22.41186,-15.021298 44.13547,-23.734213 73,-29.278869 12.04781,-2.314291 50.24133,-2.302244 61.5,0.0194 4.4,0.907321 10.475,2.1413 13.5,2.742176 8.10101,1.609157 24.23592,7.205773 34.5,11.966796 C 419.84677,98.592581 459.711,151.6215 470.00546,215 c 1.81237,11.15798 2.33653,33.72974 1.05621,45.48404 -0.65803,6.04122 -1.3761,11.16372 -1.59571,11.38334 -0.49164,0.49163 -38.77214,0.15977 -39.27237,-0.34046 -0.19761,-0.19761 0.1907,-4.72873 0.8629,-10.06916 0.77193,-6.13267 1.00552,-15.28168 0.63407,-24.83382 -0.85969,-22.10761 -4.76995,-38.34784 -13.77173,-57.19723 -18.00823,-37.70855 -49.62903,-65.48302 -88.50791,-77.74187 -28.91264,-9.116407 -61.92786,-9.115678 -90.82184,0.002 -7.53373,2.37731 -25.55829,10.67317 -33.58908,15.45946 -10.72596,6.3926 -31.7674,25.71107 -38.617,35.45486 -1.58565,2.25564 -4.27713,6.08064 -5.98107,8.5 -7.24569,10.28787 -15.04805,27.66669 -19.25979,42.89883 -3.78208,13.67821 -4.64295,21.0552 -4.60952,39.5 0.0388,21.43234 1.52937,30.40962 8.17714,49.25 L 147.2679,300 H 305.13395 C 391.96028,300 463,300.21596 463,300.4799 c 0,0.26395 -1.84109,5.10145 -4.09131,10.75 -13.70562,34.40415 -36.17992,62.95908 -66.59871,84.6176 -12.91687,9.19696 -15.57133,10.71927 -31.30998,17.95598 -17.37936,7.99111 -30.22726,11.65524 -53.5,15.25781 -10.97244,1.69851 -32.46066,1.93533 -43.83919,0.48314 z m 39.85884,-40.06823 c 10.08982,-1.39532 27.57041,-5.69951 33.98035,-8.36687 7.81411,-3.25167 25.68966,-12.96337 31.52622,-17.12804 9.12689,-6.51248 11.93413,-8.9208 20.95112,-17.97396 l 7.47734,-7.50733 -56.72734,-0.25826 c -31.20004,-0.14204 -82.15897,-0.14204 -113.24207,0 l -56.51473,0.25826 5.80949,6 c 8.3638,8.63809 13.83562,13.39493 21.21997,18.44726 3.575,2.446 6.725,4.72618 7,5.06707 1.49804,1.85698 24.10121,12.37317 33.06631,15.3842 9.52274,3.19833 13.10063,4.01141 28.43369,6.46163 8.97172,1.43367 25.08449,1.26656 37.01965,-0.38396 z M 365.75,272.25014 304,271.98474 v -87.69237 c 0,-48.2308 0.36233,-87.26487 0.80517,-86.74237 1.36173,1.606665 5.13263,6.89319 26.71326,37.45 11.45885,16.225 24.04299,34 27.96477,39.5 10.89171,15.27483 63.35308,89.42407 67.74412,95.75 1.04988,1.5125 1.54073,2.641 1.09077,2.50777 -0.44995,-0.13323 -28.60559,-0.36166 -62.56809,-0.50763 z m -224.0982,-3.08746 c 2.32756,-3.57323 18.81624,-26.94272 22.93055,-32.49959 C 166.27764,234.37339 171.94448,226.425 177.17533,219 196.33716,191.80044 263.18231,97.487664 263.58501,97.083333 263.81325,96.854167 264,136.11667 264,184.33333 V 272 h -62.0982 -62.0982 z"
     id="path1" />
</svg>
