<?xml version="1.0" encoding="UTF-8" standalone="no"?>
<!-- Created with Inkscape (http://www.inkscape.org/) -->

<svg
   version="1.1"
   id="svg1"
   width="454.5"
   height="464.46506"
   viewBox="0 0 454.5 464.46506"
   xmlns="http://www.w3.org/2000/svg"
   xmlns:svg="http://www.w3.org/2000/svg">
  <defs
     id="defs1" />
  <path
     style="fill:#01519a;fill-opacity:1"
     d="M 10.464305,463.16473 C 6.496492,461.5967 3.794702,459.53991 1.699756,456.49255 0.246145,454.3781 0,451.26238 0,434.97695 c 0,-22.18892 0.649887,-24.47454 8.035882,-28.26189 4.328996,-2.2198 4.898503,-2.24935 42.426008,-2.2013 l 38.03811,0.0487 -7.98243,7.4513 -7.98242,7.4513 H 44.81289 17.090626 l -0.5948,3.25 c -0.32714,1.7875 -0.460031,8.425 -0.295313,14.75 l 0.299487,11.5 28.25,0.26557 28.25,0.26558 v -5.51558 -5.51557 h 8 8 v 7.53212 c 0,9.20397 -1.72819,13.72703 -6.17122,16.15146 -3.00284,1.63856 -6.56002,1.83597 -36.32878,2.01609 -23.729258,0.14357 -33.852822,-0.13736 -36.035695,-1 z M 195,453.49252 v -10.97255 l -14.25,-0.27745 -14.25,-0.27746 -0.29381,-7.25 -0.29381,-7.25 H 188.45619 211 v 18.5 18.5 h -8 -8 z m 122,-0.0275 v -11 H 302.5 288 v -7.5 -7.5 h 22.5 22.5 v 18.5 18.5 h -8 -8 z m 59.5,9.81917 c -5.51308,-1.97438 -9.37354,-5.63581 -10.55045,-10.00652 -0.67953,-2.52361 -0.98379,-10.59396 -0.78126,-20.72296 0.3865,-19.32987 1.30933,-22.03455 8.81648,-25.83969 4.37543,-2.21777 4.98385,-2.24959 42.47712,-2.22122 l 38.03811,0.0288 -8,7.42174 -8,7.42174 -28,0.29947 -28,0.29948 -0.27673,14.75 -0.27674,14.75 H 410.47327 439 v -5.5 -5.5 l 7.75,-0.002 7.75,-0.002 -0.56015,9.2517 c -0.65909,10.88574 -1.16413,12.26826 -5.31103,14.53868 -2.75272,1.5071 -7.09559,1.73666 -36.12882,1.90978 -21.49167,0.12815 -34.04621,-0.1779 -36,-0.8776 z m -245,-0.92107 c -3.58189,-1.10028 -5.50746,-2.55031 -7.79589,-5.87061 -1.46679,-2.12818 -1.70359,-5.26157 -1.70037,-22.5 0.006,-31.39091 -3.12678,-29.52749 49.63932,-29.52749 h 38.84081 l -7.58669,7.58669 -7.58669,7.58669 -28.65525,-0.0369 L 138,419.56469 v 13.01592 c 0,7.15877 0.46583,13.88635 1.03518,14.95019 0.98337,1.83744 2.37244,1.93527 27.75,1.95451 l 26.71482,0.0202 -7.5,6.93622 -7.5,6.93622 -22,-0.0467 c -12.1,-0.0257 -23.35,-0.46133 -25,-0.96817 z m 119.96742,-0.89582 c -7.15086,-3.53971 -7.62738,-5.29986 -7.5098,-27.73936 0.11555,-22.05446 0.60593,-23.96662 7.02678,-27.39982 3.22481,-1.7243 6.33516,-1.8631 41.75,-1.8631 21.04608,0 38.25329,0.3375 38.23824,0.75 -0.0151,0.4125 -3.05255,3.78072 -6.75,7.48493 l -6.72264,6.73492 -28.75,0.0713 -28.75,0.0713 v 13.82134 c 0,10.29124 0.34022,14.1037 1.33206,14.92685 0.87949,0.72992 10.2926,1.19621 27.70582,1.37245 l 26.37375,0.26693 -7.88038,6.75 -7.88038,6.75 -22.07543,-7.9e-4 c -20.04683,-7.1e-4 -22.44601,-0.18422 -26.10802,-1.99693 z M 206.66081,374.00949 C 189.06098,371.76331 170.22133,367.13302 159,362.29572 c -2.475,-1.06693 -5.4,-2.31162 -6.5,-2.76598 -8.50544,-3.51324 -22.59581,-11.43362 -32.32938,-18.17277 C 65.39689,303.43377 34.344351,238.29837 39.829247,172.83398 42.208154,144.44079 49.39048,120.59528 62.84962,96.405721 72.44245,79.164931 79.76715,69.664481 95.9797,53.434571 107.46019,41.941786 110.70712,39.246831 123,31.007665 145.41186,15.986367 167.13547,7.2734516 196,1.7287956 c 12.04781,-2.31429098 50.24133,-2.30224398 61.5,0.0194 4.4,0.907321 10.475,2.1413 13.5,2.742176 8.10101,1.609157 24.23592,7.2057734 34.5,11.9667964 57.34677,26.600474 97.211,79.629393 107.50546,143.007892 1.81237,11.15798 2.33653,33.72974 1.05621,45.48404 -0.65803,6.04122 -1.3761,11.16372 -1.59571,11.38334 -0.49164,0.49163 -38.77214,0.15977 -39.27237,-0.34046 -0.19761,-0.19761 0.1907,-4.72873 0.8629,-10.06916 0.77193,-6.13267 1.00552,-15.28168 0.63407,-24.83382 -0.85969,-22.10761 -4.76995,-38.34784 -13.77173,-57.19723 C 342.9106,86.183221 311.2898,58.408751 272.41092,46.149901 c -28.91264,-9.116407 -61.92786,-9.115678 -90.82184,0.002 -7.53373,2.37731 -25.55829,10.67317 -33.58908,15.45946 -10.72596,6.3926 -31.7674,25.71107 -38.617,35.45486 -1.58565,2.25564 -4.27713,6.080639 -5.98107,8.499999 -7.24569,10.28787 -15.04805,27.66669 -19.25979,42.89883 -3.78208,13.67821 -4.64295,21.0552 -4.60952,39.5 0.0388,21.43234 1.52937,30.40962 8.17714,49.25 l 2.55814,7.25001 h 157.86605 c 86.82633,0 157.86605,0.21596 157.86605,0.4799 0,0.26395 -1.84109,5.10145 -4.09131,10.75 -13.70562,34.40415 -36.17992,62.95908 -66.59871,84.6176 -12.91687,9.19696 -15.57133,10.71927 -31.30998,17.95598 -17.37936,7.99111 -30.22726,11.65524 -53.5,15.25781 -10.97244,1.69851 -32.46066,1.93533 -43.83919,0.48314 z m 39.85884,-40.06823 c 10.08982,-1.39532 27.57041,-5.69951 33.98035,-8.36687 7.81411,-3.25167 25.68966,-12.96337 31.52622,-17.12804 9.12689,-6.51248 11.93413,-8.9208 20.95112,-17.97396 l 7.47734,-7.50733 -56.72734,-0.25826 c -31.20004,-0.14204 -82.15897,-0.14204 -113.24207,0 l -56.51473,0.25826 5.80949,6 c 8.3638,8.63809 13.83562,13.39493 21.21997,18.44726 3.575,2.446 6.725,4.72618 7,5.06707 1.49804,1.85698 24.10121,12.37317 33.06631,15.3842 9.52274,3.19833 13.10063,4.01141 28.43369,6.46163 8.97172,1.43367 25.08449,1.26656 37.01965,-0.38396 z M 308.75,216.7152 247,216.4498 v -87.69237 c 0,-48.230799 0.36233,-87.264869 0.80517,-86.742369 1.36173,1.606665 5.13263,6.89319 26.71326,37.45 11.45885,16.225 24.04299,33.999999 27.96477,39.499999 10.89171,15.27483 63.35308,89.42407 67.74412,95.75 1.04988,1.5125 1.54073,2.641 1.09077,2.50777 C 370.86814,217.0896 342.7125,216.86117 308.75,216.7152 Z M 84.6518,213.62774 c 2.32756,-3.57323 18.81624,-26.94272 22.93055,-32.49959 1.69529,-2.2897 7.36213,-10.23809 12.59298,-17.66309 C 139.33716,136.2655 206.18231,41.952725 206.58501,41.548394 206.81325,41.319228 207,80.581731 207,128.79839 v 87.66667 H 144.9018 82.8036 Z"
     id="path1" />
</svg>
