<?xml version="1.0" encoding="UTF-8" standalone="no"?>
<!-- Created with Inkscape (http://www.inkscape.org/) -->

<svg
   version="1.1"
   id="svg1"
   width="284.17245"
   height="189.49025"
   viewBox="0 0 284.17245 189.49025"
   xmlns="http://www.w3.org/2000/svg"
   xmlns:svg="http://www.w3.org/2000/svg">
  <defs
     id="defs1" />
  <path
     d="M 47.75356,112.43184 V 69.040094 l 9.62806,0.391746 9.62805,0.391746 7.04507,10 c 3.87479,5.499997 7.45165,10.899997 7.94857,11.999997 1.04037,2.30298 6.02996,9.677567 7.21699,10.666667 0.44004,0.36667 1.04576,1.26667 1.34605,2 0.30028,0.73333 2.33588,4.18333 4.52355,7.66667 6.73953,10.73108 7.33033,9.25348 7.33033,-18.333337 V 69.15692 h 9.33333 9.33333 v 43.33333 43.33333 l -9.66666,-0.002 -9.66667,-0.002 -6,-9.37501 c -3.3,-5.15625 -6.9,-10.52336 -8,-11.92692 -1.1,-1.40355 -5.6,-8.26297 -10,-15.24316 -4.4,-6.98019 -8.75,-12.99356 -9.66667,-13.36304 -1.29836,-0.52333 -1.66666,4.91712 -1.66666,24.61971 v 25.29148 h -9.33334 -9.33333 z"
     style="fill:#e50111;fill-opacity:1"
     id="path1-0" />
  <path
     d="M 0.37678,116.49025 0.75356,43.490253 5.05181,35.090793 C 10.80412,23.849882 17.54907,15.864749 25.87278,10.441499 46.3769,-2.917793 72.31658,-3.503205 92.08689,8.947167 c 13.85048,8.722347 26.19989,27.803362 27.5834,42.618956 l 0.81168,8.69213 -13.37884,0.46106 -12.14377,0.006 -1.72595,-7.412628 C 91.09629,44.13417 85.77921,35.820196 75.42023,29.568413 71.0864,26.952893 68.21282,26.335847 60.08689,26.27588 48.32387,26.18907 42.00835,28.897698 34.43932,37.275704 c -8.73846,9.672431 -8.31608,6.364271 -8.75207,68.547846 l -0.39965,57 h 47.39965 47.39964 v 13.33337 13.33333 H 60.04345 0 Z m 128.3152,36.65366 c -0.3545,-0.92383 -0.48567,-20.27383 -0.29149,-43 l 0.35307,-41.320327 37.05884,-0.35453 37.05884,-0.35452 -0.39217,9.68786 -0.39218,9.68786 -27,0.36094 -27,0.36094 v 6.63906 6.639057 h 27.33334 27.33333 v 10 10 h -27.33333 -27.33334 v 7.33333 7.33334 h 27.33334 27.33333 v 9.33333 9.33333 h -36.70851 c -28.28847,0 -36.85636,-0.38527 -37.35307,-1.67967 z m 82.06158,-41.63223 V 68.156923 h 36.66667 36.66666 v 16.66666 16.666667 h -9.26365 -9.26365 l -0.40302,-6.999997 -0.40301,-7 -16.33333,-0.37437 -16.33334,-0.37437 v 24.748737 24.74874 l 16.33334,-0.37437 16.33333,-0.37437 0.0976,-6 0.0976,-6 9.61185,-0.39261 9.61186,-0.39261 -0.37616,15.72594 -0.37616,15.72595 -36.33334,0.35476 -36.33325,0.35476 z"
     style="fill:#0350a3;fill-opacity:1"
     id="path1-5" />
</svg>
