<?xml version="1.0" encoding="UTF-8" standalone="no"?>
<!-- Created with Inkscape (http://www.inkscape.org/) -->

<svg
   version="1.1"
   id="svg1"
   width="532.75195"
   height="373.25998"
   viewBox="0 0 532.75195 373.25998"
   xmlns="http://www.w3.org/2000/svg"
   xmlns:svg="http://www.w3.org/2000/svg">
  <defs
     id="defs1" />
  <path
     style="fill:#000000"
     d="m 323.26496,367.05754 c -4.34826,-6.31998 -3.99757,-8.49138 1.38034,-8.54687 2.8244,-0.0292 25.3547,-10.90702 25.3547,-12.24153 0,-0.61172 0.64557,-1.11222 1.43461,-1.11222 2.53044,0 16.73144,-11.69405 24.13187,-19.87179 l 7.17216,-7.92549 4.96401,4.28983 c 2.73021,2.35941 4.96402,4.95673 4.96402,5.77182 0,0.81509 -3.71378,4.76122 -8.25285,8.76917 l -8.25285,7.28719 9.64409,9.7595 9.64408,9.75951 -4.71898,4.71898 -4.71897,4.71898 -9.84529,-9.77958 c -8.43133,-8.37505 -10.29917,-9.63781 -13.0056,-8.79248 -1.73816,0.54291 -3.4603,1.4358 -3.82697,1.98421 -0.36666,0.54841 -7.67189,4.69072 -16.23383,9.20514 l -15.56717,8.20804 z m -280.229316,-14.90062 -0.368977,-19.66667 -12.65293,-0.3876 c -7.475492,-0.22899 -13.781976,0.21665 -15.412162,1.0891 -1.517578,0.81219 -5.42376,1.2866 -8.6804037,1.05427 L -1.1731538e-8,333.82358 V 307.15692 280.49025 L 21.7505,280.12349 l 21.750501,-0.36677 -0.29466,-10.96657 -0.29466,-10.96657 8.210826,-0.39695 8.210826,-0.39696 v 11.39696 11.39695 h 22 21.999997 v 26.66667 c 0,14.66667 -0.45,26.74827 -1,26.84801 -4.646347,0.84258 -13.826428,0.63884 -14.41903,-0.32001 -0.40609,-0.65707 -7.002935,-1.19467 -14.659656,-1.19467 H 59.333333 v 20 20 h -7.964356 -7.964355 z m 0.297689,-46.33334 v -11.33333 h -14 -14 v 11.33333 11.33334 h 14 14 z m 44,0 v -11.33333 h -14 -14 v 11.33333 11.33334 h 14 14 z m 209.333337,44.66667 c 0,-11.73333 -0.48849,-21.33333 -1.08553,-21.33333 -0.59704,0 -3.10855,2.7 -5.58114,6 -5.10321,6.81092 -6.07527,7.22499 -7.04279,3 -0.37785,-1.65 -1.45847,-4.89474 -2.40139,-7.21052 -1.61131,-3.95733 -1.45964,-4.50068 2.52235,-9.03591 4.29898,-4.89627 11.17019,-18.40034 12.76485,-25.08691 0.9667,-4.05348 0.88711,-4.09314 -8.50969,-4.23973 l -6,-0.0936 -0.40638,-6.33333 -0.40639,-6.33334 h 8.07305 8.07306 V 268.6329 c 0,-8.97445 0.41768,-11.35096 2.10905,-12 3.41411,-1.31012 9.66032,-0.92783 10.63607,0.65096 0.49637,0.80315 0.98178,6.05315 1.07869,11.66667 l 0.17619,10.20639 5.06959,0.41797 5.0696,0.41797 -0.40293,6.18628 c -0.3967,6.09063 -0.47509,6.18725 -5.0696,6.2487 l -4.66666,0.0624 -0.40146,8.50666 c -0.44037,9.33118 -1.06721,8.84773 7.77271,5.99458 1.45082,-0.46826 3.30754,1.89332 6.44509,8.19764 2.42394,4.87046 4.20688,8.97994 3.96208,9.13218 -0.2448,0.15225 -2.67931,1.92103 -5.41002,3.93065 l -4.96493,3.65384 -2.03507,-4.87061 C 314.91578,324.35636 314,321.63786 314,320.99408 c 0,-0.64377 -0.98928,-1.1705 -2.19841,-1.1705 -1.98696,0 -2.13271,2.34038 -1.51536,24.33334 0.37567,13.38333 0.41495,25.08333 0.0873,26 -0.36694,1.02656 -3.11347,1.66666 -7.1513,1.66666 h -6.55555 z m 180.66666,20.0433 c -12.25882,-1.09149 -20.49878,-3.4408 -28.3821,-8.09208 -6.10585,-3.60254 -7.24594,-3.37788 -13.78044,2.71545 -3.14571,2.93333 -6.39962,5.33333 -7.2309,5.33333 -0.83128,0 -3.38863,-2.06292 -5.68301,-4.58427 l -4.1716,-4.58428 4.31344,-2.66585 c 2.37239,-1.46622 5.77868,-4.22553 7.56953,-6.1318 3.17291,-3.37742 3.19664,-3.55837 0.9288,-7.08321 -4.05317,-6.29971 -8.90066,-17.83692 -9.7647,-23.24031 l -0.8339,-5.21493 5.85077,0.41899 c 5.6035,0.40128 5.90759,0.64441 7.19495,5.75233 1.70719,6.77368 4.14043,10.95984 5.55076,9.54951 0.60221,-0.60221 1.31074,-5.84721 1.57451,-11.65555 l 0.47959,-10.56063 H 431.47451 422 v -4.59982 c 0,-2.85384 1.45855,-6.77614 3.84257,-10.33334 5.04056,-7.52104 9.49076,-15.95208 9.49076,-17.98056 0,-1.03677 -2.75976,-1.76381 -7.66666,-2.01974 L 420,275.15692 v -5.33334 -5.33333 l 16.16744,-0.37304 c 15.55931,-0.35901 16.19556,-0.26553 16.91486,2.48508 0.49484,1.8923 -1.47664,7.13517 -5.83411,15.51494 -3.61984,6.96125 -6.58152,13.49297 -6.58152,14.51492 0,1.34718 1.88134,1.8581 6.84201,1.8581 h 6.84201 l -0.73221,9.66667 c -0.40271,5.31666 -1.44586,16.42777 -2.31812,24.69134 -1.25381,11.87832 -1.24001,15.44147 0.0659,17.01499 0.9085,1.09467 5.92275,3.33357 11.14278,4.97532 8.48148,2.66752 12.25641,2.98342 35.49097,2.97002 14.3,-0.008 27.96918,-0.44709 30.37597,-0.97519 l 4.37596,-0.9602 -0.88992,6.97519 c -0.48946,3.83636 -1.08132,7.19787 -1.31524,7.47003 -0.91138,1.06033 -41.86143,1.22588 -53.21344,0.21513 z M 234,369.00032 c 0,-1.07817 -12.16014,-1.34525 -44,-0.96642 l -44,0.52352 v -53.03358 -53.03359 h 51.33333 51.33334 v 54 54 h -7.33334 c -4.51384,0 -7.33333,-0.57284 -7.33333,-1.48993 z m 0,-53.8434 v -40.66667 h -37.33333 -37.33334 v 40.66667 40.66666 H 196.66667 234 Z m -72,26.66666 v -6 h 14.06362 14.06363 l -0.39696,-8.33333 -0.39696,-8.33333 -10.66666,-0.0765 L 168,319.00402 v -5.92355 -5.92355 l 11,-0.38726 11,-0.38726 v -5.89779 -5.89779 l -12.98455,-0.38162 c -14.07042,-0.41353 -14.98571,-1.00616 -13.10812,-8.48708 l 0.81014,-3.22787 H 197.35874 230 v 6 6 h -12.66667 -12.66666 v 5.94608 5.94607 l 11,0.38726 11,0.38726 v 6 c 0,5.51111 -0.27161,6 -3.33334,6 -4.1477,0 -3.82054,2.39128 0.92943,6.79341 2.70576,2.50761 3.16758,3.64292 1.96929,4.8412 -2.57431,2.57431 -1.77922,5.03205 1.6279,5.03205 2.75867,0 3.26341,0.73532 3.70851,5.40261 0.28337,2.97143 0.24639,5.67143 -0.0822,6 -0.32856,0.32857 -16.09739,0.59739 -35.04184,0.59739 H 162 Z m 54.07438,-6.12035 c 0.49414,-0.79953 -1.25855,-3.66264 -3.89485,-6.36246 -4.61218,-4.7233 -4.69353,-4.97107 -2.15308,-6.55761 4.01271,-2.50598 3.17236,-4.51317 -1.69312,-4.04405 -4.29951,0.41455 -4.3365,0.47928 -4.73946,8.29413 -0.27837,5.39861 0.14107,8.22338 1.33334,8.97958 2.52465,1.60127 10.09616,1.39099 11.14717,-0.30959 z m 267.00611,13.89142 -0.41382,-4.89561 -13.33334,-0.10439 -13.33333,-0.1044 -0.41,-5.66667 -0.40999,-5.66666 h 14.16939 c 13.93155,0 14.16225,-0.0504 13.74333,-3 -0.40971,-2.88487 -0.87381,-2.98513 -12.09273,-2.61245 l -11.66667,0.38755 v -6.05422 c 0,-4.83036 0.47169,-6.07898 2.33334,-6.17673 1.28333,-0.0674 6.53333,-0.21738 11.66666,-0.33333 8.37417,-0.18916 9.33334,-0.48487 9.33334,-2.87749 0,-2.43553 -1.01767,-2.70015 -11.74074,-3.05299 l -11.74075,-0.38633 0.40741,-5.61367 L 460,297.82358 h 11.33333 c 10.44445,0 11.33334,-0.20915 11.33334,-2.66666 0,-2.46953 -1.01582,-2.69482 -13.74101,-3.04747 l -13.74102,-0.3808 0.40768,-5.6192 0.40768,-5.6192 13.66667,-0.37998 c 12.56776,-0.34942 13.66666,-0.59064 13.66666,-3 0,-2.4104 -0.9601,-2.62002 -12,-2.62002 h -12 v -5.78836 -5.78837 L 471,263.03522 c 11.12625,0.11606 11.6864,-0.0173 12.09273,-2.8783 0.37512,-2.64123 1.20116,-3 6.90727,-3 5.70611,0 6.53215,0.35877 6.90727,3 0.40858,2.87688 0.95964,3 13.4279,3 h 13.00184 l -0.002,8.24477 c -0.002,8.00365 0.1054,8.25711 3.66483,8.66666 3.28096,0.37752 3.7098,1.018 4.07666,6.08857 0.39942,5.52048 0.30484,5.66666 -3.66666,5.66666 h -4.07667 v 8.61839 8.61838 l -13,0.38162 c -11.9839,0.35179 -13,0.59004 -13,3.04828 0,2.45824 1.0161,2.69649 13,3.04828 l 13,0.38162 v 6.1456 6.1456 L 510,327.47664 l -13.33333,-0.7347 v 3.20749 3.20749 h 16 16 v 6 6 h -16 -16 v 4.66666 4.66667 h -6.58618 -6.58618 z M 510,295.15692 c 0,-3.11111 -0.44444,-3.33334 -6.66667,-3.33334 -6.22222,0 -6.66666,0.22223 -6.66666,3.33334 0,3.11111 0.44444,3.33333 6.66666,3.33333 6.22223,0 6.66667,-0.22222 6.66667,-3.33333 z m 0,-18 c 0,-2.31111 -0.88889,-2.66667 -6.66667,-2.66667 -5.77777,0 -6.66666,0.35556 -6.66666,2.66667 0,2.31111 0.88889,2.66666 6.66666,2.66666 5.77778,0 6.66667,-0.35555 6.66667,-2.66666 z m -184.74619,66.54069 c -1.89547,-3.00262 -3.253,-5.5971 -3.01673,-5.76551 0.23627,-0.16842 3.72959,-1.68328 7.76292,-3.36636 8.8198,-3.68045 20,-11.58918 20,-14.14775 0,-1.41668 -2.07331,-1.77733 -8.92859,-1.55311 l -8.92858,0.29204 -1.50879,-5.27527 -1.50878,-5.27528 9.10403,-9.10404 c 5.00723,-5.00722 9.10404,-9.95998 9.10404,-11.00615 0,-1.47298 -2.63206,-1.98902 -11.66666,-2.28735 L 324,285.82358 v -6 -6 l 13.66667,-0.37997 c 14.91389,-0.41466 15.50208,-0.82211 11,-7.62003 -1.45701,-2.2 -2.65305,-4.4378 -2.65788,-4.9729 -0.008,-0.85123 9.62028,-6.36043 11.11559,-6.36043 0.31017,0 2.69994,3.58569 5.31058,7.9682 3.41033,5.72493 4.29878,8.25868 3.15584,9 -0.87494,0.56749 5.0092,1.3318 13.07587,1.69847 l 14.66666,0.66666 v 6 6 l -15.74287,0.37631 c -14.31259,0.34212 -15.67539,0.58895 -15.00003,2.71682 0.51232,1.61419 -1.32596,4.37821 -5.92379,8.9069 -8.67893,8.54842 -8.592,9.99997 0.59884,9.99997 6.85594,0 7.47184,-0.28184 10.92644,-5 2.01353,-2.75 4.07775,-5.50369 4.58716,-6.11931 0.50941,-0.61561 2.34251,0.11024 4.07356,1.61301 1.73105,1.50278 4.27036,3.55179 5.64291,4.55337 2.3266,1.69777 1.60445,2.72107 -10.66667,15.11498 -11.91553,12.03476 -17.2514,16.46921 -28.23162,23.46232 -3.66586,2.33472 -13.77278,7.70897 -14.49764,7.70897 -0.21973,0 -1.95034,-2.45669 -3.84581,-5.45931 z"
     id="path1" />
  <path
     d="M 175,112.43184 V 69.040094 l 9.62806,0.391746 9.62805,0.391746 7.04507,10 c 3.87479,5.499997 7.45165,10.899997 7.94857,11.999997 1.04037,2.30298 6.02996,9.677567 7.21699,10.666667 0.44004,0.36667 1.04576,1.26667 1.34605,2 0.30028,0.73333 2.33588,4.18333 4.52355,7.66667 6.73953,10.73108 7.33033,9.25348 7.33033,-18.333337 V 69.15692 H 239 h 9.33333 v 43.33333 43.33333 l -9.66666,-0.002 -9.66667,-0.002 -6,-9.37501 c -3.3,-5.15625 -6.9,-10.52336 -8,-11.92692 -1.1,-1.40355 -5.6,-8.26297 -10,-15.24316 -4.4,-6.98019 -8.75,-12.99356 -9.66667,-13.36304 -1.29836,-0.52333 -1.66666,4.91712 -1.66666,24.61971 v 25.29148 H 184.33333 175 Z"
     style="fill:#e50111;fill-opacity:1"
     id="path1-0" />
  <path
     d="M 127.62322,116.49025 128,43.490253 l 4.29825,-8.39946 c 5.75231,-11.240911 12.49726,-19.226044 20.82097,-24.649294 20.50412,-13.3592919 46.4438,-13.9447039 66.21411,-1.4943319 13.85048,8.7223469 26.19989,27.8033619 27.5834,42.6189559 l 0.81168,8.69213 -13.37884,0.46106 -12.14377,0.006 -1.72595,-7.412628 c -2.13712,-9.178515 -7.4542,-17.492489 -17.81318,-23.744272 -4.33383,-2.61552 -7.20741,-3.232566 -15.33334,-3.292533 -11.76302,-0.08681 -18.07854,2.621818 -25.64757,10.999824 -8.73846,9.672431 -8.31608,6.364271 -8.75207,68.547846 l -0.39965,57 h 47.39965 47.39964 v 13.33337 13.33333 h -60.04344 -60.04345 z m 128.3152,36.65366 c -0.3545,-0.92383 -0.48567,-20.27383 -0.29149,-43 L 256,68.823583 l 37.05884,-0.35453 37.05884,-0.35452 -0.39217,9.68786 -0.39218,9.68786 -27,0.36094 -27,0.36094 v 6.63906 6.639057 H 302.66667 330 v 10 10 h -27.33333 -27.33334 v 7.33333 7.33334 H 302.66667 330 v 9.33333 9.33333 h -36.70851 c -28.28847,0 -36.85636,-0.38527 -37.35307,-1.67967 z M 338,111.51168 V 68.156923 h 36.66667 36.66666 v 16.66666 16.666667 h -9.26365 -9.26365 l -0.40302,-6.999997 -0.40301,-7 -16.33333,-0.37437 -16.33334,-0.37437 v 24.748737 24.74874 l 16.33334,-0.37437 16.33333,-0.37437 0.0976,-6 0.0976,-6 9.61185,-0.39261 9.61186,-0.39261 -0.37616,15.72594 -0.37616,15.72595 -36.33334,0.35476 L 338,154.86644 Z"
     style="fill:#0350a3;fill-opacity:1"
     id="path1-5" />
</svg>
