<?xml version="1.0" encoding="UTF-8" standalone="no"?>
<!-- Created with Inkscape (http://www.inkscape.org/) -->

<svg
   version="1.1"
   id="svg1"
   width="500"
   height="500"
   viewBox="0 0 500 500"
   xmlns="http://www.w3.org/2000/svg"
   xmlns:svg="http://www.w3.org/2000/svg">
  <defs
     id="defs1" />
  <path
     style="fill:#f7644a"
     d="m 182.41197,493.75 c 0.36866,-3.4375 1.36767,-8.725 2.22003,-11.75 0.85235,-3.025 3.4128,-9.1 5.68988,-13.5 2.94426,-5.68916 6.31206,-10.16642 11.65914,-15.5 4.13544,-4.125 10.19198,-9.06925 13.45899,-10.98722 3.267,-1.91797 9.117,-4.55759 13,-5.86582 4.97931,-1.67759 10.23518,-2.52997 17.83375,-2.89221 8.22714,-0.39221 12.48185,-0.10132 18,1.23064 3.97443,0.95933 10.52274,3.36784 14.55179,5.35223 4.02905,1.9844 10.17845,5.9612 13.66533,8.83735 3.48689,2.87614 8.40363,8.12156 10.92611,11.65649 2.52247,3.53494 5.68885,8.92017 7.03639,11.9672 1.34754,3.04703 3.09962,8.16384 3.89351,11.37069 0.7939,3.20686 1.69442,8.19315 2.00117,11.08065 l 0.55771,5.25 H 306.45289 296 v -3.39466 c 0,-1.86707 -0.89336,-6.28703 -1.98524,-9.82213 -1.09188,-3.53511 -3.75799,-9.17026 -5.92469,-12.52255 -2.16669,-3.3523 -6.33583,-7.99942 -9.26475,-10.32695 -2.92893,-2.32752 -7.69337,-5.28656 -10.58766,-6.57563 -2.89428,-1.28908 -8.32414,-2.81883 -12.06636,-3.39945 -4.83448,-0.7501 -8.81109,-0.73987 -13.73766,0.0353 -3.8135,0.60007 -9.78002,2.41411 -13.25892,4.03122 -4.10707,1.90909 -8.52035,5.13807 -12.58455,9.2075 -4.15197,4.15732 -7.36809,8.59415 -9.55282,13.1787 -2.23463,4.68927 -3.45715,8.94937 -3.80237,13.25 L 202.72618,500 H 192.23392 181.74167 Z M 422,486.27303 c -2.475,-0.20156 -13.23052,-0.90795 -23.90115,-1.56975 L 378.69771,483.5 l -2.74094,-11 c -1.50751,-6.05 -3.96506,-14.375 -5.46121,-18.5 -1.49616,-4.125 -5.14472,-11.84236 -8.10792,-17.14969 C 359.42444,431.54297 357,426.7836 357,426.27391 c 0,-0.50969 6.06756,-8.09233 13.48346,-16.85031 7.4159,-8.75798 13.4909,-16.60664 13.5,-17.44147 0.009,-0.83482 -4.60364,-6.12232 -10.25053,-11.75 C 368.08603,374.60446 362.87842,370 362.16046,370 c -0.71797,0 -8.21518,5.85 -16.66046,13 -8.44528,7.15 -16.04864,13 -16.89635,13 -0.84771,0 -4.59282,-1.96681 -8.32247,-4.37068 -3.72965,-2.40388 -9.11695,-5.54791 -11.97177,-6.98674 -2.85482,-1.43884 -8.47982,-3.90656 -12.5,-5.48383 -4.02018,-1.57727 -10.45941,-3.67713 -14.30941,-4.66636 -3.85,-0.98922 -7.50203,-2.29219 -8.11563,-2.89549 -0.6237,-0.61324 -1.86202,-10.13611 -2.80838,-21.5969 -1.35452,-16.40384 -2.019,-20.74977 -3.3255,-21.75 -1.1236,-0.8602 -5.86092,-1.24522 -15.19162,-1.23469 -7.45738,0.008 -14.10617,0.36309 -14.77508,0.78814 -0.73323,0.46592 -1.60823,5.32459 -2.20336,12.23469 -0.54293,6.30402 -1.27959,15.60782 -1.63704,20.67511 -0.35744,5.06728 -1.16593,9.61526 -1.79664,10.1066 -0.63071,0.49135 -4.06097,1.45054 -7.6228,2.13155 -3.56182,0.681 -10.53682,2.58311 -15.5,4.2269 -4.96317,1.6438 -14.53681,5.87179 -21.27476,9.39555 l -12.2508,6.40683 -9.7492,-8.20168 C 159.88714,380.26808 152.45095,373.97242 148.72432,370.78866 144.9977,367.6049 141.54137,365 141.04359,365 c -0.49778,0 -5.66122,4.70458 -11.47432,10.45461 C 123.75617,381.20465 119,386.51631 119,387.2583 c 0,0.74199 4.3875,6.50679 9.75,12.81067 5.3625,6.30387 11.47399,13.57059 13.58109,16.14827 l 3.8311,4.68667 -2.93863,4.29805 c -1.61625,2.36392 -4.8065,7.60746 -7.08945,11.65231 -2.28295,4.04485 -5.53364,10.79485 -7.22376,15 -1.69013,4.20515 -4.09231,11.47073 -5.33819,16.14573 l -2.26523,8.5 -6.40347,0.64965 c -3.5219,0.35731 -17.789364,1.42141 -31.705469,2.36466 -13.916104,0.94325 -25.616104,1.40215 -26,1.01977 C 56.814096,480.1517 56.275,476.00573 56,471.32082 c -0.275,-4.68491 -0.236599,-8.94281 0.08534,-9.462 0.321934,-0.51919 11.121934,-1.67025 24,-2.5579 12.878066,-0.88765 23.92217,-2.00294 24.54246,-2.47843 0.62029,-0.47549 2.35414,-4.34257 3.853,-8.59351 1.49886,-4.25094 4.70386,-11.57827 7.1222,-16.28296 2.41836,-4.70469 4.39701,-9.07397 4.39701,-9.70951 0,-0.63554 -6.52501,-8.8114 -14.5,-18.16859 C 97.525,394.71073 91,386.46756 91,385.74978 91,385.03199 101.70901,373.76965 114.7978,360.72236 127.88659,347.67506 139.06747,337 139.6442,337 c 0.57673,0 6.40522,4.53402 12.9522,10.0756 6.54698,5.54157 14.73297,12.49902 18.19109,15.46099 5.26481,4.50946 6.64735,5.24157 8.5,4.50113 1.21688,-0.48636 4.68751,-2.11389 7.71251,-3.61674 3.025,-1.50286 10,-4.20036 15.5,-5.99445 8.16727,-2.66415 10.12877,-3.68943 10.70264,-5.59426 0.38645,-1.28275 1.43202,-11.55727 2.32348,-22.83227 0.89147,-11.275 1.95379,-20.84351 2.36071,-21.26335 0.40693,-0.41984 16.23636,-0.64484 35.17652,-0.5 L 287.5,307.5 l 1.80872,22 c 0.99479,12.1 2.0066,22.97558 2.24846,24.16796 0.3377,1.6649 2.00637,2.68409 7.19128,4.39229 3.71335,1.22339 11.6276,4.65841 17.58723,7.63338 9.24601,4.61548 11.07986,5.21858 12.5,4.11088 0.91537,-0.71399 8.74173,-7.26209 17.39192,-14.55133 C 354.87779,347.96393 362.53131,342 363.23542,342 c 0.70411,0 12.02922,10.75601 25.16689,23.90225 15.15136,15.16123 23.68972,24.41554 23.34808,25.30584 -0.29624,0.77198 -4.29876,5.84861 -8.8945,11.2814 -4.59574,5.43279 -11.16839,13.23323 -14.60589,17.33432 -3.4375,4.10109 -6.25,8.08128 -6.25,8.84487 0,0.7636 1.42392,4.18802 3.16427,7.60984 1.74035,3.42181 4.60778,10.64141 6.37207,16.04355 1.76429,5.40214 3.60287,10.19763 4.08573,10.65664 0.48286,0.45902 11.00065,1.59315 23.37286,2.52029 12.37222,0.92715 22.83472,1.89572 23.25,2.15238 0.41529,0.25666 0.75116,2.3526 0.74638,4.65764 -0.005,2.30504 -0.29246,6.55348 -0.63929,9.44098 l -0.6306,5.25 -7.61071,-0.18025 C 429.92482,486.72062 424.475,486.47459 422,486.27303 Z M 56.701526,431.36819 C 56.315687,430.98235 56,333.76667 56,215.33333 V 0 H 210.26663 364.53325 L 404.76943,40.281523 445.00561,80.563046 444.7528,256.03152 444.5,431.5 h -10 -10 L 424,268.5 423.5,105.5 382,105 340.5,104.5 340,63 339.5,21.5 H 208 76.5 l -0.5,205 -0.5,205 -9.048474,0.28486 c -4.976661,0.15667 -9.364161,-0.0308 -9.75,-0.41667 z M 418,83.756581 c 0,-0.683881 -12.48449,-13.733881 -27.7433,-29 C 374.99788,39.490461 361.94788,27 361.2567,27 360.2779,27 360,33.147655 360,54.8 c 0,20.288889 0.32422,28.124221 1.2,29 0.87578,0.875779 8.71111,1.2 29,1.2 21.49487,0 27.8,-0.282012 27.8,-1.243419 z M 210,252.0774 203.5,251.5 v -9.5 -9.5 h 9.5 9.5 l 0.28973,9.41643 c 0.21104,6.85917 -0.0605,9.63865 -1,10.23469 -0.70935,0.45004 -2.18973,0.74748 -3.28973,0.66097 -1.1,-0.0865 -4.925,-0.41712 -8.5,-0.73469 z M 119.21379,242.25 119.5,232.5 h 9.5 9.5 l 0.28621,9.75 0.28621,9.75 H 129 118.92758 Z m 42,0 0.28621,-9.75 h 9.5 9.5 l 0.28621,9.75 0.28621,9.75 H 171 160.92758 Z m -41.78831,-33.58359 c -0.28146,-0.73347 -0.37983,-5.12097 -0.21861,-9.75 L 119.5,190.5 h 120 120 l 0.28621,9.75 0.28621,9.75 H 240.00483 c -99.14537,0 -120.15677,-0.23238 -120.57935,-1.33359 z m 0.002,-41.99595 c -0.28232,-0.7357 -0.38139,-5.12502 -0.22017,-9.75405 L 119.5,148.5 h 120 120 v 9.5 9.5 l -119.77983,0.25405 c -99.26268,0.21054 -119.86775,0.0249 -120.29313,-1.08359 z M 121.21379,84.25 121.5,74.5 h 50.5 50.5 l 0.28621,9.75 0.28621,9.75 H 172 120.92758 Z"
     id="path1" />
</svg>
