<?xml version="1.0" encoding="UTF-8" standalone="no"?>
<!-- Created with Inkscape (http://www.inkscape.org/) -->

<svg
   version="1.1"
   id="svg1"
   width="500"
   height="500"
   viewBox="0 0 500 500"
   xmlns="http://www.w3.org/2000/svg"
   xmlns:svg="http://www.w3.org/2000/svg">
  <defs
     id="defs1" />
  <path
     style="fill:#f6664e"
     d="M 137.17431,497.68555 C 135.09058,495.46752 135,494.53264 135,475.24457 c 0,-15.00632 -0.318,-20.33081 -1.25,-20.9295 -2.87426,-1.84633 -14.16023,-6.23801 -14.68283,-5.7135 C 98.939185,468.80298 89.769101,477 87.297557,477 85.059471,477 80.718564,473.16562 63.776471,456.22353 46.30665,438.75371 43,434.98614 43,432.55102 c 0,-2.38441 2.473296,-5.39059 14,-17.01639 7.7,-7.76619 13.997916,-14.77607 13.995369,-15.57749 C 70.990675,398.48005 67.135136,388.54347 65.676797,386.25 65.084303,385.31821 59.794102,385 44.895528,385 25.008694,385 24.896859,384.98777 22.454545,382.54545 L 20,380.09091 v -28.4106 c 0,-27.22804 0.08627,-28.52027 2.07258,-31.04545 L 24.14516,318 h 20.368403 c 15.204146,0 20.569927,-0.31693 21.163234,-1.25 1.458339,-2.29347 5.313878,-12.23005 5.318572,-13.70714 C 70.997916,302.24144 64.7,295.23156 57,287.46537 45.395124,275.76073 43,272.8435 43,270.41358 43,267.9319 46.184965,264.29988 63.758725,246.74107 81.274654,229.24004 84.973005,226 87.433688,226 c 2.415508,0 5.425316,2.48906 17.529052,14.49623 l 14.61281,14.49624 6.46222,-2.75229 c 3.55423,-1.51376 7.02473,-3.11363 7.71223,-3.55525 0.93281,-0.59921 1.25,-5.97156 1.25,-21.17137 v -20.3684 l 2.63486,-2.07258 C 140.16004,203.08627 141.45227,203 168.68031,203 h 28.4106 l 2.45454,2.45455 c 2.44232,2.44231 2.45455,2.55414 2.45455,22.44098 0,14.89424 0.31848,20.19102 1.25,20.7894 0.6875,0.44162 4.16731,2.04542 7.73292,3.56398 l 6.48292,2.76102 14.52919,-14.50497 C 244.27804,228.24243 246.99099,226 249.54353,226 c 2.59842,0 5.90752,2.90016 23.73789,20.80438 C 290.66076,264.25568 294,268.07453 294,270.49869 c 0,2.38089 -2.51003,5.41431 -14.25,17.22145 -9.51342,9.56785 -14.17519,14.96304 -14.02495,16.23144 0.12378,1.04496 1.47378,4.52083 3,7.72417 L 271.5,317.5 l 20.69324,0.27012 20.69325,0.27011 2.09916,2.66865 c 2.03875,2.59186 2.09074,3.5003 1.80675,31.56945 l -0.2924,28.90081 -2.36078,1.91043 C 311.99334,384.82609 309.97903,385 292.01166,385 c -14.6038,0 -20.03268,0.32649 -20.78481,1.25 -0.55992,0.6875 -2.21819,4.11586 -3.68503,7.61857 l -2.667,6.36858 14.56259,14.76652 C 291.29896,427.03133 294,430.29666 294,432.60862 c 0,2.36017 -3.50077,6.33921 -20.77647,23.61491 C 255.7456,473.70145 251.98688,477 249.54857,477 c -2.39281,0 -5.45063,-2.53177 -17.52672,-14.51153 l -14.62823,-14.51153 -7.69681,3.13481 -7.69681,3.1348 v 20.42218 c 0,20.34947 -0.009,20.43092 -2.45455,22.87672 L 197.09091,500 h -28.87114 -28.87114 z m 50.2439,-11.29254 C 188.78492,485.86856 189,483.16417 189,466.5038 c 0,-22.25932 -0.0234,-22.19418 9,-25.04557 3.025,-0.9559 8.52627,-3.25005 12.22504,-5.09811 C 213.92381,434.51205 217.888,433 219.03435,433 c 1.34537,0 7.05329,4.96128 16.10073,13.99463 11.36543,11.34773 14.33312,13.81594 15.69069,13.04986 C 253.71505,458.41406 277,434.3016 277,432.94008 c 0,-0.71282 -6.075,-7.46826 -13.5,-15.01208 -7.425,-7.54382 -13.5,-14.51274 -13.5,-15.48648 0,-0.97374 1.50716,-4.95893 3.34925,-8.85598 1.84209,-3.89705 4.13624,-9.56054 5.09812,-12.58554 2.8602,-8.99508 2.87357,-9 24.46341,-9 13.20273,0 19.0415,-0.35228 19.88922,-1.2 1.26652,-1.26652 1.79142,-35.09521 0.59301,-38.21821 C 302.86856,331.21508 300.16417,331 283.5038,331 c -22.75313,0 -21.85122,0.39828 -26.04183,-11.5 -1.54969,-4.4 -3.8626,-9.97952 -5.1398,-12.39894 C 251.04498,304.68164 250,301.7927 250,300.68118 c 0,-1.25532 5.11441,-7.18247 13.5,-15.6453 7.425,-7.49339 13.5,-14.30091 13.5,-15.12782 0,-0.82691 -6.04927,-7.49347 -13.44281,-14.81458 l -13.44282,-13.31111 -2.80718,2.04428 c -1.54396,1.12436 -7.87481,7.21962 -14.06856,13.54504 -6.19376,6.32541 -12.13066,11.77666 -13.19313,12.11387 -1.11065,0.35251 -3.74913,-0.31404 -6.20736,-1.56814 -2.35159,-1.19969 -8.29641,-3.67612 -13.21072,-5.50318 -4.91431,-1.82706 -9.42838,-3.81399 -10.03126,-4.4154 -0.687,-0.68531 -1.28279,-8.63445 -1.59616,-21.29615 L 188.5,216.5 h -20 -20 l -0.5,20.20269 c -0.28368,11.46236 -0.93263,20.61736 -1.5,21.16119 -0.55,0.52717 -5.09559,2.53018 -10.10131,4.45113 -5.00572,1.92094 -11.01738,4.47014 -13.35926,5.66487 -3.53498,1.80342 -4.7158,1.9826 -6.95447,1.05531 -1.48308,-0.61431 -8.28967,-6.72354 -15.12573,-13.57606 C 94.123159,248.60661 87.842007,243 87.001112,243 c -0.840894,0 -7.56347,6.04702 -14.939057,13.43782 -12.196786,12.22194 -13.281308,13.59724 -11.986107,15.19973 0.783229,0.96905 6.52609,6.72084 12.761915,12.78175 6.235825,6.06091 12.013172,12.32574 12.838549,13.92184 1.429195,2.76376 1.310371,3.31305 -2.494305,11.53043 -2.197244,4.74564 -4.477887,10.44233 -5.068094,12.65933 -2.169138,8.14792 -1.482584,7.90846 -24.281357,8.4691 L 33.5,331.5 33.227492,350.37042 c -0.188773,13.07202 0.07931,19.29432 0.872445,20.25 0.89857,1.08271 5.166077,1.37958 19.831378,1.37958 13.404056,0 19.152017,0.35336 20.333459,1.25 0.905869,0.6875 2.848088,4.625 4.316042,8.75 1.467955,4.125 3.983918,10.1165 5.591028,13.31445 1.776844,3.5357 2.680727,6.5747 2.306342,7.75428 -0.338621,1.0669 -6.639708,8.07991 -14.002415,15.58446 -10.428682,10.6296 -13.193214,13.99844 -12.510936,15.24573 0.481692,0.88059 6.771437,7.4213 13.97721,14.53491 l 13.101406,12.93383 14.305769,-14.18383 C 111.03373,437.58187 116.36485,433 117.85246,433 c 1.20861,0 5.22373,1.51205 8.9225,3.36012 3.69877,1.84806 9.14169,4.15221 12.09538,5.12033 9.27522,3.04011 9.12966,2.64254 9.12966,24.93622 0,14.59766 0.31024,19.54185 1.25,19.92105 1.8036,0.72777 36.2856,0.77772 38.16821,0.0553 z M 152.36204,413.08467 C 130.83615,407.24197 114.94899,392.02215 107.38828,370 c -1.50207,-4.37509 -1.87618,-8.26114 -1.82911,-19 0.0525,-11.98489 0.34688,-14.25661 2.62281,-20.24155 6.12971,-16.1191 17.39921,-29.00955 31.31802,-35.82266 10.53947,-5.15896 17.96878,-6.93579 29,-6.93579 17.75153,0 31.40674,5.70381 44.0659,18.40642 12.4392,12.48188 18.26003,25.02015 19.18212,41.31888 0.67954,12.0115 -0.84339,19.5192 -6.3156,31.1345 -7.28247,15.45777 -21.80845,28.27875 -37.75029,33.31935 -9.34326,2.95421 -26.18175,3.38591 -35.32009,0.90552 z m 32.77067,-13.83541 c 35.03285,-12.5351 45.16696,-57.11025 18.94323,-83.32226 -9.97351,-9.96906 -21.72833,-14.89172 -35.61584,-14.91513 -14.13916,-0.0238 -25.44705,4.71982 -35.46735,14.87856 C 122.65968,326.36625 118,337.32815 118,351.16088 c 0,14.7874 4.52756,25.67598 14.90217,35.83912 7.27031,7.1221 13.91166,11.15436 22.20246,13.48009 7.39727,2.07508 22.52135,1.45515 30.02808,-1.23083 z M 380,364 c -1.72789,-1.72789 -2,-3.33333 -2,-11.8 0,-14.79302 -1.87451,-15.56861 -12.56771,-5.2 -10.10274,9.79608 -10.03027,9.81018 -24.63637,-4.79592 -14.62371,-14.62371 -14.60418,-14.52107 -4.70674,-24.72834 4.59536,-4.73922 6.96607,-7.95032 6.73923,-9.12821 -0.42257,-2.19424 -5.2018,-3.20722 -15.52171,-3.2899 C 317.08876,304.97577 317,304.79682 317,284.27749 317,263.58598 316.71824,264 330.8,264 c 14.79302,0 15.56861,-1.87451 5.2,-12.56771 -9.76605,-10.07177 -9.78545,-9.97233 4.79944,-24.59903 C 350.04341,217.56279 353.1831,215 355.29643,215 c 1.97132,0 4.68144,1.88451 10.06672,7 7.30248,6.93664 10.8364,8.52831 12.02986,5.41821 0.33385,-0.86998 0.61388,-5.70748 0.6223,-10.75 0.0164,-9.80668 0.28989,-10.73991 3.66895,-12.51851 2.94677,-1.55105 30.68471,-1.55105 33.63148,0 3.37906,1.7786 3.65257,2.71183 3.66895,12.51851 0.008,5.04252 0.28845,9.88002 0.6223,10.75 1.21327,3.16175 4.77715,1.54731 11.96072,-5.41821 3.97052,-3.85 8.05459,-6.99703 9.07571,-6.99341 3.61793,0.0128 8.85761,4.58738 22.46548,19.61366 2.69011,2.97051 4.8911,6.34412 4.8911,7.49692 0,1.24313 -2.88143,5.06762 -7.08139,9.39906 -5.36711,5.53512 -7.00117,7.86963 -6.75,9.64342 0.31904,2.25311 0.73555,2.35899 11.17338,2.84035 C 480.29888,264.68977 480,264.25932 480,285.11078 480,305.20657 480.1357,305 466.93426,305 c -14.68069,0 -16.23592,2.33249 -7.35722,11.03416 6.41425,6.28636 8.815,10.26768 8.04396,13.33977 -0.29797,1.18719 -5.66549,7.21372 -11.92783,13.3923 C 441.4471,356.82174 441.27616,356.85165 431.5,347 421.10117,336.52088 419,337.39496 419,352.2 c 0,14.10055 0.44647,13.8 -20.5,13.8 -15.16667,0 -16.66162,-0.16162 -18.5,-2 z m 26,-20.84024 c 0.46594,-8.70392 0.69115,-9.50441 3.30576,-11.75 1.54317,-1.32537 3.4736,-2.40976 4.28984,-2.40976 0.81624,0 3.24822,-0.9 5.4044,-2 2.15618,-1.1 4.85606,-2 5.99974,-2 1.18675,0 5.10657,2.84307 9.13091,6.62271 l 7.05149,6.62271 4.90893,-4.83512 C 448.79098,330.75099 451,328.14649 451,327.62252 c 0,-0.52396 -2.7,-3.76443 -6,-7.20104 -3.71719,-3.87106 -6,-7.1075 -6,-8.50647 0,-3.22083 4.83008,-15.04563 7.10809,-17.40171 1.5539,-1.60716 3.6852,-2.08475 11.15638,-2.5 L 466.5,291.5 v -7 -7 l -9.84194,-0.5 c -8.81994,-0.44808 -10.04007,-0.74515 -11.75,-2.86078 C 443.85863,272.84078 443,271.13536 443,270.34938 c 0,-0.78598 -0.9,-3.1932 -2,-5.34938 -3.35782,-6.58187 -2.75655,-8.98696 4,-16 3.3,-3.42527 6,-6.75783 6,-7.40568 C 451,240.24651 442.87503,232 441.54708,232 c -0.48247,0 -3.68899,2.7 -7.1256,6 -7.52463,7.22553 -9.05215,7.42167 -19.76797,2.53831 -8.59558,-3.91713 -8.51552,-3.7729 -8.90166,-16.03831 l -0.25185,-8 h -7 -7 l -0.58759,9 c -0.32318,4.95 -0.90605,9.71513 -1.29528,10.58918 -0.90907,2.04141 -14.23854,7.91653 -17.95368,7.91329 -2.10417,-0.002 -4.44985,-1.55164 -9.08493,-6.00247 -3.43661,-3.3 -6.64313,-6 -7.1256,-6 -1.54445,0 -9.45292,8.35739 -9.45292,9.98951 0,0.8652 2.7,4.24492 6,7.51049 3.42429,3.38856 5.99853,6.8094 5.99657,7.9687 -0.004,2.30984 -5.5943,16.51138 -7.09798,18.0313 -0.54413,0.55 -5.35641,1.225 -10.69396,1.5 l -9.70463,0.5 -0.29183,7.15204 -0.29183,7.15205 9.50774,0.34795 c 11.00386,0.40271 11.55786,0.74639 15.30528,9.49471 4.47891,10.45597 4.34522,11.40729 -2.6228,18.66377 -3.35861,3.49764 -6.10656,6.78109 -6.10656,7.29657 0,1.37395 5.85277,8.24375 8.00434,9.39523 1.53493,0.82147 2.99458,-0.12483 8.62594,-5.59231 7.70541,-7.48117 8.33906,-7.58741 18.72297,-3.13937 8.56099,3.66717 9.08324,4.44153 9.44811,14.00901 0.17242,4.52119 0.50647,8.80355 0.74233,9.51635 0.30841,0.93203 2.32839,1.21288 7.19258,1 L 405.5,352.5 Z m -19.70016,-23.9638 c -10.67289,-3.80699 -18.33078,-11.35633 -22.36038,-22.04342 -3.05145,-8.09287 -2.4486,-20.54768 1.37259,-28.35792 3.35636,-6.86014 10.92498,-14.07827 18.46988,-17.61456 C 388.65639,248.8954 390.8278,248.5 398.5,248.5 c 7.60528,0 9.8594,0.40309 14.54563,2.60111 17.83144,8.36363 25.75714,26.37629 19.92049,45.27315 -2.62767,8.50743 -10.78887,17.73431 -18.96612,21.44272 -7.5012,3.40182 -20.24989,4.03648 -27.70016,1.37898 z m 24.85921,-14.74014 c 2.3568,-1.65642 5.64766,-4.95005 7.31302,-7.31918 2.73862,-3.89594 3.02793,-5.04689 3.02793,-12.04591 0,-6.86727 -0.3407,-8.28999 -3.02644,-12.63813 -1.87851,-3.04127 -4.88315,-6.04765 -7.92158,-7.92616 -4.26169,-2.63481 -5.81111,-3.0226 -11.97356,-2.99674 -10.77892,0.0452 -17.2452,4.09758 -21.49439,13.4703 -2.39068,5.27328 -2.71097,13.56375 -0.70913,18.35485 2.02537,4.84739 7.54948,10.69807 12.11652,12.83282 3.01595,1.40973 5.78826,1.80018 11.19556,1.57677 6.10643,-0.2523 7.83124,-0.74974 11.47207,-3.30862 z M 134.9098,192.62888 c -15.45001,-5.52267 -21.2808,-23.57166 -11.78589,-36.48274 1.90705,-2.59318 5.15375,-5.1282 9.08184,-7.09109 5.29216,-2.64452 7.20084,-3.05711 14.20397,-3.07036 4.44966,-0.008 8.58479,-0.34592 9.1892,-0.75 0.66354,-0.44361 1.34121,-6.47948 1.71047,-15.23469 0.89347,-21.18482 4.09903,-34.722663 11.95765,-50.5 C 174.94739,68.095861 181.73856,58.671516 190.7079,49.745783 201.53962,38.966727 208.80398,33.720976 221,27.871227 c 5.775,-2.769946 11.175,-5.383169 12,-5.807161 1.09533,-0.562924 1.63489,-3.1283 2,-9.509125 C 235.76119,-0.74802341 233.61631,0 271,0 c 37.29675,0 35.2846,-0.68238481 35.83293,12.152041 0.19616,4.591377 0.71937,8.730826 1.16268,9.198775 0.44331,0.467949 4.56316,2.515612 9.15521,4.550362 C 340.29483,36.156349 360.39585,55.678671 372.33847,79.5 380.61414,96.007055 384,110.95632 384,130.98802 c 0,9.00884 0.36796,13.06413 1.25,13.77614 0.6875,0.55498 5.54725,1.18943 10.79945,1.4099 10.38212,0.43578 15.42067,2.45781 21.1475,8.48673 5.81961,6.12658 7.52671,16.94791 3.92458,24.87792 -2.31107,5.08775 -9.79385,11.74693 -14.92837,13.28527 -5.94903,1.78237 -266.27503,1.59515 -271.28336,-0.1951 z M 403.6893,179.75571 C 407.97641,177.411 410,174.28274 410,170 c 0,-4.42585 -1.92812,-7.26348 -6.36652,-9.36964 C 400.53877,159.16183 391.51621,159 312.73373,159 c -86.97079,0 -87.47887,-0.0117 -90.09887,-2.07258 -3.13166,-2.46336 -3.51422,-6.82163 -0.81334,-9.26589 1.65164,-1.49472 8.66933,-1.67238 75.25,-1.90499 L 370.5,145.5 370.44299,129 c -0.0483,-13.97303 -0.40227,-17.7252 -2.31142,-24.5 C 362.09752,83.087629 349.62923,63.784445 333.69639,51.188079 325.70965,44.873823 312.17688,37 309.31129,37 h -2.23053 l -0.29038,31.396474 c -0.27045,29.241173 -0.42115,31.540876 -2.19537,33.499996 -2.40079,2.651 -6.00413,2.69441 -8.59501,0.10353 -1.93696,-1.93696 -2,-3.333333 -2,-44.3 0,-31.566667 -0.30449,-42.604492 -1.2,-43.5 -1.2676,-1.267601 -40.0727,-1.800059 -43.21821,-0.593011 -1.40837,0.54044 -1.58179,5.309674 -1.58179,43.5 0,41.559678 -0.0622,42.955181 -2,44.893011 -2.6021,2.6021 -5.79848,2.53795 -8.68555,-0.17431 L 235,99.651372 V 68.384703 c 0,-17.196668 -0.36824,-31.494251 -0.8183,-31.772407 -1.18056,-0.729625 -10.10443,3.593925 -18.11899,8.778516 -24.12471,15.606193 -41.79428,43.99975 -45.04686,72.386618 -1.38907,12.12307 -1.29763,25.54079 0.18415,27.02257 0.821,0.821 5.69851,1.2 15.4433,1.2 13.585,0 14.31524,0.10272 15.8,2.22251 2.1938,3.13209 1.93996,5.48514 -0.89785,8.32294 L 199.09091,159 h -29.39757 c -28.94511,0 -29.44965,0.0351 -32.78089,2.28002 -9.45896,6.37439 -6.5063,16.83871 5.58755,19.80247 1.65,0.40435 60.375,0.66371 130.5,0.57635 119.20752,-0.14851 127.70743,-0.27229 130.6893,-1.90313 z"
     id="path1" />
</svg>
