<?xml version="1.0" encoding="UTF-8" standalone="no"?>
<!-- Created with Inkscape (http://www.inkscape.org/) -->

<svg
   version="1.1"
   id="svg1"
   width="512"
   height="512"
   viewBox="0 0 512 512"
   xmlns="http://www.w3.org/2000/svg"
   xmlns:svg="http://www.w3.org/2000/svg">
  <defs
     id="defs1" />
  <path
     style="fill:#f7684c;stroke:none"
     d="M 285.01544,62.742279 C 279.71878,64.827606 277.59381,71.306244 275.24692,76 l -17,34 c -1.97833,3.95663 -4.10831,11.50342 -8.45989,13.39661 C 242.19519,126.69949 228.25148,124 220,124 h -72 c -8.49109,0 -29.09042,-3.72748 -35.56636,2.51389 -3.86715,3.72705 -2.50005,10.33557 2.61034,11.97222 C 122.25112,140.79425 132.46542,139 140,139 h 81 c 11.15057,0 26.24422,2.6749 36.95679,-0.43365 5.84857,-1.69712 8.3381,-10.65 10.79629,-15.56635 l 15,-30 C 285.936,88.634155 287.92059,81.879639 291.63733,78.603394 295.10602,75.545807 302.70325,77 307,77 h 38 c 4.81262,0 11.88907,1.252045 15.6821,-2.433655 5.14181,-4.996338 0.21509,-11.794922 -5.68286,-12.45755 C 339.40366,60.356659 322.69962,62 307,62 c -6.53064,0 -15.84021,-1.676788 -21.98456,0.742279 M 461,77 c -1.82724,4.388855 -4.23398,12.320831 -8.39044,14.972229 C 445.58475,96.453369 427.2645,93 419,93 h -62 c -9.19531,0 -21.13632,-2.012909 -29.99536,0.57251 -5.74454,1.676483 -7.17371,7.51608 -9.28549,12.42749 -4.99158,11.60895 -9.61774,23.37427 -14.56946,35 -1.64069,3.85202 -3.2244,11.556 -7.37424,13.39661 C 289.88214,157.0105 279.39359,155 273,155 H 218 26 c 5.060518,-5.06052 11.563591,-14.69519 19,-15.85187 10.50634,-1.63418 22.364136,-0.14404 33,-0.14813 4.504044,-0.002 10.303535,0.58472 12.806328,-4.1088 C 98.402748,120.64551 66.21386,124 60,124 52.75909,124 42.803642,122.25491 36,125.00925 27.516155,128.44379 20.351463,138.64853 14,145 9.5196972,149.48032 2.1721566,154.64426 0.43364197,161 -0.82513839,165.60193 0,171.26315 0,176 0,182.31271 -2.4407058,195.0202 3.228395,199.39661 7.7370839,202.8772 17.595798,201 23,201 c 10.344215,0 17.580044,1.93326 27,6.23071 3.906864,1.78235 10.37851,3.18549 11.682098,7.87424 C 66.083099,230.93454 62,253.5296 62,270 c 0,5.21655 1.885532,15.08813 -1.027779,19.60648 C 54.046722,300.34741 42.952156,288.01147 35,294.27933 28.425636,299.46118 14.419538,310.63339 12.45216,319 c -1.670791,7.10532 4.256878,11.24445 -0.0093,18.94135 -2.6269487,4.73953 -8.6766597,3.393 -11.2638897,8.1173 C -1.076437,350.17709 0,356.46777 0,361 c 0,11.52039 -3.5738058,26.63385 12,27 0.580134,3.87042 3.418694,7.94019 3.446759,11.71451 0.02792,3.75424 -3.864151,6.14798 -3.084877,10.28549 1.413571,7.50525 19.515887,24.745 26.638118,27.24228 4.720955,1.6553 7.173565,-2.67026 11.424381,-2.69983 C 54.145466,434.51654 58.241993,437.35294 62,438 c 0.36787,15.6456 16.545212,12 28,12 4.474762,0 10.96443,1.1348 14.77161,-1.74228 3.29046,-2.4866 3.19474,-6.54004 3.22839,-10.25772 3.9158,-0.58694 7.89085,-3.35938 11.71451,-3.47144 5.56477,-0.16308 8.19715,5.47956 14.28549,1.72916 6.98581,-4.30325 21.49466,-17.1459 23.56174,-25.25772 1.92546,-7.55603 -6.15816,-14.35648 1.93748,-21.39661 C 164.53081,385.22784 179.58313,388 186,388 c 0,7.65466 -2.84569,22.79349 3.30324,28.56635 C 193.19231,420.21759 200.11803,419 205,419 h 39 c 5.02437,0 12.72208,1.40576 16.6821,-2.43365 C 266.01584,411.39508 263,394.97678 263,388 c 6.48935,0 23.69772,-3.03036 28.15741,2.3179 5.92886,7.11014 0.35263,11.51926 0.71603,18.6821 0.20713,4.08212 3.48133,7.25421 6.142,10 5.27628,5.44504 13.26773,16.89325 20.98456,18.52237 6.8905,1.45468 9.40118,-4.46936 16.99615,-0.92822 5.77997,2.69488 4.51322,7.05935 8.4375,10.9722 C 347.81265,450.93552 353.66409,450 358,450 c 11.694,0 29.62003,4.15839 30,-12 3.81262,-0.65649 7.92615,-3.48352 11.71451,-3.45755 3.78705,0.0259 6.1065,3.86246 10.28549,2.97992 7.68457,-1.62283 24.67459,-19.19937 27.24228,-26.52237 1.6553,-4.72095 -2.67029,-7.17358 -2.69983,-11.42438 C 434.51657,395.85452 437.35291,391.758 438,388 h 53 c 5.73553,0 15.15823,1.71524 19.25772,-3.39429 2.12167,-2.64444 1.73697,-6.43185 1.74228,-9.60571 0.0129,-7.69266 2.96149,-23.42438 -1.74228,-29.85187 -4.13742,-5.65356 -13.4154,-0.32031 -14.1991,-9.15277 -0.86593,-9.75946 -3.367,-29.88788 0.54477,-38.84723 2.45856,-5.63092 10.70566,-1.08691 13.93982,-6.37652 4.38739,-7.17575 1.92896,-24.52576 1.41281,-32.77161 -0.19897,-3.17877 -1.09784,-6.30209 -4.06482,-7.97223 C 501.50851,246.43491 488.22305,249 481,249 c 0,-18.85443 -2.6387,-33.1174 -8.66742,-51 -1.93341,-5.73495 -9.5636,-16.91403 -15.1528,-6.8912 -3.27722,5.87686 1.90982,14.29342 3.81714,19.8912 C 465.46649,224.11774 466,235.23779 466,249 l -155,-1 c 13.61411,-25.56345 22.49841,-54.34775 33.85031,-81 2.73639,-6.42456 6.70346,-24.487 13.36344,-27.39661 C 362.97644,137.52267 370.87097,139 376,139 h 41 c 4.92926,0 14.33459,-1.79349 18.58102,1.02777 6.02256,4.00131 6.97608,18.57578 9.88733,24.9321 2.20279,4.80948 8.50891,8.4072 12.78937,3.46762 2.4747,-2.85574 1.63611,-7.14206 0.70215,-10.42749 -2.27335,-7.9971 -5.72272,-28.12854 -13.17362,-32.54321 C 440.00314,122.03027 429.50256,124 423,124 h -53 c -6.57114,0 -18.34268,-2.23615 -23.60648,2.51389 -5.80218,5.23587 -8.22393,17.3959 -11.24383,24.48611 -9.89664,23.23553 -19.10376,46.76532 -29,70 -3.07916,7.22934 -6.00263,21.5578 -12.37424,26.39661 C 289.36578,250.74545 280.26663,249 275,249 c 9.6261,-35.19492 28.53955,-70.40088 42.85031,-104 3.68085,-8.64197 7.15851,-17.37085 10.86884,-26 1.36746,-3.1803 2.42913,-8.03125 5.55554,-9.97223 C 340.92822,104.897 357.26068,108 365,108 h 66 c 8.39182,0 21.1087,2.38934 28.98456,-0.60339 8.41568,-3.19788 13.48999,-20.826603 17.26236,-28.39661 1.52069,-3.051605 3.69085,-6.437531 3.30401,-9.995361 C 479.60056,60.26413 468.18689,62 462,62 h -61 c -6.12469,0 -20.37552,-1.909454 -19.66281,7.996918 C 381.97711,78.891815 393.94495,77 400,77 h 61 m -90.98456,78.57251 c -6.05404,1.78989 -7.85309,9.21387 -10.00464,14.42749 -5.78216,14.01129 -11.57016,28.02313 -17.43518,42 -2.15713,5.14066 -7.00076,12.65909 -2.14197,17.6821 C 345.14417,234.55182 358.72653,232 365,232 h 54 c 6.95325,0 17.44073,1.95929 23.95602,-0.60339 5.60025,-2.20276 4.8032,-7.75281 3.38425,-12.39661 -3.48276,-11.39804 -7.24991,-22.68762 -11.00693,-34 -2.60043,-7.82996 -4.00976,-21.96573 -10.55789,-27.48611 C 420.81247,154.17291 414.80905,155 410,155 c -12.09341,0 -28.37173,-2.86084 -39.98456,0.57251 M 93,170 v 40 L 41,187.52933 15,187 v -17 h 78 m 62,0 v 67 L 122,222.71915 109.02778,215.60956 108,202 v -32 h 47 m 63,94 -34,-14.13889 -12.97221,-6.51004 L 170,223 v -53 h 34 c 3.32814,0 9.61526,-1.17508 12.39661,1.02777 C 220.45514,174.24219 218,189.18661 218,194 v 70 M 291,170 247,277 233.02779,270.50153 232,251 V 199 L 233.02779,171.60339 248,170 h 43 m 139,48 h -73 l 13.20062,-34 6.44831,-12.97223 L 398,170 414.29785,171.02777 419.33334,183 430,218 m -352,1 65,29 v 1 H 96 c -4.319748,0 -13.852333,1.77936 -17.396606,-1.02777 C 74.492622,244.71643 76.116013,223.48978 78,219 m 372,76 v 47 c -7.97781,-0.0986 -17.0275,-2.40924 -15.88272,-13 0.74194,-6.86386 5.60309,-8.42505 -0.22608,-15 -5.67474,-6.40076 -15.2908,-19.25998 -23.72143,-21.66357 -6.50226,-1.85383 -10.42578,3.97833 -18.11115,0.30401 -5.67593,-2.71365 -4.31314,-10.60065 -11.06326,-12.32254 -7.30997,-1.86468 -28.29025,-2.85202 -34.88656,0.86112 -5.4506,3.06817 -3.63886,9.26654 -10.11344,12.10031 -7.0123,3.06912 -9.76544,-2.15732 -15.99536,-1.04166 -8.06259,1.44379 -20.84659,17.42175 -25.70679,23.76233 -5.22775,6.8201 6.39618,19.98071 -4.71142,25.39661 -3.90836,1.90564 -21.53092,2.30609 -24.9784,-0.42438 -7.09152,-5.61664 3.47483,-21.95264 -4.83178,-28.22995 C 255.77916,309.72519 248.69856,311 244,311 h -39 c -4.88196,0 -11.80768,-1.21759 -15.69676,2.43365 C 183.15431,319.20648 186,334.34534 186,342 c -6.39781,0 -21.06181,2.75006 -26.35107,-1.02777 C 150.3634,334.34006 159.53027,326.10294 157.35262,319 154.85922,310.86722 141.36943,300.59344 135,295.13733 c -7.12477,-6.10315 -10.79527,2.0224 -18,-0.50537 -8.57307,-3.00788 -6.77171,-9.7287 -13.18904,-13.45294 C 97.414497,277.46689 84.2584,280 77,280 v -17 h 69 c 10.28705,0 23.05809,-2.02039 33,0.78857 17.77519,5.02213 35.01019,15.38324 52,22.63273 5.60289,2.39071 13.35187,7.74386 19.57176,7.5278 13.23223,-0.45969 9.15721,-27.56629 20.48302,-30.6312 C 283.72183,259.89001 300.00873,264 313,264 c 30.29044,0 61.83633,-2.56754 92,0.0587 6.04791,0.52656 9.98264,5.92423 14,9.94135 9.2981,9.29749 16.94434,20.96124 31,21 m 47,-32 v 17 L 464,279 446,278.39661 430,263 h 67 M 93,294 c 1.530235,9.62799 18.91551,16.62491 28,18.25464 6.95903,1.24841 8.98146,-2.75971 14.93674,3.75 4.62866,5.05957 0.8079,7.41717 1.80862,12.99536 1.56606,8.72949 8.36951,25.67395 17.25464,28 v 16 c -8.3488,1.28928 -16.66278,19.95618 -17.47377,28 -0.65347,6.48141 3.13837,8.3045 -2.5463,13.97992 -5.62106,5.61194 -7.58316,1.59558 -13.97993,2.46838 -8.70972,1.18842 -26.167915,8.47852 -28,17.5517 H 77 C 75.83696,424.58679 50.224792,414.09012 42,420 H 41 L 30,409 v -1 c 5.563206,-8.43842 -4.439365,-33.8205 -15,-35 v -16 c 9.006111,-2.35278 16.0669,-19.11737 17.523918,-28 0.921578,-5.61835 -3.139168,-7.87265 1.539353,-12.99536 C 39.965942,309.5415 41.976036,313.08685 49,312.14969 57.884636,310.96426 75.937614,303.53302 77,294 h 16 m 327,26 v 1 c -6.13724,9.30762 4.40921,33.23325 15,36 v 16 c -10.45798,1.16803 -20.94489,26.72775 -15,35 v 1 l -11,11 h -1 c -8.27225,-5.94489 -33.83194,4.54205 -35,15 h -16 c -2.76675,-10.59076 -26.69238,-21.13727 -36,-15 h -1 l -9.12268,-11 0.57791,-11 -8.54398,-19.98071 -7.88348,-6.6034 L 294,357 c 9.7453,-2.3443 16.39145,-18.51526 18.24304,-28 1.23068,-6.30414 -2.83279,-8.37018 2.77701,-13.97992 5.60358,-5.60358 7.67279,-1.56525 13.97995,-2.77624 9.53152,-1.83008 25.64938,-8.47236 28,-18.24384 l 14.41589,1.02777 6.6034,7.88348 L 398,311.45526 409,310.87732 420,320 m 62,-25 v 34 L 480.39661,340.97223 466,342 v -47 h 16 M 249,404 h -48 v -58 c 0,-4.38083 -2.1506,-16.99896 1.60339,-19.97223 C 206.58244,322.87631 218.10313,325 223,325 c 5.09798,0 21.60173,-2.65216 24.97221,1.60339 3.40917,4.30442 0.80858,16.23157 0.62192,21.39661 C 247.92291,366.57397 249,385.38791 249,404 M 81,326.43903 c -7.217781,1.11572 -14.18087,3.55532 -19.996143,8.0903 -30.600832,23.86371 -7.468499,73.56906 29.996143,68.1705 48.30899,-6.96118 37.96056,-83.67444 -10,-76.2608 m 278,0 c -50.5849,7.96572 -37.27274,83.669 13,76.26004 48.4895,-7.14615 35.2738,-83.86179 -13,-76.26004 M 82,341.3009 c 28.92505,-4.2257 37.23244,41.23517 8,46.3704 -31.044209,5.45349 -39.261032,-41.80341 -8,-46.3704 m 281,0.003 c 29.11267,-3.10559 34.11856,42.98037 5,46.51156 -31.11633,3.77347 -36.14774,-43.1889 -5,-46.51156 M 186,357 v 16 h -16 v -16 h 16 m 94,0 v 16 c -14.91199,0 -17,-0.80948 -17,-16 h 17 m 217,0 v 16 h -47 v -16 z"
     id="path1" />
</svg>
