<?xml version="1.0" encoding="UTF-8" standalone="no"?>
<!-- Created with Inkscape (http://www.inkscape.org/) -->

<svg
   version="1.1"
   id="svg1"
   width="500"
   height="500"
   viewBox="0 0 500 500"
   xmlns="http://www.w3.org/2000/svg"
   xmlns:svg="http://www.w3.org/2000/svg">
  <defs
     id="defs1" />
  <path
     style="fill:#f6664f;stroke:none"
     d="M 44,59 C 31.973999,59 7.9666543,54.136353 1.3179013,67.000763 -1.6319517,72.708313 0,81.73764 0,88 v 47 171 51 c 0,6.88071 -1.7856621,16.75266 1.5725309,22.98456 C 5.3322363,386.96158 12.015974,386.99954 19,387 h 37 130 36 c 5.03818,0 12.21068,1.27521 16.8912,-0.85803 5.61881,-2.56085 4.93515,-10.99542 -0.93518,-12.70832 C 228.37857,370.63904 214.96584,373 205,373 H 65 27 c -3.836178,0 -10.487448,1.22455 -12.396605,-3.14813 C 12.105494,364.13074 14,354.18567 14,348 V 298 141 96 C 14,90.334106 12.310986,81.39859 14.603395,76.148132 17.365885,69.821014 38.032837,73 44,73 v 191 46 c 3.93e-4,6.13068 -0.554592,14.03046 5.189041,17.99072 C 54.370045,331.56311 63.030933,330 69,330 h 48 182 54 c 7.28549,0 16.56296,0.38989 17.77081,-9.00076 1.1211,-8.71616 -7.8536,-14.39109 -13.0563,-19.96375 C 342.86539,285.13043 326.93576,269.56461 311.03549,254.71451 248.86638,196.65149 190.18225,134.18213 130,74 c 22.93033,-3.545868 47.82213,-1 71,-1 h 133 48 c 4.31226,0 14.19678,-1.841309 16.97223,2.317902 C 401.68942,79.389862 400,88.281036 400,93 v 44 116 c 0,17.63177 -3.20184,38.74161 0.34412,56 2.00915,9.77878 11.84805,9 19.65588,9 9.8147,0 21.54602,-1.73489 31,1.2207 15.35117,4.7992 24.96783,22.88044 17.33023,37.7793 C 459.44479,374.3331 441.67694,373 425,373 H 312 c -12.99582,0 -26.00558,-0.17752 -39,0.004 -4.88385,0.0682 -10.85788,1.66503 -9.63812,7.9923 1.27282,6.60251 8.51086,6.00351 13.63812,6.00385 h 42 c 42.00256,0 86.22638,4.00629 128,-0.17053 C 463.06421,385.22327 478.32785,374.87036 483.22607,359 489.69864,338.02875 485,309.84702 485,288 V 138 85 c 0,-9.948273 1.2319,-20.628021 -2.74536,-30 C 472.16565,31.226562 449.65591,29 427,29 419.642,29 408.30203,27.212341 402.80402,33.394287 397.58624,39.261139 400,51.690521 400,59 H 210 C 180.4713,59 147.14178,63.384674 118,58.851868 111.84747,57.894897 107.15118,51.151184 103,47 L 73,17 C 67.897118,11.897125 61.313461,2.7386169 53.000771,4.409729 46.755333,5.6652527 44.514343,11.250183 44.090279,17 43.068607,30.852661 44,45.108154 44,59 M 59,24 c 25.751083,18.139435 47.70499,46.704987 70,69 46.37909,46.37909 92.85413,92.51459 139.16977,138.83023 20.04983,20.04984 40.73825,39.52304 60.40585,60.00003 C 335.82291,299.37579 346.52747,306.40903 351,316 h -41 c -5.62848,0 -13.36935,1.38397 -18.75693,-0.3179 -6.16052,-1.94602 0.20984,-17.2366 -10.23922,-16.21604 C 273.4202,300.20673 275,310.80951 275,316 h -32 c 0,-6.48358 1.7486,-16.05194 -1.3179,-21.95602 -2.2629,-4.35688 -7.72818,-6.12702 -11.07871,-1.81479 C 226.62944,297.34375 229,309.78409 229,316 h -33 c 0,-3.94275 0.93054,-9.36746 -1.02779,-12.94135 -2.80354,-5.11639 -9.33043,-4.32836 -11.36882,0.96064 C 182.24501,307.54388 183,312.28018 183,316 h -32 c 0,-6.56372 2.94109,-25.40643 -7.00386,-26.33795 C 133.11945,288.64325 136,309.77606 136,316 h -32 c 0,-3.94275 0.93053,-9.36749 -1.02778,-12.94135 C 95.609169,289.62128 90,310.3605 90,316 H 58 V 110 51 l 1,-27 m 412,290 c -13.85156,-8.36908 -24.99875,-10 -41,-10 -3.8609,0 -14.33636,1.86905 -16.39661,-2.3179 C 411.51407,297.43607 413,289.65326 413,285 V 245 103 58 c 0,-3.604614 -1.63657,-12.450745 2.3179,-14.396606 C 419.34348,41.622559 426.59558,43 431,43 c 16.16843,0 36.21323,2.315186 39.6713,22 C 475.13611,90.415588 471,120.16934 471,146 V 314 M 118.01929,161.75772 C 110.12863,164.64807 112,176.45361 112,183 v 53 c 0,6.42838 -1.8158,16.306 1.85802,21.94135 C 118.03258,264.34479 129.41788,262 136,262 h 50 c 6.69992,0 16.68416,1.8439 22.94522,-0.74228 12.77068,-5.27502 -3.39273,-19.5491 -8.03473,-24.16897 -19.76214,-19.66794 -40.82866,-38.42896 -59.62576,-59.07795 -4.66489,-5.12448 -15.07867,-19.25192 -23.26544,-16.25308 M 128,184 c 19.9763,21.2402 46.21829,40.17636 63,64 h -65 v -45 l 2,-19 M 97,482 v -21 h 324 v 21 H 303 c -7.67474,0 -35.88272,-4.39029 -35.88272,7 0,8.43375 10.12179,7 15.88272,7 h 53 108 c 14.86823,0 33.81577,3.27475 45.95679,-7.3287 C 502.85315,477.40814 501.05048,455.48059 499.90973,440 498.98776,427.48846 490.31,415.93408 478,412.7608 468.75092,410.37656 457.51041,412 448,412 H 389 100 c -27.506592,0 -49.269569,11.94839 -74,23.23071 -7.195297,3.2826 -20.6529245,6.40726 -24.5424383,13.8125 -2.7849679,5.30228 -0.1525294,11.38864 4.6365741,14.42746 C 18.565176,471.38391 34.413475,476.75861 48,482.57254 58.370125,487.0101 68.871819,492.98038 80,495.19214 92.716751,497.7196 107.06295,496 120,496 h 76 36 c 4.79935,-0.008 10.96498,0.125 11.72763,-6.01465 C 245.26884,477.57779 217.49788,482 210,482 H 97 M 83,426 v 55 C 77.20256,480.40683 60.183308,475.36072 57.603397,469.72531 55.371815,464.85077 57,456.29333 57,451 57,447.11438 55.827126,440.80658 58.027779,437.39352 61.752235,431.61716 76.654831,428.14658 83,426 m 338,0 v 21 H 97 v -21 h 324 m 14,56 v -56 c 11.57993,0 32.90149,-4.08374 42.99615,2.00928 12.43348,7.50467 12.50849,44.28003 -0.0108,51.76233 C 467.60458,485.9758 446.83127,482 435,482 M 43,444 v 20 L 20,454 Z"
     id="path1" />
</svg>
