<?xml version="1.0" encoding="UTF-8" standalone="no"?>
<!-- Created with Inkscape (http://www.inkscape.org/) -->

<svg
   version="1.1"
   id="svg1"
   width="500"
   height="500"
   viewBox="0 0 500 500"
   xmlns="http://www.w3.org/2000/svg"
   xmlns:svg="http://www.w3.org/2000/svg">
  <defs
     id="defs1" />
  <path
     style="fill:#f56a4d;stroke:none"
     d="M 143,292 C 123.09251,299.2467 93.227135,315.17572 81.362656,333 63.068577,360.48358 77.351479,400.07904 109,409.56018 134.82233,417.29593 168.17902,412 195,412 h 176 c 25.92621,0 55.45642,3.97272 81,-0.32562 C 462.52594,409.90314 471.62244,400.04706 470.6713,389 468.15765,359.80487 426.04724,368 406,368 H 196 133 c -5.22935,0 -19.19451,-0.63727 -14.77701,-9.90665 4.09291,-8.58828 23.68775,-15.32559 31.77701,-19.9429 7.74348,-4.41992 16.36002,-11.31198 25,-13.65198 C 185.11342,321.7594 198.53665,324 209,324 c 29.15007,0 60.03012,2.93909 89,-0.17361 9.75101,-1.0477 18.95776,-5.9733 24.84106,-13.84104 3.05304,-4.08282 4.96347,-13.24478 10.21372,-14.66745 C 339.29691,293.62646 347.54999,295 354,295 c 20.79834,0 45.89487,3.78714 66,-2.03937 29.67703,-8.6004 35.71271,-35.65307 42.37424,-61.96063 5.14911,-20.33478 10.40997,-40.64301 15.4992,-61 5.41825,-21.673 10.56955,-43.47668 16.55094,-65 1.7962,-6.463409 7.87658,-19.550568 4.39276,-25.891205 C 495.17529,72.48056 482.2897,75 476,75 H 410 221 163 c -8.1624,0 -19.02739,1.897675 -26.8912,-0.317902 C 129.77072,72.896393 127.71539,54.721466 125.39584,49 118.88319,32.935791 106.83476,19.803802 92,11.014679 73.264107,-0.08575439 53.039246,0 32,0 20.335985,0 8.6650047,0.14013672 2.4421296,12 -3.9159679,24.117584 3.2179852,39.140015 16,42.956024 40.008839,50.123749 65.983635,35.197784 82.531639,62 c 5.21592,8.448029 6.945923,19.463043 9.34182,29 4.107719,16.35095 8.411651,32.64661 12.500001,49 C 117.01772,190.57703 132.46411,240.95447 143,292 M 92,28 c -1.758003,3.769836 -5.491524,9.365631 -10,10.118835 -4.506622,0.7529 -11.571663,-4.958618 -16,-6.37268 C 54.146027,27.960968 41.261292,29.000793 29,29 24.51136,28.999725 17.895384,29.987213 15.743055,24.891205 10.693432,12.935364 28.681698,15 35,15 c 21.429825,0 38.61924,0.610321 57,13 m 12,12 c 13.26252,22.031219 17.68836,48.259613 23.87346,73 9.34283,37.37131 19.15594,74.62378 28.5,112 4.09259,16.37039 8.4517,32.68121 12.74228,49 1.63528,6.21967 2.11755,15.36795 7.93904,19.25772 C 185.31451,298.77667 205.26755,295 215,295 h 100 c -8.74182,19.87463 -33.24612,15 -51,15 h -63 c -9.37268,0 -20.87975,-1.80554 -30,0.41821 -10.55103,2.57263 -21.60117,11.36743 -31,16.73224 -13.32237,7.60437 -38.21553,16.03296 -36.90278,34.84955 2.01711,28.91269 44.57066,21 63.90278,21 h 210 62 c 5.97729,0 18.94193,-1.01465 16.54706,8.98148 C 453.63574,399.95923 442.05252,398 436,398 H 374 172 c -22.79205,0 -58.93652,6.86218 -75.331017,-13.03937 C 84.478767,370.16275 85.035782,347.61102 99.040123,334.09335 108.73556,324.73486 123.37004,319.07458 135,312.4213 c 6.42059,-3.67313 18.35089,-7.77927 22.0517,-14.46451 3.03978,-5.49115 -1.51827,-15.32923 -2.92516,-20.95679 -4.67189,-18.68756 -9.58063,-37.31018 -14.25308,-56 -11.26578,-45.06311 -23.23409,-89.93634 -34.5,-135 C 103.38327,78.039246 101.90414,69.56897 98.662811,62 97.204239,58.594025 93.200447,53.864288 93.878082,50 94.670021,45.483887 100.20731,41.768646 104,40 m 91,50 8,53 -39,1 -13.14583,-1.60339 L 146.12654,127 137,90 h 58 m 72,0 c 10e-4,13.01315 1.99417,25.99203 2,39 10e-4,3.25549 1.72427,10.70251 -0.11728,13.39661 -5.24634,7.67517 -35.01544,-6.6352 -35.01544,8.60031 0,14.84271 30.27945,1.44217 35.9537,8.60647 2.74213,3.46219 1.03656,11.24469 1.21839,15.39661 C 271.57925,187.32834 273,199.63864 273,212 h -32 c -3.28159,0 -9.52849,1.17465 -12.25772,-1.02777 C 223.50299,206.74426 223.8009,185.62564 222.8696,179 218.70213,149.35126 214.54439,119.42688 209,90 h 58 m 72,0 -3,54 h -52 l -3,-54 h 58 m 72,0 -8,54 h -52 l 2,-54 h 58 m 72,0 -9.37344,39 -5.13657,13.97223 L 454,144 h -36 l 8,-54 h 57 m -278,68 8,54 H 181 L 168.72763,210.97223 163.88426,197 154,158 h 51 m 131,1 -3,53 H 301 L 288.60339,210.97223 286.96063,197 285,158 c 15.6395,0 36.01465,-3.42944 51,1 m 65,0 -8,53 h -46 l 3,-54 c 15.6395,0 36.01465,-3.42944 51,1 m 65,-1 -9.88428,39 -4.84335,13.97223 L 439,212 h -32 l 8,-54 h 51 M 224,280 h -39 c -2.56319,-12.4184 -6.05103,-24.69797 -9.12654,-37 -0.94113,-3.7645 -4.33681,-10.9118 -3.08565,-14.6821 1.07092,-3.22717 6.63812,-2.31674 9.21219,-2.3179 6.57454,-0.003 28.56192,-3.47144 32.98688,1.74228 2.62288,3.09042 2.45544,10.37778 3.09337,14.25772 2.07869,12.64291 3.57295,25.40396 5.91975,38 m 52,0 h -38 l -8,-53 32,-1 10.97223,1.60339 L 274.57562,240 276,280 m 53,0 h -38 l -2,-39 0.0671,-13.39661 L 298,226 h 25 l 8.39661,2.3179 L 331.03937,243 329,280 m 15,0 3,-54 h 30 l 11.39276,1.02777 0.18286,11.97223 -4.49536,29 -2.82254,10.97223 L 371,280 h -27 m 53,0 c 0.26694,-12.93054 3.59418,-26.22391 5.57562,-39 0.60492,-3.90045 0.23203,-11.48209 3.85803,-13.97223 C 410.74838,224.06467 420.93561,226 426,226 c 4.18887,0 18.29681,-2.22131 20.88196,1.60339 2.57336,3.80732 -2.47824,14.33207 -3.50772,18.39661 C 436.97119,271.28015 422.1105,280 397,280 M 162,427.46451 c -46.00945,8.29541 -33.7298,80.3013 12,72.07098 47.1037,-8.47757 34.97592,-80.54065 -12,-72.07098 m 251,0 c -46.06516,8.30545 -33.72351,80.30017 12,72.07098 47.1037,-8.47757 34.97589,-80.54062 -12,-72.07098 m -247,13.84027 c 26.74101,-3.62976 33.91589,39.36838 7,43.48227 -29.71849,4.54223 -36.66824,-39.45514 -7,-43.48227 m 251,0 c 26.73563,-3.62903 33.68958,39.40124 7,43.48227 -29.71616,4.54379 -36.75244,-39.44373 -7,-43.48227 m -250.95602,15.45294 c -8.56343,3.20474 -3.58437,16.44437 4.85109,13.18982 8.37039,-3.22946 3.64627,-16.36984 -4.85109,-13.18982 m 251,0 c -8.56345,3.20474 -3.58432,16.44437 4.85107,13.18982 8.37042,-3.22949 3.64624,-16.36984 -4.85107,-13.18982 z"
     id="path1" />
</svg>
