<?xml version="1.0" encoding="UTF-8" standalone="no"?>
<!-- Created with Inkscape (http://www.inkscape.org/) -->

<svg
   version="1.1"
   id="svg1"
   width="500"
   height="500"
   viewBox="0 0 500 500"
   xmlns="http://www.w3.org/2000/svg"
   xmlns:svg="http://www.w3.org/2000/svg">
  <defs
     id="defs1" />
  <path
     style="fill:#f6664f;stroke:none"
     d="m 157,146 c -11.93541,0 -24.93985,-1.18283 -33.46759,9.09335 C 110.69317,170.56503 122.98615,193.0343 142,193.95987 210.30412,197.28479 279.6048,194 348,194 c 20.07379,0 58.19861,7.74036 71.35107,-11.00076 9.65296,-13.75458 0.27347,-32.86411 -15.35107,-36.46991 -5.30688,-1.22473 -17.79153,2.29641 -19.6821,-4.58795 C 382.10617,133.88751 384.76193,124.31177 383.57175,116 379.59891,88.255066 366.98486,63.055786 346,44.170532 335.04517,34.311768 320.00775,30.916412 309.3179,22.006165 303.15625,16.87027 310.9552,5.7183228 302.8912,1.1790161 298.83731,-1.1029663 292.48325,0 288,0 H 254 C 249.23572,0 242.23131,-1.2458496 238.14815,1.7422791 231.45883,6.6376648 238.707,17.143677 232.6821,21.92514 222.78539,29.779327 209.14542,32.81369 199.00076,41.285492 166.42929,68.485962 157,105.37833 157,146 M 307,36 c 30.83386,7.323761 55.55673,41.350739 61.98535,71 C 371.76495,119.81967 371,132.97006 371,146 H 256 c -6.95168,0 -33.25798,-3.89554 -35.24844,5.01929 -0.93335,4.18023 3.71472,7.2818 7.24844,7.83258 C 238.81842,160.53806 251.04715,159 262,159 h 113 c 9.70288,0 33.71512,-4.41559 34.87576,10 0.62577,7.7724 -6.04059,11.68909 -12.87576,12.69907 C 382.24564,183.87918 365.91449,182 351,182 H 189 152 c -6.68925,-0.0107 -14.10603,-0.27518 -18.56636,-6.04398 -5.80469,-7.50753 1.53694,-16.04925 9.56636,-16.85107 15.36272,-1.53409 31.55685,-0.0791 47,-0.10495 4.57983,-0.008 13.40627,-0.31235 13.24846,-6.99924 -0.32297,-13.68533 -28.46927,0.16761 -32.64507,-8.31866 C 167.5118,137.3992 170.3759,125.69925 170.91435,119 173.55386,86.159729 199.9536,42.247314 235,36 v 53 c 3.1e-4,4.764893 -0.26639,16.53299 7.95679,14.14893 C 250.59067,100.9357 248,86.896088 248,81 V 13 h 33 c 3.15076,0 9.73898,-1.216309 11.97223,1.603394 C 296.23691,18.725372 294,30.912384 294,36 v 43 c 0,5.910828 -1.54352,14.412384 0.60339,19.980713 C 297.88699,107.49716 306.16034,101.53699 306.8912,95 309.03403,75.834473 307,55.294403 307,36 M 140.04398,203.65277 C 134.42072,205.53348 135.00189,211.10535 135,216 c -0.003,7.28992 3.63719,29.23972 -3.14815,33.46759 C 117.46105,258.43433 109.64583,244.62971 100,235 95.618706,230.62604 89.794518,223.35062 83,227.60416 71.134888,235.03204 60.884552,249.09506 51,259 c -3.619808,3.62726 -9.440033,8.14709 -7.391975,14 2.85601,8.1618 14.387386,15.97293 20.391975,22 3.546356,3.55963 7.607079,6.60434 5.707565,12 C 64.359009,322.19281 50.902187,318 37,318 31.950127,318 23.29504,316.4317 20.742283,322.18903 18.906914,326.32843 20,332.5657 20,337 v 33 c 3.32e-4,5.17386 -0.794275,11.8786 5.043982,14.25772 C 33.054935,387.52222 46.403679,384.99945 55,385 c 4.67606,3.1e-4 9.507553,-0.79709 11.895058,4.05865 C 76.983467,409.57651 49.449944,413.30511 43.608025,430 41.559967,435.85287 47.380192,440.37274 51,444 c 9.480648,9.50018 20.892586,26.12173 33,31.96759 14.297348,6.90323 24.65719,-27.9686 38,-26.32562 24.73558,3.04584 6.02988,32.04101 14.02779,46.24923 2.77472,4.92927 9.18769,4.10849 13.97221,4.1088 13.19989,8.5e-4 34.72176,4.15259 46.98071,-0.74228 15.13004,-6.04126 -4.50895,-39.32736 9.07793,-46.46915 C 220.26448,445.32144 227.48618,458.50208 237,468 c 4.10776,4.10089 9.44864,11.0014 16,7.81714 12.17203,-5.9162 23.48441,-22.25189 32.99924,-31.81714 3.59454,-3.61359 9.26971,-8.21997 7.24304,-14 -5.22058,-14.88904 -32.34262,-20.95261 -24.4267,-38.99536 5.95511,-13.57352 31.71521,-2.0911 43.14044,-6.74692 C 317.79428,381.8786 316.99966,375.17386 317,370 c 8.2e-4,-13.19989 4.15259,-34.72174 -0.74228,-46.98071 C 314.12415,317.67587 308.84351,318.00217 304,318 c -8.65274,-0.004 -30.46259,4.08075 -34.64044,-5.01929 -9.06122,-19.73681 17.99643,-23.74566 23.89352,-39.98071 1.99195,-5.48389 -2.78473,-9.50684 -6.25384,-13 L 264,237 c -3.44464,-3.44464 -7.26068,-8.73358 -12,-10.39197 -15.03891,-5.26245 -23.70105,30.01227 -38,26.50925 -23.62915,-5.78876 -4.49294,-30.84641 -13.02779,-46.00848 C 198.05785,201.93146 190.9903,203 186,203 c -13.51512,0 -33.13297,-3.63589 -45.95602,0.65277 m 242.06482,0.0895 c -9.50062,4.08594 0.90011,19.29776 -6.33643,24.2662 -3.14575,2.15979 -6.09018,-2.08999 -7.94598,-4.04937 -4.65863,-4.91861 -10.67283,-11.91852 -17.64197,-6.56559 -5.78671,4.44474 -23.31238,18.46344 -20.56558,26.60648 1.66766,4.94389 14.44335,11.91008 12.74536,17.13733 -2.8013,8.62378 -21.74738,-3.00241 -24.93055,7.90665 -1.81018,6.2037 -3.18295,31.27334 2.79474,34.92825 5.40427,3.30426 18.17905,-2.57575 21.71143,4.13657 1.36978,2.60287 -2.40347,5.34725 -3.9483,6.90585 -4.07157,4.10785 -11.21848,9.38348 -7.96299,15.98535 3.27735,6.64615 19.79874,25.22168 27.97147,22.25308 4.81534,-1.74908 12.04706,-14.22519 17.13736,-12.47839 7.82019,2.68356 -1.44125,19.78519 6.01077,24.19754 6.42377,3.80347 21.48444,1.16156 28.85187,1.02313 3.0343,-0.057 6.24902,-0.23315 7.97223,-3.14349 2.85788,-4.82675 -2.37677,-19.04529 3.34567,-21.67594 7.53726,-3.46493 13.00543,15.59201 22.6821,12.07715 6.87143,-2.49594 26.40457,-20.23318 22.99615,-28.25308 -1.95431,-4.59845 -14.23138,-11.96277 -12.375,-17.13733 2.9918,-8.33948 20.73526,2.40216 24.63657,-6.92132 2.59183,-6.19404 3.42313,-33.15302 -3.44675,-36.19907 -4.74807,-2.10526 -18.11258,2.32205 -20.75079,-3.06018 -2.56287,-5.22855 10.58945,-12.78571 12.15357,-17.6821 2.34503,-7.34094 -17.53037,-26.30704 -24.21375,-28.35263 -8.76083,-2.68143 -14.69733,15.71619 -21.6821,12.29245 -5.37671,-2.63553 -0.97107,-16.0542 -3.06018,-20.80634 -2.97131,-6.75885 -30.09958,-5.99286 -36.14892,-3.3912 M 189,216 c 0,9.90402 -4.21909,32.65768 1.74228,40.78625 3.30926,4.51233 11.32249,5.68216 16.25772,7.79245 3.37836,1.44458 8.20538,4.91175 12,4.28858 7.59323,-1.24698 16.1806,-13.51412 21.16975,-18.88194 2.30121,-2.47586 5.94907,-7.52199 9.83025,-7.06404 5.35423,0.63174 11.40143,9.48014 15,13.0787 3.37256,3.37256 10.45828,8.20218 11.65433,13 0.89325,3.58313 -3.47632,6.80515 -5.65509,9 -5.61823,5.6597 -18.09059,14.0488 -20.06868,22 -1.05477,4.23978 2.93052,9.19064 4.38426,13 1.91275,5.01215 3.22156,12.99438 7.81866,16.25772 C 271.49368,335.19238 293.92505,331 304,331 v 28 c 0,3.12152 1.04575,8.77856 -1.02777,11.39661 -1.99701,2.52142 -7.16925,1.60321 -9.97223,1.60339 -8.29172,5.2e-4 -18.98688,-1.79523 -26.99536,0.43365 -6.06067,1.68674 -7.24402,8.4321 -9.19678,13.56635 -1.72993,4.5484 -6.50819,11.10361 -6.04475,16 0.38707,4.08957 4.5495,7.29761 7.23765,10 L 278,432 v 1 c -6.25378,7.67868 -13.63654,14.50516 -20.71451,21.42361 -2.14006,2.09183 -4.83606,6.06839 -8.2716,5.65509 -10.7275,-1.29049 -18.37455,-21.24087 -28.1034,-25.85647 -5.1445,-2.44067 -21.85251,6.36227 -26.8912,9.08023 C 185.33549,447.98666 189,466.58267 189,475 c 0,2.98038 1.07277,8.85266 -1.60339,10.97223 -2.27211,1.79953 -6.70322,1.02759 -9.39661,1.02777 -7.36292,4.9e-4 -21.04645,2.66177 -27.6821,-0.60339 C 146.7907,484.66101 148,478.1886 148,475 c 0,-9.05545 3.79842,-27.51117 -6.01543,-32.19983 -5.0984,-2.43585 -19.78226,-10.3829 -24.98457,-8.94986 -7.69054,2.11844 -15.50024,13.66159 -21,19.14969 -2.226715,2.22198 -5.49736,6.79321 -9,6.79321 -6.034317,0 -14.984291,-12.77569 -19,-16.79321 -3.674667,-3.67633 -7.568077,-6.89847 -9,-12 6.999527,-5.0274 25.828514,-20.16937 26.906639,-29 0.589897,-4.83167 -4.162804,-10.61438 -5.84182,-15 -1.857132,-4.85089 -2.675003,-12.04721 -8.108802,-14.25772 C 64.427078,369.67944 52.068108,372.00052 44,372 c -2.802994,-1.8e-4 -7.975204,0.91803 -9.972221,-1.60339 C 31.954264,367.77856 33,362.12152 33,359 v -28 c 9.75988,0 34.258202,4.38892 41.721451,-2.43365 3.883598,-3.55018 4.684624,-10.83902 6.706016,-15.56635 1.623513,-3.79681 5.44001,-8.68121 4.350312,-13 -2.065743,-8.18713 -14.180741,-16.00861 -19.943673,-21.83102 -2.357757,-2.38211 -6.841091,-5.2139 -5.577934,-9.16974 C 61.927528,263.76501 69.214073,258.78595 73,255 c 3.372536,-3.37254 8.202202,-10.45827 13,-11.65433 3.583138,-0.89325 6.805138,3.47632 9,5.65509 5.76846,5.72618 13.85374,17.72159 22,19.77701 4.20316,1.06055 9.27045,-2.60406 13,-4.19907 4.83853,-2.06924 13.00169,-3.4299 16.25772,-7.80325 C 152.2332,248.7495 148,225.82812 148,216 h 41 m 217,0 c 0,12.35617 -1.50928,19.81705 11,25.30789 3.11832,1.36878 6.50439,3.25824 10,2.07327 5.44629,-1.84622 10.03668,-8.41784 14,-12.38116 h 1 c 2.58496,2.58527 8.79294,6.89615 8.79321,10.91049 4e-4,5.84889 -10.50021,9.56795 -11.37115,16.08951 -2.38419,17.85236 15.42807,19 27.57794,19 l -1,16 c -12.01773,-1.02667 -19.70584,-1.01135 -24.4483,11 -1.13221,2.86755 -2.7909,5.84442 -1.76621,9 2.06574,6.3616 9.37601,9.91309 12.21451,16 l -9,9 c -7.10266,-1.99365 -10.13947,-10.43579 -17,-12.29166 -2.80698,-0.7593 -5.52469,0.90238 -8,1.9838 -13.05585,5.70389 -12,12.08911 -12,25.30786 h -15 c 0,-13.00555 0.80792,-19.71228 -12,-25.30786 -2.50525,-1.09451 -5.16101,-2.6969 -8,-1.99848 -5.77603,1.42096 -10.31424,12.07749 -16.01389,11.38504 C 351.06238,336.60199 347.90924,331.3454 345,329 c 2.81995,-6.07904 10.17187,-9.70819 12.21451,-16.00076 C 362.3765,297.09708 342.48779,290.26498 331,293 l -1,-16 c 12.40326,0 19.54056,1.5542 24.87192,-11 1.16726,-2.74866 3.26324,-5.88196 2.41977,-9 -2.75598,-10.18794 -16.92533,-11.05312 -6.33182,-21.95526 L 355,231 h 1 c 3.96335,3.96335 8.55371,10.53491 14,12.38116 3.12875,1.06061 6.17563,-0.37387 9,-1.61496 13.02872,-5.72515 12,-12.68942 12,-25.7662 h 15 m -14,32.46451 c -47.68988,8.59839 -33.41479,80.95209 14,72.0679 46.12085,-8.64172 31.83658,-80.33212 -14,-72.0679 m 2,12.86419 c 29.35217,-5.13552 39.55344,41.14902 10,46.3426 -30.88751,5.428 -40.79013,-40.95548 -10,-46.3426 m -236,27.11033 c -8.68996,1.36785 -17.66702,4.79516 -25,9.66589 -54.527542,36.21851 -21.77847,126.72971 44,116.45605 9.80656,-1.53167 18.76324,-4.67013 27,-10.23227 55.49731,-37.47634 19.74954,-126.2391 -46,-115.88967 m 3,12.85034 c 7.48517,-0.97513 15.8152,-0.57031 23,1.80014 48.92502,16.14163 44.60582,91.76809 -8,98.62112 -7.89589,1.02863 -16.43695,0.42291 -24,-2.06943 -49.22188,-16.22055 -42.56879,-91.63388 9,-98.35183 z"
     id="path1" />
</svg>
